G04*
G04 #@! TF.GenerationSoftware,Altium Limited,Altium Designer,20.0.13 (296)*
G04*
G04 Layer_Physical_Order=1*
G04 Layer_Color=255*
%FSLAX24Y24*%
%MOIN*%
G70*
G01*
G75*
%ADD11C,0.0100*%
%ADD15C,0.0002*%
%ADD16R,0.0315X0.0299*%
%ADD17R,0.0551X0.0236*%
%ADD18R,0.0299X0.0315*%
%ADD19R,0.0472X0.0472*%
%ADD20R,0.0965X0.0472*%
%ADD21R,0.0315X0.0394*%
%ADD22R,0.0551X0.1496*%
%ADD23R,0.0630X0.1378*%
%ADD24R,0.0236X0.0787*%
%ADD25R,0.0984X0.1181*%
%ADD26O,0.0236X0.0866*%
%ADD27O,0.0866X0.0236*%
%ADD28R,0.0551X0.0394*%
%ADD50R,0.0827X0.0354*%
%ADD51R,0.0591X0.0118*%
%ADD52C,0.0300*%
%ADD53C,0.0600*%
%ADD54C,0.0200*%
%ADD55C,0.0315*%
%ADD56C,0.0236*%
%ADD57C,0.0180*%
%ADD58C,0.0157*%
%ADD59C,0.0276*%
%ADD60C,0.0150*%
%ADD61C,0.0101*%
%ADD62C,0.0250*%
%ADD63C,0.0709*%
%ADD64O,0.0787X0.0433*%
%ADD65O,0.0709X0.0433*%
%ADD66C,0.2000*%
%ADD67C,0.0230*%
%ADD68C,0.0220*%
G36*
X18734Y43650D02*
X18571Y43611D01*
X18417Y43547D01*
X18275Y43460D01*
X18148Y43352D01*
X18040Y43225D01*
X17953Y43083D01*
X17889Y42929D01*
X17850Y42766D01*
X17800Y42770D01*
Y43700D01*
X17800Y43700D01*
X18730D01*
X18734Y43650D01*
D02*
G37*
G36*
X45388Y43025D02*
Y42096D01*
X45001Y41710D01*
X44961Y41715D01*
X44947Y41762D01*
X44970Y41777D01*
X45007Y41834D01*
X45020Y41900D01*
X45007Y41966D01*
X44976Y42012D01*
Y42026D01*
X44966Y42080D01*
X44935Y42126D01*
X44886Y42175D01*
X44906Y42225D01*
X44918Y42230D01*
X44931D01*
X44985Y42253D01*
X44994Y42262D01*
X45006Y42267D01*
X45047Y42308D01*
X45052Y42320D01*
X45062Y42329D01*
X45084Y42384D01*
Y42396D01*
X45089Y42408D01*
Y42467D01*
X45084Y42479D01*
Y42492D01*
X45062Y42546D01*
X45052Y42555D01*
X45047Y42567D01*
X45006Y42609D01*
X44994Y42614D01*
X44985Y42623D01*
X44931Y42645D01*
X44918D01*
X44906Y42650D01*
X44847D01*
X44835Y42645D01*
X44822D01*
X44768Y42623D01*
X44759Y42614D01*
X44747Y42609D01*
X44705Y42567D01*
X44700Y42555D01*
X44691Y42546D01*
X44669Y42492D01*
Y42482D01*
X44642Y42443D01*
X44633Y42443D01*
X44571D01*
X44557Y42445D01*
X44307D01*
X44293Y42443D01*
X44281D01*
X44267Y42445D01*
X43996D01*
X43983Y42443D01*
X43932D01*
Y42428D01*
X43927Y42424D01*
X43751D01*
X43741Y42434D01*
Y42808D01*
X43731Y42862D01*
X43700Y42908D01*
X43608Y43000D01*
X43562Y43031D01*
X43508Y43041D01*
X42509D01*
X42500Y43050D01*
X42454Y43081D01*
X42400Y43091D01*
X42346Y43081D01*
X42300Y43050D01*
X42269Y43004D01*
X42259Y42950D01*
X42269Y42896D01*
X42300Y42850D01*
X42350Y42800D01*
X42396Y42769D01*
X42450Y42759D01*
X43449D01*
X43459Y42749D01*
Y42375D01*
X43462Y42359D01*
X43426Y42324D01*
D01*
X43367Y42283D01*
Y42110D01*
X42933D01*
Y41691D01*
X43701D01*
X43722Y41641D01*
X43660Y41579D01*
X43635Y41543D01*
X43627Y41500D01*
X43627Y41500D01*
Y41260D01*
X43627Y41260D01*
X43635Y41217D01*
X43660Y41181D01*
X43718Y41122D01*
X43718Y41122D01*
X43755Y41098D01*
X43798Y41089D01*
X43932D01*
Y40960D01*
X43908Y40920D01*
X43865Y40912D01*
X43829Y40887D01*
X43829Y40887D01*
X43653Y40711D01*
X43367D01*
Y40809D01*
X42933D01*
Y40390D01*
X43367D01*
Y40487D01*
X43562D01*
X43583Y40437D01*
X43472Y40325D01*
X43432Y40267D01*
X43418Y40197D01*
Y39434D01*
X43417Y39432D01*
X43051D01*
X42981Y39418D01*
X42922Y39378D01*
X42883Y39320D01*
X42878Y39293D01*
X42404Y38820D01*
X42393Y38817D01*
X42191D01*
Y38407D01*
X42150Y38362D01*
X42094Y38369D01*
X40738D01*
X40735Y38394D01*
X40723Y38423D01*
Y38990D01*
X40723Y38990D01*
X40720Y39014D01*
Y39108D01*
X40701D01*
X40674Y39172D01*
X40616Y39247D01*
X40616Y39247D01*
X40063Y39800D01*
Y42284D01*
X40200Y42421D01*
X40216Y42424D01*
X40273Y42462D01*
X40310Y42518D01*
X40313Y42534D01*
X40407Y42628D01*
X40464Y42703D01*
X40501Y42790D01*
X40513Y42884D01*
X40501Y42978D01*
X40464Y43066D01*
X40407Y43141D01*
X40332Y43199D01*
X40298Y43213D01*
X40308Y43263D01*
X45150D01*
X45388Y43025D01*
D02*
G37*
G36*
X47328Y31267D02*
X47278Y31261D01*
X47261Y31329D01*
X47197Y31483D01*
X47110Y31625D01*
X47002Y31752D01*
X46875Y31860D01*
X46733Y31947D01*
X46579Y32011D01*
X46416Y32050D01*
X46250Y32063D01*
X46084Y32050D01*
X45921Y32011D01*
X45767Y31947D01*
X45625Y31860D01*
X45498Y31752D01*
X45390Y31625D01*
X45303Y31483D01*
X45239Y31329D01*
X45200Y31166D01*
X45187Y31000D01*
X45200Y30834D01*
X45239Y30671D01*
X45303Y30517D01*
X45390Y30375D01*
X45498Y30248D01*
X45625Y30140D01*
X45767Y30053D01*
X45921Y29989D01*
X46084Y29950D01*
X46080Y29900D01*
X17800D01*
Y42430D01*
X17850Y42434D01*
X17889Y42271D01*
X17953Y42117D01*
X18040Y41975D01*
X18148Y41848D01*
X18275Y41740D01*
X18417Y41653D01*
X18571Y41589D01*
X18734Y41550D01*
X18900Y41537D01*
X19066Y41550D01*
X19229Y41589D01*
X19383Y41653D01*
X19525Y41740D01*
X19652Y41848D01*
X19760Y41975D01*
X19847Y42117D01*
X19911Y42271D01*
X19950Y42434D01*
X19963Y42600D01*
X19950Y42766D01*
X19911Y42929D01*
X19847Y43083D01*
X19760Y43225D01*
X19652Y43352D01*
X19525Y43460D01*
X19383Y43547D01*
X19229Y43611D01*
X19066Y43650D01*
X19070Y43700D01*
X33516D01*
X33523Y43691D01*
X33521Y43629D01*
X33521Y43629D01*
X33171Y43279D01*
X33146Y43243D01*
X33138Y43200D01*
X33138Y43200D01*
Y42397D01*
X32918Y42178D01*
X32899Y42182D01*
X32269D01*
X32200Y42168D01*
X32141Y42128D01*
X32102Y42069D01*
X32088Y42000D01*
X32102Y41931D01*
X32141Y41872D01*
X32200Y41832D01*
X32269Y41818D01*
Y41682D01*
X32200Y41668D01*
X32141Y41628D01*
X32102Y41569D01*
X32088Y41500D01*
X32102Y41431D01*
X32141Y41372D01*
X32200Y41332D01*
X32269Y41318D01*
X32899D01*
X32934Y41325D01*
X32958Y41279D01*
X32893Y41214D01*
X32584D01*
X32502Y41198D01*
X32489Y41189D01*
X32335D01*
X32300Y41182D01*
X32033D01*
X31961Y41167D01*
X31900Y41126D01*
X31217Y40443D01*
X31176Y40382D01*
X31161Y40310D01*
Y39814D01*
X31036Y39689D01*
X30616D01*
X30580Y39682D01*
X30335D01*
X30237Y39780D01*
X30262Y39826D01*
X30301Y39818D01*
X30931D01*
X31000Y39832D01*
X31059Y39872D01*
X31098Y39931D01*
X31112Y40000D01*
X31098Y40069D01*
X31059Y40128D01*
X31000Y40168D01*
X30931Y40182D01*
X30301D01*
X30231Y40168D01*
X30172Y40128D01*
X30133Y40069D01*
X30119Y40000D01*
X30133Y39931D01*
X30158Y39892D01*
X30128Y39847D01*
X30101Y39853D01*
X21474D01*
X21459Y39868D01*
X21423Y39923D01*
X21366Y39960D01*
X21354Y39963D01*
X20958Y40358D01*
X20909Y40391D01*
X20850Y40403D01*
X19359D01*
Y40417D01*
X18940D01*
Y39983D01*
X19359D01*
Y40097D01*
X20787D01*
X21137Y39746D01*
X21140Y39734D01*
X21177Y39677D01*
X21234Y39640D01*
X21260Y39635D01*
X21303Y39592D01*
X21352Y39559D01*
X21411Y39547D01*
X30037D01*
X30128Y39457D01*
X30133Y39430D01*
X30172Y39372D01*
X30231Y39332D01*
X30234Y39332D01*
X30230Y39282D01*
X29717D01*
X29647Y39268D01*
X29588Y39228D01*
X29172Y38812D01*
X29132Y38753D01*
X29118Y38683D01*
Y38674D01*
X28982D01*
Y38683D01*
X28968Y38753D01*
X28928Y38812D01*
X28870Y38851D01*
X28800Y38865D01*
X28730Y38851D01*
X28672Y38812D01*
X28632Y38753D01*
X28618Y38683D01*
Y38674D01*
X28482D01*
Y38683D01*
X28468Y38753D01*
X28428Y38812D01*
X28370Y38851D01*
X28300Y38865D01*
X28253Y38856D01*
X27762Y39347D01*
X27725Y39371D01*
X27682Y39380D01*
X27682Y39380D01*
X26330D01*
X26323Y39390D01*
X26266Y39428D01*
X26200Y39441D01*
X26134Y39428D01*
X26077Y39390D01*
X26040Y39334D01*
X26027Y39268D01*
X26040Y39201D01*
X26077Y39145D01*
X26134Y39107D01*
X26200Y39094D01*
X26266Y39107D01*
X26323Y39145D01*
X26330Y39155D01*
X26446D01*
X26461Y39105D01*
X26445Y39094D01*
X26407Y39038D01*
X26394Y38972D01*
X26407Y38905D01*
X26445Y38849D01*
X26501Y38812D01*
X26567Y38798D01*
X26634Y38812D01*
X26690Y38849D01*
X26697Y38860D01*
X27136D01*
X27167Y38823D01*
X27167Y38806D01*
X27132Y38753D01*
X27118Y38683D01*
Y38488D01*
X27095Y38453D01*
X27078Y38368D01*
Y37770D01*
X27078Y37770D01*
X27095Y37685D01*
X27143Y37613D01*
X27167Y37589D01*
Y37400D01*
X27370D01*
X27400Y37380D01*
X27485Y37364D01*
X29101D01*
X29101Y37364D01*
X29186Y37380D01*
X29215Y37400D01*
X29688D01*
X29688Y37400D01*
X29732Y37387D01*
X29740Y37348D01*
X29777Y37291D01*
X29834Y37254D01*
X29900Y37241D01*
X29966Y37254D01*
X30023Y37291D01*
X30060Y37348D01*
X30073Y37414D01*
X30060Y37480D01*
X30023Y37537D01*
X30012Y37544D01*
Y37585D01*
X30004Y37628D01*
X29979Y37665D01*
X29979Y37665D01*
X29912Y37732D01*
Y37914D01*
X29928Y37925D01*
X29968Y37984D01*
X29982Y38054D01*
Y38683D01*
X29968Y38753D01*
X29928Y38812D01*
X29869Y38851D01*
X29854Y38854D01*
X29826Y38909D01*
X29826Y38911D01*
X29837Y38918D01*
X31450D01*
X31519Y38932D01*
X31578Y38972D01*
X31588Y38986D01*
X31638Y38971D01*
Y38115D01*
X31562Y38039D01*
X31516Y38070D01*
X31450Y38083D01*
X31384Y38070D01*
X31327Y38032D01*
X31290Y37976D01*
X31277Y37909D01*
X31290Y37843D01*
X31327Y37787D01*
X31384Y37749D01*
X31450Y37736D01*
X31516Y37749D01*
X31573Y37787D01*
X31580Y37797D01*
X31591D01*
X31591Y37797D01*
X31634Y37806D01*
X31670Y37830D01*
X31728Y37888D01*
X31783Y37873D01*
X31814Y37827D01*
X31870Y37790D01*
X31936Y37777D01*
X32003Y37790D01*
X32059Y37827D01*
X32096Y37884D01*
X32110Y37950D01*
X32096Y38016D01*
X32059Y38073D01*
X32048Y38080D01*
Y38739D01*
X32098Y38765D01*
X32118Y38752D01*
X32200Y38736D01*
X34400D01*
X34482Y38752D01*
X34551Y38799D01*
X35301Y39549D01*
X35348Y39618D01*
X35364Y39700D01*
X35348Y39782D01*
X35301Y39851D01*
X35232Y39898D01*
X35150Y39914D01*
X35068Y39898D01*
X34999Y39851D01*
X34311Y39164D01*
X32200D01*
X32118Y39148D01*
X32098Y39135D01*
X32048Y39161D01*
Y39725D01*
X32173Y39850D01*
X32200Y39832D01*
X32269Y39818D01*
X32899D01*
X32969Y39832D01*
X33028Y39872D01*
X33067Y39931D01*
X33081Y40000D01*
X33067Y40069D01*
X33028Y40128D01*
X32969Y40168D01*
X32899Y40182D01*
X32269D01*
X32204Y40169D01*
X32201Y40171D01*
X32190Y40225D01*
X32283Y40318D01*
X32899D01*
X32969Y40332D01*
X33028Y40372D01*
X33067Y40430D01*
X33081Y40500D01*
X33067Y40570D01*
X33028Y40628D01*
X32969Y40668D01*
X32899Y40682D01*
X32269D01*
X32200Y40668D01*
X32141Y40628D01*
X32102Y40570D01*
X32088Y40500D01*
X32098Y40450D01*
X31671Y40023D01*
X31646Y39987D01*
X31638Y39944D01*
X31638Y39944D01*
Y39229D01*
X31588Y39214D01*
X31578Y39228D01*
X31519Y39268D01*
X31450Y39282D01*
X31204D01*
X31201Y39290D01*
X31195Y39332D01*
X31248Y39367D01*
X31491Y39609D01*
X31532Y39671D01*
X31546Y39743D01*
X31539Y39779D01*
Y40232D01*
X32111Y40804D01*
X32328D01*
X32362Y40811D01*
X32489D01*
X32502Y40802D01*
X32584Y40786D01*
X32982D01*
X33064Y40802D01*
X33133Y40849D01*
X34094Y41809D01*
X34116Y41843D01*
X35157D01*
X35162Y41835D01*
X35504Y41493D01*
Y40000D01*
X35520Y39918D01*
X35567Y39849D01*
X35568Y39847D01*
Y39675D01*
X35172Y39278D01*
X35132Y39220D01*
X35118Y39150D01*
X35125Y39114D01*
X35083Y39072D01*
X35054Y39078D01*
X34988Y39064D01*
X34932Y39027D01*
X34894Y38971D01*
X34881Y38904D01*
X34894Y38838D01*
X34932Y38782D01*
X34988Y38744D01*
X35054Y38731D01*
X35121Y38744D01*
X35177Y38782D01*
X35214Y38838D01*
X35228Y38904D01*
X35222Y38933D01*
X35264Y38975D01*
X35300Y38968D01*
X35370Y38982D01*
X35428Y39022D01*
X35878Y39472D01*
X35918Y39530D01*
X35932Y39600D01*
Y39862D01*
X35948Y39887D01*
X35964Y39969D01*
X35948Y40050D01*
X35932Y40074D01*
Y41582D01*
X35916Y41664D01*
X35870Y41733D01*
X35524Y42079D01*
Y42254D01*
X35384D01*
X35383Y42255D01*
X35301Y42271D01*
X34167D01*
Y42360D01*
X33973D01*
X33950Y42365D01*
X33943D01*
X33920Y42360D01*
X33733D01*
Y42360D01*
Y42360D01*
X33636Y42426D01*
X33643Y42450D01*
X33643D01*
X33601Y42492D01*
X33601Y42492D01*
X33601D01*
X33560Y42530D01*
X33558Y42534D01*
Y43095D01*
X33726Y43263D01*
X39992D01*
X40002Y43213D01*
X39968Y43199D01*
X39893Y43141D01*
X39800Y43048D01*
X39784Y43045D01*
X39727Y43007D01*
X39690Y42951D01*
X39687Y42935D01*
X39443Y42691D01*
X39386Y42616D01*
X39349Y42528D01*
X39337Y42434D01*
Y39650D01*
X39349Y39556D01*
X39386Y39468D01*
X39443Y39393D01*
X39997Y38840D01*
Y38325D01*
X40009Y38231D01*
X40021Y38201D01*
Y38031D01*
X40033Y37937D01*
X40049Y37900D01*
Y37492D01*
X40720D01*
Y37643D01*
X41943D01*
X42144Y37442D01*
X42219Y37385D01*
X42307Y37348D01*
X42401Y37336D01*
X43150D01*
X43244Y37348D01*
X43332Y37385D01*
X43395Y37433D01*
X43436Y37402D01*
Y37226D01*
X43452Y37144D01*
X43499Y37074D01*
X43674Y36899D01*
X43744Y36852D01*
X43826Y36836D01*
X44113D01*
X44173Y36848D01*
X44574D01*
Y37204D01*
X44260D01*
X44195Y37248D01*
X44113Y37264D01*
X43914D01*
X43864Y37314D01*
Y37500D01*
X43848Y37582D01*
X43801Y37651D01*
X43603Y37850D01*
X43533Y37897D01*
X43516Y37900D01*
X43521Y37950D01*
X43903D01*
Y37596D01*
X44574D01*
Y37950D01*
X44926D01*
Y37596D01*
X45597D01*
Y37952D01*
X45485D01*
X45466Y37998D01*
X45831Y38364D01*
X45844Y38383D01*
X46061D01*
Y38817D01*
X46050D01*
Y38950D01*
X46092Y38968D01*
X46522D01*
X46882Y38609D01*
Y37483D01*
X46843Y37457D01*
X46709Y37323D01*
X46700D01*
X46700Y37323D01*
X46639Y37310D01*
X46483D01*
Y37218D01*
X46263D01*
Y37310D01*
X46106D01*
X46045Y37323D01*
X45984Y37310D01*
X45828D01*
Y37227D01*
X45353D01*
X45347Y37231D01*
X45262Y37248D01*
X45177Y37231D01*
X45137Y37204D01*
X44926D01*
Y36848D01*
X45126D01*
X45198Y36800D01*
X45283Y36783D01*
X45283Y36783D01*
X45949D01*
X45949Y36783D01*
X46034Y36800D01*
X46043Y36806D01*
X46065Y36792D01*
X46149Y36775D01*
X46596D01*
X46596Y36775D01*
X46681Y36792D01*
X46753Y36840D01*
X46792Y36879D01*
X46801D01*
X46801Y36879D01*
X46862Y36891D01*
X46917D01*
Y36917D01*
X46958Y36944D01*
X47157Y37143D01*
X47205Y37215D01*
X47222Y37300D01*
X47208Y37368D01*
Y38676D01*
X47196Y38739D01*
X47160Y38792D01*
X46741Y39211D01*
X46739Y39220D01*
X46700Y39278D01*
X46641Y39318D01*
X46572Y39332D01*
X43883D01*
X43843Y39393D01*
X43782Y39454D01*
Y40122D01*
X43814Y40154D01*
X44110D01*
X44127Y40157D01*
X44269D01*
X44287Y40154D01*
X44463D01*
X44481Y40157D01*
X44642Y40157D01*
X44669Y40118D01*
Y40108D01*
X44691Y40054D01*
X44700Y40045D01*
X44705Y40033D01*
X44747Y39991D01*
X44759Y39986D01*
X44768Y39977D01*
X44822Y39955D01*
X44835D01*
X44847Y39950D01*
X44906D01*
X44918Y39955D01*
X44931D01*
X44985Y39977D01*
X44994Y39986D01*
X45006Y39991D01*
X45047Y40033D01*
X45052Y40045D01*
X45062Y40054D01*
X45084Y40108D01*
Y40121D01*
X45089Y40133D01*
Y40192D01*
X45084Y40203D01*
Y40216D01*
X45062Y40271D01*
X45052Y40280D01*
X45047Y40292D01*
X45006Y40333D01*
X44994Y40338D01*
X44985Y40347D01*
X44970Y40354D01*
X44964Y40410D01*
X44970Y40414D01*
X45007Y40470D01*
X45020Y40536D01*
X45007Y40602D01*
X44970Y40659D01*
X44913Y40696D01*
X44847Y40709D01*
X44781Y40696D01*
X44724Y40659D01*
X44722Y40655D01*
X44722Y40655D01*
X44709Y40647D01*
X44655Y40663D01*
X44642Y40689D01*
Y40893D01*
X44935D01*
X44935Y40893D01*
X44978Y40901D01*
X45015Y40925D01*
X45186Y41096D01*
X45186Y41096D01*
X45210Y41133D01*
X45219Y41176D01*
Y41352D01*
X45779Y41913D01*
X45779Y41913D01*
X45804Y41949D01*
X45812Y41992D01*
X45812Y41992D01*
Y43150D01*
X45804Y43193D01*
X45779Y43229D01*
X45779Y43229D01*
X45379Y43629D01*
X45377Y43691D01*
X45384Y43700D01*
X47328D01*
Y31267D01*
D02*
G37*
G36*
Y30733D02*
Y29924D01*
X47288Y29900D01*
X46420D01*
X46416Y29950D01*
X46579Y29989D01*
X46733Y30053D01*
X46875Y30140D01*
X47002Y30248D01*
X47110Y30375D01*
X47197Y30517D01*
X47261Y30671D01*
X47278Y30739D01*
X47328Y30733D01*
D02*
G37*
%LPC*%
G36*
X41921Y41687D02*
X41171D01*
Y40239D01*
X41171Y40218D01*
X41121Y40214D01*
X41116Y40236D01*
X41110Y40266D01*
X41073Y40323D01*
X41016Y40360D01*
X40950Y40373D01*
X40884Y40360D01*
X40827Y40323D01*
X40790Y40266D01*
X40777Y40200D01*
X40790Y40134D01*
X40827Y40077D01*
X40864Y40053D01*
Y39997D01*
X40827Y39973D01*
X40790Y39916D01*
X40777Y39850D01*
X40790Y39784D01*
X40827Y39727D01*
X40884Y39690D01*
X40950Y39677D01*
X41016Y39690D01*
X41073Y39727D01*
X41110Y39784D01*
X41123Y39850D01*
X41110Y39916D01*
X41073Y39973D01*
X41036Y39997D01*
Y40053D01*
X41073Y40077D01*
X41110Y40134D01*
X41117Y40166D01*
X41121Y40188D01*
X41171Y40189D01*
X41172Y40189D01*
X41208Y40189D01*
X41921D01*
Y41687D01*
D02*
G37*
G36*
X40475Y40373D02*
X40409Y40360D01*
X40352Y40323D01*
X40315Y40266D01*
X40302Y40200D01*
X40315Y40134D01*
X40352Y40077D01*
X40385Y40056D01*
X40386Y40051D01*
X40381Y39998D01*
X40343Y39973D01*
X40305Y39916D01*
X40292Y39850D01*
X40305Y39784D01*
X40343Y39727D01*
X40399Y39690D01*
X40466Y39677D01*
X40532Y39690D01*
X40588Y39727D01*
X40626Y39784D01*
X40639Y39850D01*
X40626Y39916D01*
X40588Y39973D01*
X40556Y39994D01*
X40554Y39999D01*
X40559Y40052D01*
X40598Y40077D01*
X40635Y40134D01*
X40648Y40200D01*
X40635Y40266D01*
X40598Y40323D01*
X40541Y40360D01*
X40475Y40373D01*
D02*
G37*
G36*
X31200Y43512D02*
X31200Y43512D01*
X27051D01*
X27051Y43512D01*
X27008Y43504D01*
X26971Y43479D01*
X26901Y43409D01*
X26490D01*
Y42990D01*
X26925D01*
Y43116D01*
X27097Y43288D01*
X31154D01*
X31388Y43054D01*
Y41530D01*
X31377Y41523D01*
X31340Y41466D01*
X31327Y41400D01*
X31340Y41334D01*
X31377Y41277D01*
X31434Y41240D01*
X31500Y41227D01*
X31566Y41240D01*
X31623Y41277D01*
X31660Y41334D01*
X31673Y41400D01*
X31660Y41466D01*
X31623Y41523D01*
X31612Y41530D01*
Y43100D01*
X31612Y43100D01*
X31604Y43143D01*
X31579Y43179D01*
X31279Y43479D01*
X31243Y43504D01*
X31200Y43512D01*
D02*
G37*
G36*
X32899Y43182D02*
X32269D01*
X32200Y43168D01*
X32141Y43128D01*
X32102Y43069D01*
X32088Y43000D01*
X32102Y42931D01*
X32141Y42872D01*
X32200Y42832D01*
X32269Y42818D01*
X32899D01*
X32969Y42832D01*
X33028Y42872D01*
X33067Y42931D01*
X33081Y43000D01*
X33067Y43069D01*
X33028Y43128D01*
X32969Y43168D01*
X32899Y43182D01*
D02*
G37*
G36*
X30931D02*
X30301D01*
X30231Y43168D01*
X30172Y43128D01*
X30133Y43069D01*
X30119Y43000D01*
X30133Y42931D01*
X30172Y42872D01*
X30231Y42832D01*
X30301Y42818D01*
X30931D01*
X31000Y42832D01*
X31059Y42872D01*
X31098Y42931D01*
X31112Y43000D01*
X31098Y43069D01*
X31059Y43128D01*
X31000Y43168D01*
X30931Y43182D01*
D02*
G37*
G36*
X35524Y43002D02*
X34853D01*
Y42646D01*
X35524D01*
Y43002D01*
D02*
G37*
G36*
X29184Y43105D02*
X28512D01*
Y42627D01*
X28484Y42586D01*
X28466Y42583D01*
X28441Y42578D01*
X28405Y42553D01*
X28405Y42553D01*
X28367Y42516D01*
X28317Y42537D01*
Y42731D01*
X27646D01*
Y42504D01*
X27182D01*
X27182Y42504D01*
X27139Y42496D01*
X27102Y42471D01*
X27004Y42373D01*
X26968D01*
X26925Y42391D01*
X26925Y42423D01*
Y42810D01*
X26490D01*
Y42700D01*
X26217D01*
Y42810D01*
X25783D01*
Y42718D01*
X25467D01*
Y42810D01*
X25032D01*
Y42713D01*
X24830D01*
X24823Y42723D01*
X24766Y42761D01*
X24700Y42774D01*
X24634Y42761D01*
X24577Y42723D01*
X24540Y42667D01*
X24527Y42601D01*
X24540Y42534D01*
X24577Y42478D01*
X24634Y42441D01*
X24700Y42427D01*
X24766Y42441D01*
X24823Y42478D01*
X24830Y42489D01*
X24996D01*
X25032Y42453D01*
X25032Y42391D01*
X24989Y42373D01*
X23600D01*
X23534Y42439D01*
X23537Y42451D01*
X23524Y42517D01*
X23486Y42573D01*
X23430Y42611D01*
X23363Y42624D01*
X23297Y42611D01*
X23241Y42573D01*
X23203Y42517D01*
X23190Y42451D01*
X23203Y42384D01*
X23241Y42328D01*
X23297Y42291D01*
X23363Y42277D01*
X23376Y42280D01*
X23443Y42213D01*
X23422Y42163D01*
X22556D01*
X22556Y42163D01*
X22513Y42154D01*
X22477Y42130D01*
X22477Y42130D01*
X22318Y41971D01*
X22306Y41973D01*
X22239Y41960D01*
X22183Y41923D01*
X22146Y41866D01*
X22132Y41800D01*
X22146Y41734D01*
X22183Y41677D01*
X22239Y41640D01*
X22306Y41627D01*
X22372Y41640D01*
X22428Y41677D01*
X22466Y41734D01*
X22479Y41800D01*
X22477Y41812D01*
X22603Y41938D01*
X23659D01*
X23682Y41888D01*
X23656Y41850D01*
X23643Y41783D01*
X23656Y41717D01*
X23694Y41661D01*
X23750Y41623D01*
X23817Y41610D01*
X23883Y41623D01*
X23939Y41661D01*
X23977Y41717D01*
X23981Y41738D01*
X27232D01*
X27296Y41674D01*
X27296Y41674D01*
X27332Y41650D01*
X27375Y41642D01*
X27375Y41642D01*
X27832D01*
X27839Y41631D01*
X27895Y41594D01*
X27962Y41580D01*
X28028Y41594D01*
X28084Y41631D01*
X28122Y41687D01*
X28135Y41754D01*
X28122Y41820D01*
X28084Y41876D01*
X28028Y41914D01*
X27962Y41927D01*
X27895Y41914D01*
X27839Y41876D01*
X27832Y41866D01*
X27641D01*
X27626Y41916D01*
X27644Y41928D01*
X27682Y41984D01*
X27695Y42051D01*
X27682Y42117D01*
X27672Y42132D01*
X27650Y42173D01*
X27650Y42173D01*
X27668Y42216D01*
X27669Y42217D01*
X27690Y42217D01*
X28314D01*
Y40947D01*
X27646D01*
Y40656D01*
X26919D01*
X26919Y40656D01*
X26876Y40647D01*
X26839Y40623D01*
X26839Y40623D01*
X26787Y40571D01*
X26734Y40560D01*
X26677Y40523D01*
X26640Y40466D01*
X26627Y40400D01*
X26640Y40334D01*
X26677Y40277D01*
X26734Y40240D01*
X26800Y40227D01*
X26866Y40240D01*
X26923Y40277D01*
X26960Y40334D01*
X26973Y40400D01*
X26999Y40432D01*
X27835D01*
X27835Y40432D01*
X27846Y40434D01*
X28317D01*
Y40539D01*
X28367Y40560D01*
X28512Y40415D01*
Y40060D01*
X29184D01*
Y40537D01*
X29234Y40558D01*
X29354Y40438D01*
X29354Y40438D01*
X29390Y40413D01*
X29401Y40411D01*
Y40208D01*
X29836D01*
Y40569D01*
X29886Y40590D01*
X29941Y40534D01*
Y40481D01*
X30051Y40372D01*
X30135D01*
X30157Y40372D01*
X30185Y40363D01*
X30231Y40332D01*
X30301Y40318D01*
X30931D01*
X31000Y40332D01*
X31059Y40372D01*
X31098Y40430D01*
X31112Y40500D01*
X31098Y40570D01*
X31059Y40628D01*
X31059Y40633D01*
X31167Y40742D01*
X31057Y40851D01*
X31059Y40872D01*
X31098Y40931D01*
X31112Y41000D01*
X31098Y41069D01*
X31059Y41128D01*
X31000Y41168D01*
Y41332D01*
X31059Y41372D01*
X31098Y41431D01*
X31112Y41500D01*
X31098Y41569D01*
X31059Y41628D01*
X31000Y41668D01*
X30931Y41682D01*
X30301D01*
X30231Y41668D01*
X30172Y41628D01*
X30133Y41569D01*
X30127Y41537D01*
X30072Y41521D01*
X29712Y41881D01*
Y41992D01*
X29817D01*
Y42411D01*
X29541D01*
X29412Y42540D01*
X29430Y42590D01*
X29817D01*
Y43010D01*
X29383D01*
Y42912D01*
X29184D01*
Y43105D01*
D02*
G37*
G36*
X32899Y42682D02*
X32269D01*
X32200Y42668D01*
X32141Y42628D01*
X32102Y42569D01*
X32088Y42500D01*
X32102Y42431D01*
X32141Y42372D01*
X32200Y42332D01*
X32269Y42318D01*
X32899D01*
X32969Y42332D01*
X33028Y42372D01*
X33067Y42431D01*
X33081Y42500D01*
X33067Y42569D01*
X33028Y42628D01*
X32969Y42668D01*
X32899Y42682D01*
D02*
G37*
G36*
X30931D02*
X30301D01*
X30231Y42668D01*
X30172Y42628D01*
X30133Y42569D01*
X30119Y42500D01*
X30133Y42431D01*
X30172Y42372D01*
X30231Y42332D01*
X30301Y42318D01*
X30931D01*
X31000Y42332D01*
X31059Y42372D01*
X31098Y42431D01*
X31112Y42500D01*
X31098Y42569D01*
X31059Y42628D01*
X31000Y42668D01*
X30931Y42682D01*
D02*
G37*
G36*
Y42182D02*
X30301D01*
X30231Y42168D01*
X30172Y42128D01*
X30133Y42069D01*
X30119Y42000D01*
X30133Y41931D01*
X30172Y41872D01*
X30231Y41832D01*
X30301Y41818D01*
X30931D01*
X31000Y41832D01*
X31059Y41872D01*
X31098Y41931D01*
X31112Y42000D01*
X31098Y42069D01*
X31059Y42128D01*
X31000Y42168D01*
X30931Y42182D01*
D02*
G37*
G36*
X37457Y40955D02*
X37390Y40942D01*
X37334Y40904D01*
X37296Y40848D01*
X37283Y40781D01*
X37296Y40715D01*
X37334Y40659D01*
X37390Y40621D01*
X37457Y40608D01*
X37523Y40621D01*
X37579Y40659D01*
X37617Y40715D01*
X37630Y40781D01*
X37617Y40848D01*
X37579Y40904D01*
X37523Y40942D01*
X37457Y40955D01*
D02*
G37*
G36*
X37250Y42365D02*
X37243D01*
X37220Y42360D01*
X37033D01*
Y42258D01*
X36212D01*
X36194Y42254D01*
X35876D01*
Y41898D01*
X36194D01*
X36212Y41894D01*
X36936D01*
Y41500D01*
X36952Y41418D01*
X36999Y41349D01*
X37025Y41331D01*
X37027Y41273D01*
X36990Y41216D01*
X36977Y41150D01*
X36990Y41084D01*
X37027Y41027D01*
X37064Y41003D01*
X37053Y40964D01*
X37047Y40954D01*
X36984Y40942D01*
X36927Y40904D01*
X36890Y40848D01*
X36877Y40781D01*
X36890Y40715D01*
X36927Y40659D01*
X36984Y40621D01*
X37050Y40608D01*
X37116Y40621D01*
X37173Y40659D01*
X37210Y40715D01*
X37223Y40781D01*
X37210Y40848D01*
X37173Y40904D01*
X37136Y40928D01*
X37147Y40968D01*
X37153Y40977D01*
X37216Y40990D01*
X37273Y41027D01*
X37310Y41084D01*
X37323Y41150D01*
X37310Y41216D01*
X37273Y41273D01*
X37275Y41331D01*
X37301Y41349D01*
X37348Y41418D01*
X37364Y41500D01*
Y41941D01*
X37467D01*
Y42360D01*
X37273D01*
X37250Y42365D01*
D02*
G37*
G36*
X38614Y41687D02*
X37864D01*
Y40189D01*
X38614D01*
Y41687D01*
D02*
G37*
G36*
X19496Y41296D02*
X18904D01*
Y40863D01*
X18570Y40530D01*
X18546Y40493D01*
X18537Y40450D01*
Y40417D01*
X18341D01*
Y39983D01*
X18760D01*
Y40288D01*
X18763Y40299D01*
Y40403D01*
X19063Y40704D01*
X19496D01*
Y41296D01*
D02*
G37*
G36*
X37250Y40465D02*
X37181Y40451D01*
X37122Y40412D01*
X37082Y40353D01*
X37068Y40283D01*
Y39654D01*
X37082Y39584D01*
X37122Y39525D01*
X37181Y39486D01*
X37250Y39472D01*
X37320Y39486D01*
X37378Y39525D01*
X37418Y39584D01*
X37432Y39654D01*
Y40283D01*
X37418Y40353D01*
X37378Y40412D01*
X37320Y40451D01*
X37250Y40465D01*
D02*
G37*
G36*
X36750D02*
X36681Y40451D01*
X36622Y40412D01*
X36582Y40353D01*
X36568Y40283D01*
Y39654D01*
X36582Y39584D01*
X36622Y39525D01*
X36681Y39486D01*
X36750Y39472D01*
X36820Y39486D01*
X36878Y39525D01*
X36918Y39584D01*
X36932Y39654D01*
Y40283D01*
X36918Y40353D01*
X36878Y40412D01*
X36820Y40451D01*
X36750Y40465D01*
D02*
G37*
G36*
X36250D02*
X36181Y40451D01*
X36122Y40412D01*
X36082Y40353D01*
X36068Y40283D01*
Y39654D01*
X36082Y39584D01*
X36122Y39525D01*
X36181Y39486D01*
X36250Y39472D01*
X36319Y39486D01*
X36378Y39525D01*
X36418Y39584D01*
X36432Y39654D01*
Y40283D01*
X36418Y40353D01*
X36378Y40412D01*
X36319Y40451D01*
X36250Y40465D01*
D02*
G37*
G36*
X30800Y38865D02*
X30731Y38851D01*
X30672Y38812D01*
X30632Y38753D01*
X30618Y38683D01*
Y38054D01*
X30632Y37984D01*
X30672Y37925D01*
X30731Y37886D01*
X30800Y37872D01*
X30870Y37886D01*
X30928Y37925D01*
X30968Y37984D01*
X30982Y38054D01*
Y38683D01*
X30968Y38753D01*
X30928Y38812D01*
X30870Y38851D01*
X30800Y38865D01*
D02*
G37*
G36*
X30300D02*
X30231Y38851D01*
X30172Y38812D01*
X30132Y38753D01*
X30118Y38683D01*
Y38054D01*
X30132Y37984D01*
X30164Y37936D01*
Y37720D01*
X30154Y37713D01*
X30117Y37656D01*
X30103Y37590D01*
X30117Y37524D01*
X30154Y37468D01*
X30210Y37430D01*
X30277Y37417D01*
X30343Y37430D01*
X30399Y37468D01*
X30437Y37524D01*
X30450Y37590D01*
X30437Y37656D01*
X30399Y37713D01*
X30389Y37720D01*
Y37899D01*
X30428Y37925D01*
X30468Y37984D01*
X30482Y38054D01*
Y38683D01*
X30468Y38753D01*
X30428Y38812D01*
X30370Y38851D01*
X30300Y38865D01*
D02*
G37*
G36*
X36750Y38497D02*
X36681Y38483D01*
X36622Y38443D01*
X36582Y38384D01*
X36568Y38315D01*
Y37685D01*
X36582Y37616D01*
X36622Y37557D01*
X36638Y37546D01*
Y36907D01*
X36638Y36906D01*
X36646Y36864D01*
X36671Y36827D01*
X37113Y36385D01*
Y36190D01*
X37548D01*
Y36238D01*
X37854D01*
Y36190D01*
X38289D01*
Y36609D01*
X37854D01*
Y36462D01*
X37548D01*
Y36609D01*
X37206D01*
X36862Y36953D01*
Y37546D01*
X36878Y37557D01*
X36918Y37616D01*
X36932Y37685D01*
Y38315D01*
X36918Y38384D01*
X36878Y38443D01*
X36820Y38483D01*
X36750Y38497D01*
D02*
G37*
G36*
X33337Y36778D02*
X33270Y36765D01*
X33214Y36727D01*
X33177Y36671D01*
X33163Y36604D01*
X33177Y36538D01*
X33196Y36509D01*
X32866Y36179D01*
X32084D01*
X32084Y36179D01*
X32041Y36171D01*
X32004Y36146D01*
X31172Y35314D01*
X31148Y35278D01*
X31139Y35235D01*
X31105Y35204D01*
X31053D01*
Y34296D01*
X31409D01*
Y34296D01*
X31447D01*
Y34296D01*
X31803D01*
Y34296D01*
X31840D01*
Y34296D01*
X32197D01*
Y34296D01*
X32234D01*
Y34296D01*
X32309D01*
Y33844D01*
X32277Y33823D01*
X32240Y33766D01*
X32227Y33700D01*
X32240Y33634D01*
X32277Y33577D01*
X32334Y33540D01*
X32400Y33527D01*
X32466Y33540D01*
X32523Y33577D01*
X32560Y33634D01*
X32573Y33700D01*
X32560Y33766D01*
X32533Y33807D01*
Y34296D01*
X32590D01*
Y35045D01*
X32697Y35152D01*
X32697Y35152D01*
X32721Y35188D01*
X32730Y35231D01*
X32730Y35231D01*
Y35278D01*
X32763Y35300D01*
X32801Y35357D01*
X32814Y35423D01*
X32801Y35489D01*
X32780Y35521D01*
X32807Y35571D01*
X33022D01*
X33022Y35571D01*
X33065Y35579D01*
X33102Y35604D01*
X33448Y35950D01*
X33570D01*
X33577Y35939D01*
X33634Y35902D01*
X33700Y35889D01*
X33766Y35902D01*
X33823Y35939D01*
X33860Y35996D01*
X33873Y36062D01*
X33860Y36128D01*
X33823Y36185D01*
X33766Y36222D01*
X33700Y36235D01*
X33669Y36280D01*
X33673Y36300D01*
X33660Y36366D01*
X33623Y36423D01*
X33566Y36460D01*
X33512Y36471D01*
X33491Y36504D01*
X33486Y36521D01*
X33497Y36538D01*
X33510Y36604D01*
X33497Y36671D01*
X33459Y36727D01*
X33403Y36765D01*
X33337Y36778D01*
D02*
G37*
G36*
X32300Y38673D02*
X32234Y38660D01*
X32177Y38623D01*
X32140Y38566D01*
X32127Y38500D01*
X32140Y38434D01*
X32177Y38377D01*
X32188Y38370D01*
Y38111D01*
X32188Y38111D01*
X32196Y38068D01*
X32221Y38032D01*
X32281Y37972D01*
X32278Y37955D01*
X32261Y37921D01*
X32206Y37910D01*
X32150Y37873D01*
X32113Y37816D01*
X32099Y37750D01*
X32113Y37684D01*
X32150Y37627D01*
X32206Y37590D01*
X32273Y37577D01*
X32339Y37590D01*
X32388Y37623D01*
X33969D01*
X34388Y37204D01*
Y35709D01*
X34388Y35709D01*
X34390Y35698D01*
X34348Y35655D01*
X34330Y35659D01*
X34264Y35646D01*
X34208Y35608D01*
X34189Y35579D01*
X34129D01*
X34110Y35608D01*
X34053Y35646D01*
X33987Y35659D01*
X33921Y35646D01*
X33864Y35608D01*
X33827Y35552D01*
X33820Y35518D01*
X33769D01*
X33760Y35564D01*
X33723Y35620D01*
X33666Y35657D01*
X33600Y35671D01*
X33534Y35657D01*
X33477Y35620D01*
X33440Y35564D01*
X33427Y35497D01*
X33440Y35431D01*
X33477Y35375D01*
X33488Y35368D01*
Y35204D01*
X33428D01*
X33415Y35204D01*
X33378D01*
X33365Y35204D01*
X33021D01*
Y34768D01*
X33018Y34750D01*
Y34100D01*
X33032Y34031D01*
X33071Y33972D01*
X33087Y33956D01*
X33146Y33917D01*
X33215Y33903D01*
X33285Y33917D01*
X33344Y33956D01*
X33383Y34015D01*
X33397Y34085D01*
X33383Y34154D01*
X33381Y34157D01*
Y34260D01*
X33415Y34296D01*
X33431Y34296D01*
X33759D01*
X33771Y34296D01*
X33809D01*
X33821Y34296D01*
X34165D01*
Y34296D01*
X34203D01*
Y34296D01*
X34559D01*
Y35204D01*
X34443D01*
Y35356D01*
X34453Y35363D01*
X34491Y35419D01*
X34502Y35477D01*
X34528Y35492D01*
X34552Y35498D01*
X34737Y35313D01*
X34737Y35313D01*
X34774Y35288D01*
X34817Y35280D01*
X34817Y35280D01*
X35175D01*
X35382Y35073D01*
Y34818D01*
X35382Y34818D01*
X35384Y34807D01*
Y34296D01*
X35740D01*
Y34296D01*
X35777D01*
Y34296D01*
X36121D01*
X36134Y34296D01*
X36171D01*
X36187Y34281D01*
Y33463D01*
X29583D01*
X29444Y33602D01*
Y34261D01*
X29478Y34296D01*
X29834D01*
Y34296D01*
X29872D01*
Y34296D01*
X30228D01*
Y35045D01*
X30421Y35238D01*
X30470D01*
X30477Y35227D01*
X30534Y35190D01*
X30600Y35177D01*
X30666Y35190D01*
X30723Y35227D01*
X30760Y35284D01*
X30773Y35350D01*
X30760Y35416D01*
X30723Y35473D01*
X30666Y35510D01*
X30600Y35523D01*
X30567Y35517D01*
X30542Y35563D01*
X30853Y35874D01*
X30853Y35874D01*
X30878Y35910D01*
X30880Y35925D01*
X30928Y35957D01*
X30968Y36016D01*
X30982Y36085D01*
Y36715D01*
X30968Y36784D01*
X30928Y36843D01*
X30870Y36883D01*
X30800Y36897D01*
X30731Y36883D01*
X30672Y36843D01*
X30632Y36784D01*
X30618Y36715D01*
Y36085D01*
X30632Y36016D01*
X30650Y35988D01*
X30324Y35662D01*
X29348D01*
X29328Y35712D01*
X29353Y35738D01*
X29353Y35738D01*
X29378Y35774D01*
X29386Y35817D01*
Y35928D01*
X29428Y35957D01*
X29468Y36016D01*
X29482Y36085D01*
Y36715D01*
X29468Y36784D01*
X29428Y36843D01*
X29369Y36883D01*
X29300Y36897D01*
X29230Y36883D01*
X29172Y36843D01*
X29132Y36883D01*
X28870D01*
X28800Y36897D01*
X28730Y36883D01*
X28672Y36843D01*
X28632Y36784D01*
X28618Y36715D01*
Y36163D01*
X28616Y36163D01*
X28580Y36138D01*
X28580Y36138D01*
X27645Y35204D01*
X27522D01*
X27510Y35204D01*
X27472D01*
X27460Y35204D01*
X27409D01*
Y35944D01*
X27428Y35957D01*
X27468Y36016D01*
X27482Y36085D01*
Y36715D01*
X27468Y36784D01*
X27428Y36843D01*
X27369Y36883D01*
X27300Y36897D01*
X27231Y36883D01*
X27172Y36843D01*
X27132Y36784D01*
X27118Y36715D01*
Y36085D01*
X27132Y36016D01*
X27172Y35957D01*
X27185Y35948D01*
Y35204D01*
X27116D01*
Y34296D01*
X27460D01*
X27472Y34296D01*
X27510D01*
X27522Y34296D01*
X27853D01*
X27866Y34296D01*
Y34296D01*
X27903D01*
Y34296D01*
X28247D01*
X28260Y34296D01*
Y34296D01*
X28297D01*
Y34296D01*
X28653D01*
Y34296D01*
X28668D01*
X28718Y34257D01*
Y33451D01*
X28730Y33357D01*
X28766Y33270D01*
X28824Y33195D01*
X29175Y32843D01*
X29175Y32843D01*
X29251Y32786D01*
X29338Y32749D01*
X29432Y32737D01*
X36700D01*
X38993Y30443D01*
X38993Y30443D01*
X39068Y30386D01*
X39156Y30349D01*
X39250Y30337D01*
X39250Y30337D01*
X42550D01*
X42644Y30349D01*
X42719Y30381D01*
X42766Y30390D01*
X42823Y30427D01*
X42860Y30484D01*
X42869Y30531D01*
X42901Y30606D01*
X42913Y30700D01*
X42901Y30794D01*
X42868Y30873D01*
X42873Y30900D01*
X42860Y30966D01*
X42823Y31023D01*
X42766Y31060D01*
X42700Y31073D01*
X42634Y31060D01*
X42624Y31053D01*
X42550Y31063D01*
X42401D01*
X42350Y31073D01*
X42299Y31063D01*
X42051D01*
X42000Y31073D01*
X41949Y31063D01*
X41701D01*
X41650Y31073D01*
X41599Y31063D01*
X39400D01*
X37107Y33357D01*
X36913Y33550D01*
Y34285D01*
X36958Y34296D01*
X36971Y34296D01*
X37302D01*
X37315Y34296D01*
X37352D01*
X37365Y34296D01*
X37708D01*
Y34296D01*
X37746D01*
Y34296D01*
X38090D01*
X38102Y34296D01*
X38140D01*
X38152Y34296D01*
X38483D01*
X38496Y34296D01*
X38533D01*
X38546Y34296D01*
X38890D01*
Y35204D01*
X38873D01*
Y35591D01*
X39029D01*
Y36010D01*
X38594D01*
Y35591D01*
X38648D01*
Y35204D01*
X38546D01*
X38533Y35204D01*
X38496D01*
X38455Y35242D01*
Y35277D01*
X38460Y35284D01*
X38473Y35350D01*
X38460Y35416D01*
X38455Y35424D01*
Y35554D01*
X38445Y35607D01*
X38415Y35651D01*
X38289Y35778D01*
Y36010D01*
X37854D01*
Y35591D01*
X38086D01*
X38160Y35517D01*
X38177Y35473D01*
X38140Y35416D01*
X38127Y35350D01*
X38140Y35284D01*
X38160Y35254D01*
X38140Y35204D01*
X38102D01*
X38090Y35204D01*
X37961D01*
X37960Y35211D01*
X37935Y35247D01*
X37701Y35482D01*
X37664Y35506D01*
X37621Y35515D01*
X37621Y35515D01*
X37116D01*
X37062Y35569D01*
Y36047D01*
X37054Y36090D01*
X37029Y36127D01*
X37029Y36127D01*
X36808Y36348D01*
Y36609D01*
X36549D01*
X36362Y36796D01*
Y37546D01*
X36378Y37557D01*
X36418Y37616D01*
X36432Y37685D01*
Y38315D01*
X36418Y38384D01*
X36378Y38443D01*
X36319Y38483D01*
X36250Y38497D01*
X36181Y38483D01*
X36122Y38443D01*
X36082Y38384D01*
X36068Y38315D01*
Y37685D01*
X36082Y37616D01*
X36122Y37557D01*
X36138Y37546D01*
Y36749D01*
X36138Y36749D01*
X36146Y36706D01*
X36171Y36670D01*
X36373Y36468D01*
Y36190D01*
X36649D01*
X36838Y36001D01*
Y35522D01*
X36838Y35522D01*
X36846Y35479D01*
X36807Y35440D01*
X36807Y35263D01*
X36762Y35241D01*
X36732Y35264D01*
X36644Y35301D01*
X36550Y35313D01*
X36456Y35301D01*
X36368Y35264D01*
X36293Y35207D01*
X36291Y35204D01*
X36184D01*
X36171Y35204D01*
X36134D01*
X36100Y35245D01*
Y35600D01*
X36067Y35633D01*
Y36010D01*
X36050D01*
Y36190D01*
X36067D01*
Y36609D01*
X35862D01*
Y37546D01*
X35878Y37557D01*
X35918Y37616D01*
X35932Y37685D01*
Y38315D01*
X35918Y38384D01*
X35878Y38443D01*
X35819Y38483D01*
X35750Y38497D01*
X35680Y38483D01*
X35622Y38443D01*
X35582Y38384D01*
X35568Y38315D01*
Y38312D01*
X32714D01*
X32707Y38323D01*
X32651Y38360D01*
X32584Y38373D01*
X32518Y38360D01*
X32487Y38340D01*
X32459Y38344D01*
X32432Y38361D01*
X32428Y38386D01*
X32460Y38434D01*
X32473Y38500D01*
X32460Y38566D01*
X32423Y38623D01*
X32366Y38660D01*
X32300Y38673D01*
D02*
G37*
G36*
X46206Y35765D02*
X46170Y35765D01*
X46135Y35765D01*
X46123Y35760D01*
X46110Y35760D01*
X46045Y35733D01*
X46036Y35724D01*
X46024Y35719D01*
X45974Y35669D01*
X45969Y35657D01*
X45960Y35648D01*
X45933Y35583D01*
X45933Y35570D01*
X45928Y35558D01*
X45928Y35488D01*
X45933Y35476D01*
X45933Y35463D01*
X45960Y35398D01*
X45969Y35388D01*
X45974Y35376D01*
X46024Y35327D01*
X46036Y35322D01*
X46045Y35313D01*
X46110Y35286D01*
X46123Y35286D01*
X46135Y35281D01*
X46171Y35281D01*
X46206Y35281D01*
X46218Y35286D01*
X46231Y35286D01*
X46296Y35313D01*
X46305Y35322D01*
X46317Y35327D01*
X46367Y35377D01*
X46372Y35388D01*
X46381Y35398D01*
X46408Y35463D01*
X46408Y35476D01*
X46413Y35488D01*
X46413Y35558D01*
X46408Y35570D01*
X46408Y35583D01*
X46381Y35648D01*
X46372Y35657D01*
X46367Y35669D01*
X46317Y35719D01*
X46305Y35724D01*
X46296Y35733D01*
X46231Y35760D01*
X46218Y35760D01*
X46206Y35765D01*
D02*
G37*
G36*
X45492Y35465D02*
X44408D01*
Y34872D01*
X45492D01*
Y35465D01*
D02*
G37*
G36*
X46703Y36540D02*
X46637Y36526D01*
X46580Y36489D01*
X46543Y36433D01*
X46530Y36366D01*
X46543Y36300D01*
X46580Y36244D01*
X46591Y36237D01*
Y34199D01*
X45704Y33312D01*
X45492D01*
Y33496D01*
X44408D01*
Y32904D01*
X44838D01*
Y32796D01*
X44671Y32629D01*
X44646Y32593D01*
X44638Y32550D01*
X44638Y32550D01*
Y31823D01*
X44533D01*
Y31310D01*
X44967D01*
Y31823D01*
X44862D01*
Y32504D01*
X45029Y32671D01*
X45029Y32671D01*
X45054Y32707D01*
X45062Y32750D01*
X45062Y32750D01*
Y32904D01*
X45492D01*
Y33088D01*
X45750D01*
X45750Y33088D01*
X45793Y33096D01*
X45829Y33121D01*
X46782Y34074D01*
X46782Y34074D01*
X46807Y34110D01*
X46815Y34153D01*
X46815Y34153D01*
Y36237D01*
X46826Y36244D01*
X46863Y36300D01*
X46876Y36366D01*
X46863Y36433D01*
X46826Y36489D01*
X46769Y36526D01*
X46703Y36540D01*
D02*
G37*
G36*
X25306Y33623D02*
X25239Y33610D01*
X25183Y33573D01*
X25176Y33562D01*
X25050D01*
X25007Y33554D01*
X24971Y33529D01*
X24971Y33529D01*
X24303Y32861D01*
X21217D01*
Y32959D01*
X20782D01*
Y32861D01*
X20517D01*
Y32959D01*
X20241D01*
X20130Y33070D01*
X20094Y33094D01*
X20051Y33103D01*
X20051Y33103D01*
X19925D01*
Y33228D01*
X18978D01*
Y32753D01*
X19925D01*
Y32878D01*
X20004D01*
X20083Y32800D01*
Y32540D01*
X20517D01*
Y32637D01*
X20782D01*
Y32540D01*
X21217D01*
Y32637D01*
X21331D01*
X21358Y32587D01*
X21340Y32561D01*
X21327Y32494D01*
X21340Y32428D01*
X21377Y32372D01*
X21364Y32322D01*
X21304Y32263D01*
X21217D01*
Y32360D01*
X20782D01*
Y31941D01*
X20887D01*
Y30917D01*
X20740D01*
Y30483D01*
X21159D01*
Y30917D01*
X21111D01*
Y31941D01*
X21217D01*
Y32039D01*
X21351D01*
X21351Y32039D01*
X21394Y32047D01*
X21430Y32071D01*
X21538Y32179D01*
X21588Y32159D01*
Y30696D01*
X21154Y30262D01*
X18696D01*
X18664Y30294D01*
Y30354D01*
X18848D01*
Y30946D01*
X18256D01*
Y30354D01*
X18440D01*
Y30248D01*
X18440Y30248D01*
X18448Y30205D01*
X18473Y30169D01*
X18571Y30071D01*
X18571Y30071D01*
X18607Y30046D01*
X18650Y30038D01*
X21200D01*
X21200Y30038D01*
X21243Y30046D01*
X21279Y30071D01*
X21779Y30571D01*
X21779Y30571D01*
X21804Y30607D01*
X21812Y30650D01*
X21812Y30650D01*
Y32204D01*
X22046Y32438D01*
X24599D01*
X24599Y32438D01*
X24642Y32446D01*
X24679Y32471D01*
X24786Y32579D01*
X24800Y32576D01*
X24866Y32589D01*
X24923Y32627D01*
X24960Y32683D01*
X24973Y32749D01*
X24960Y32816D01*
X24923Y32872D01*
X24866Y32909D01*
X24800Y32923D01*
X24787Y32920D01*
X24731Y32960D01*
X24730Y32971D01*
X25096Y33338D01*
X25176D01*
X25183Y33327D01*
X25239Y33290D01*
X25306Y33277D01*
X25372Y33290D01*
X25428Y33327D01*
X25466Y33384D01*
X25479Y33450D01*
X25466Y33516D01*
X25428Y33573D01*
X25372Y33610D01*
X25306Y33623D01*
D02*
G37*
G36*
X40346Y34436D02*
X39242D01*
Y33135D01*
X40346D01*
Y34436D01*
D02*
G37*
G36*
X21306Y35429D02*
X21239Y35416D01*
X21183Y35378D01*
X21146Y35322D01*
X21138Y35282D01*
X21003Y35147D01*
X20973Y35103D01*
X20962Y35050D01*
Y33300D01*
X20940Y33266D01*
X20927Y33200D01*
X20940Y33134D01*
X20977Y33077D01*
X21034Y33040D01*
X21100Y33027D01*
X21166Y33040D01*
X21223Y33077D01*
X21260Y33134D01*
X21273Y33200D01*
X21260Y33266D01*
X21238Y33300D01*
Y34993D01*
X21332Y35088D01*
X21372Y35096D01*
X21428Y35133D01*
X21466Y35189D01*
X21479Y35256D01*
X21466Y35322D01*
X21428Y35378D01*
X21372Y35416D01*
X21306Y35429D01*
D02*
G37*
G36*
X46206Y33088D02*
X46170Y33088D01*
X46135Y33088D01*
X46123Y33083D01*
X46110Y33083D01*
X46045Y33056D01*
X46036Y33047D01*
X46024Y33042D01*
X45974Y32992D01*
X45969Y32980D01*
X45960Y32971D01*
X45933Y32906D01*
X45933Y32893D01*
X45928Y32881D01*
X45928Y32810D01*
X45933Y32798D01*
X45933Y32785D01*
X45960Y32720D01*
X45969Y32711D01*
X45974Y32699D01*
X46024Y32649D01*
X46036Y32644D01*
X46045Y32635D01*
X46110Y32608D01*
X46123Y32608D01*
X46135Y32603D01*
X46171Y32603D01*
X46206Y32603D01*
X46218Y32608D01*
X46231Y32608D01*
X46296Y32635D01*
X46305Y32645D01*
X46317Y32649D01*
X46367Y32699D01*
X46372Y32711D01*
X46381Y32720D01*
X46408Y32786D01*
X46408Y32798D01*
X46413Y32810D01*
X46413Y32881D01*
X46408Y32893D01*
X46408Y32906D01*
X46381Y32971D01*
X46372Y32980D01*
X46367Y32992D01*
X46317Y33042D01*
X46305Y33047D01*
X46296Y33056D01*
X46231Y33083D01*
X46218Y33083D01*
X46206Y33088D01*
D02*
G37*
G36*
X18448Y32818D02*
X18340Y32804D01*
X18239Y32762D01*
X18153Y32696D01*
X18086Y32609D01*
X18044Y32508D01*
X18030Y32400D01*
X18044Y32292D01*
X18086Y32191D01*
X18153Y32104D01*
X18239Y32038D01*
X18340Y31996D01*
X18448Y31982D01*
X18556Y31996D01*
X18657Y32038D01*
X18744Y32104D01*
X18810Y32191D01*
X18852Y32292D01*
X18866Y32400D01*
X18852Y32508D01*
X18810Y32609D01*
X18744Y32696D01*
X18657Y32762D01*
X18556Y32804D01*
X18448Y32818D01*
D02*
G37*
G36*
X33231Y32182D02*
X33161Y32168D01*
X33102Y32128D01*
X33063Y32069D01*
X33049Y32000D01*
Y31709D01*
X33013D01*
Y31644D01*
X32970Y31635D01*
X32911Y31596D01*
X32664Y31349D01*
X32617Y31368D01*
Y31709D01*
X32512D01*
Y31870D01*
X32523Y31877D01*
X32560Y31934D01*
X32573Y32000D01*
X32560Y32066D01*
X32523Y32123D01*
X32466Y32160D01*
X32400Y32173D01*
X32334Y32160D01*
X32277Y32123D01*
X32240Y32066D01*
X32227Y32000D01*
X32240Y31934D01*
X32277Y31877D01*
X32288Y31870D01*
Y31709D01*
X32183D01*
Y31290D01*
X32539D01*
X32558Y31243D01*
X32428Y31113D01*
X32414Y31110D01*
X32183D01*
Y30691D01*
X32617D01*
Y30794D01*
X32632Y30804D01*
X33114Y31286D01*
X33199D01*
X33217Y31290D01*
X33448D01*
Y31709D01*
X33412D01*
Y32000D01*
X33399Y32069D01*
X33359Y32128D01*
X33300Y32168D01*
X33231Y32182D01*
D02*
G37*
G36*
X19596Y30946D02*
X19004D01*
Y30354D01*
X19596D01*
Y30588D01*
X20141D01*
Y30483D01*
X20560D01*
Y30917D01*
X20141D01*
Y30812D01*
X19596D01*
Y30946D01*
D02*
G37*
G36*
X26764Y34436D02*
X25659D01*
Y33135D01*
X25740D01*
X25745Y33085D01*
X25684Y33073D01*
X25627Y33035D01*
X25590Y32979D01*
X25577Y32912D01*
X25590Y32846D01*
X25625Y32793D01*
Y30413D01*
X25602Y30398D01*
X25565Y30341D01*
X25552Y30275D01*
X25565Y30209D01*
X25602Y30152D01*
X25659Y30115D01*
X25725Y30102D01*
X25791Y30115D01*
X25848Y30152D01*
X25885Y30209D01*
X25898Y30275D01*
X25885Y30341D01*
X25850Y30394D01*
Y32775D01*
X25873Y32790D01*
X25910Y32846D01*
X25923Y32912D01*
X25910Y32979D01*
X25873Y33035D01*
X25816Y33073D01*
X25755Y33085D01*
X25760Y33135D01*
X26764D01*
Y34436D01*
D02*
G37*
%LPD*%
D11*
X30050Y35026D02*
X30374Y35350D01*
X30600D01*
X26789Y40414D02*
X26919Y40544D01*
X26764Y40414D02*
X26789D01*
X26919Y40544D02*
X27835D01*
X27982Y40691D01*
X45750Y33200D02*
X46703Y34153D01*
Y36366D01*
X32310Y35683D02*
X33022D01*
X33401Y36062D02*
X33700D01*
X33022Y35683D02*
X33401Y36062D01*
X32185Y35863D02*
X32946D01*
X33477Y36277D02*
X33500Y36300D01*
X33360Y36277D02*
X33477D01*
X32946Y35863D02*
X33360Y36277D01*
X32084Y36067D02*
X32913D01*
X33314Y36581D02*
X33337Y36604D01*
X32913Y36067D02*
X33314Y36468D01*
Y36581D01*
X32018Y35392D02*
X32310Y35683D01*
X32412Y34750D02*
Y35026D01*
X32618Y35231D01*
Y35400D01*
X32641Y35423D01*
X31252Y35235D02*
X32084Y36067D01*
X32018Y34750D02*
Y35392D01*
X31674Y34800D02*
Y35353D01*
X32185Y35863D01*
X31625Y34750D02*
X31674Y34800D01*
X31231Y34750D02*
X31252Y34770D01*
Y35235D01*
X28752Y35550D02*
X30371D01*
X30774Y36374D02*
X30800Y36400D01*
X30774Y35953D02*
Y36374D01*
X30371Y35550D02*
X30774Y35953D01*
X23916Y41850D02*
X27279D01*
X27375Y41754D02*
X27962D01*
X27279Y41850D02*
X27375Y41754D01*
X35750Y38137D02*
Y38278D01*
Y38000D02*
Y38137D01*
X35687Y38200D02*
X35750Y38137D01*
X32584Y38200D02*
X35687D01*
X23817Y41783D02*
X23849D01*
X23916Y41850D01*
X22556Y42051D02*
X27522D01*
X23553Y42261D02*
X27051D01*
X27182Y42392D01*
X23363Y42451D02*
X23553Y42261D01*
X22306Y41800D02*
X22556Y42051D01*
X26700Y43157D02*
X26807D01*
X26700D02*
Y43178D01*
X26695Y42588D02*
X26708Y42601D01*
X26013Y42588D02*
X26695D01*
X25995Y42606D02*
X26013Y42588D01*
X25249Y42601D02*
X25254Y42606D01*
X25995D01*
X25098Y42601D02*
X25170Y42529D01*
X24700Y42601D02*
X25098D01*
X32487Y37924D02*
X34176D01*
X32300Y38111D02*
Y38500D01*
Y38111D02*
X32487Y37924D01*
X33600Y34757D02*
Y35497D01*
X33593Y34750D02*
X33600Y34757D01*
X34176Y37924D02*
X34700Y37400D01*
X32273Y37750D02*
X32288Y37735D01*
X34015D02*
X34500Y37250D01*
X32288Y37735D02*
X34015D01*
X31591Y37909D02*
X31750Y38069D01*
X31450Y37909D02*
X31591D01*
X26567Y38972D02*
X27678D01*
X27774Y38876D01*
X34330Y34800D02*
Y35486D01*
X33987Y34750D02*
Y35486D01*
X34330Y34800D02*
X34381Y34750D01*
X25725Y30275D02*
X25738Y30287D01*
Y32900D01*
X25750Y32912D01*
X31936Y37950D02*
Y39772D01*
X32150Y39985D01*
X30277Y37590D02*
Y38345D01*
X30300Y38368D01*
X29900Y37414D02*
Y37585D01*
X29800Y37685D02*
X29900Y37585D01*
X29800Y37685D02*
Y38368D01*
X26200Y39268D02*
X27682D01*
X28300Y38650D01*
X33446Y42046D02*
Y43141D01*
X33679Y43375D02*
X45197D01*
X33446Y43141D02*
X33679Y43375D01*
X45197D02*
X45500Y43072D01*
X32899Y41500D02*
X33446Y42046D01*
X28475Y35273D02*
X28752Y35550D01*
X24798Y32749D02*
X24800D01*
X22000Y32550D02*
X24599D01*
X24798Y32749D01*
X45752Y38493D02*
X45881Y38622D01*
X45752Y38443D02*
Y38493D01*
X45300Y37991D02*
X45752Y38443D01*
X45300Y37842D02*
Y37991D01*
X44750Y31626D02*
Y32550D01*
X35750Y36499D02*
Y37960D01*
X34500Y35709D02*
Y37250D01*
X31750Y38069D02*
Y39944D01*
X32306Y40500D01*
X32584D01*
X31500Y41400D02*
Y43100D01*
X27051Y43400D02*
X31200D01*
X31500Y43100D01*
X26807Y43157D02*
X27051Y43400D01*
X29300Y38368D02*
Y38683D01*
X28426Y40660D02*
X28769Y40317D01*
X28426Y40660D02*
Y42415D01*
X28484Y42474D01*
X29320D01*
X32400Y31521D02*
Y32000D01*
X27300Y38368D02*
Y38676D01*
X21500Y32300D02*
Y32494D01*
X20999Y30750D02*
Y32151D01*
X21351D01*
X21500Y32300D01*
X21700Y30650D02*
Y32250D01*
X22000Y32550D01*
X21200Y30150D02*
X21700Y30650D01*
X20949Y30700D02*
X20999Y30750D01*
X24349Y32749D02*
X25050Y33450D01*
X20300Y32749D02*
X24349D01*
X19452Y32991D02*
X20051D01*
X20292Y32749D01*
X20300D01*
X18650Y30150D02*
X21200D01*
X18552Y30248D02*
Y30650D01*
Y30248D02*
X18650Y30150D01*
X37856Y34818D02*
X37924Y34750D01*
X37070Y35403D02*
X37621D01*
X37856Y34818D02*
Y35168D01*
X37621Y35403D02*
X37856Y35168D01*
X36950Y35522D02*
Y36047D01*
Y35522D02*
X37070Y35403D01*
X44950Y33200D02*
X45750D01*
X44935Y41005D02*
X45106Y41176D01*
Y41398D01*
X44287Y41005D02*
X44935D01*
X43739Y41260D02*
Y41500D01*
X43798Y41202D02*
X44287D01*
X43739Y41260D02*
X43798Y41202D01*
X43739Y41500D02*
X43834Y41595D01*
X44287D01*
X45300Y43550D02*
X45700Y43150D01*
X33600Y43550D02*
X45300D01*
X45700Y41992D02*
Y43150D01*
X45500Y42050D02*
Y43072D01*
X45045Y41595D02*
X45500Y42050D01*
X45106Y41398D02*
X45700Y41992D01*
X32584Y42000D02*
X32899D01*
X33250Y42351D02*
Y43200D01*
X32899Y42000D02*
X33250Y42351D01*
Y43200D02*
X33600Y43550D01*
X44287Y41398D02*
X45106D01*
X32584Y41500D02*
X32899D01*
X44287Y41595D02*
X45045D01*
X35750Y36499D02*
X35850Y36399D01*
X35850D01*
X35956Y34750D02*
Y35202D01*
X35897Y35260D02*
X35956Y35202D01*
X35642Y35260D02*
X35897D01*
X35303Y35600D02*
X35642Y35260D01*
X34900Y35600D02*
X35303D01*
X34700Y35800D02*
X34900Y35600D01*
X34700Y35800D02*
Y37400D01*
X34500Y35709D02*
X34817Y35392D01*
X35221D02*
X35494Y35119D01*
X34817Y35392D02*
X35221D01*
X37306Y36350D02*
X38124D01*
X37294Y36363D02*
X37306Y36350D01*
X36750Y36906D02*
X37294Y36363D01*
X36250Y36749D02*
X36483Y36516D01*
X36250Y36749D02*
Y38000D01*
X36483Y36499D02*
Y36516D01*
Y36499D02*
X36582Y36399D01*
X36590D01*
X38711Y34750D02*
X38761Y34799D01*
Y35750D02*
X38811Y35801D01*
X38761Y34799D02*
Y35750D01*
X35494Y34818D02*
Y35119D01*
Y34818D02*
X35562Y34750D01*
X27800Y38090D02*
Y38368D01*
X27774Y38395D02*
X27800Y38368D01*
X27774Y38395D02*
Y38876D01*
X36598Y36399D02*
X36950Y36047D01*
X36750Y36906D02*
Y38000D01*
X30050Y34750D02*
Y35026D01*
X27182Y42392D02*
X27900D01*
X27982Y42474D01*
X28848Y41786D02*
X29619Y41016D01*
X28848Y41786D02*
Y42100D01*
X29619Y41016D02*
X29627D01*
X29726Y40916D01*
Y40908D02*
X30128Y40506D01*
X29726Y40908D02*
Y40916D01*
X30128Y40506D02*
X30609D01*
X30616Y40500D01*
X28769Y40317D02*
X28848D01*
X29320Y42474D02*
X29592Y42202D01*
X29600D01*
X30269Y41000D02*
X30616D01*
X29600Y41669D02*
Y42202D01*
Y41669D02*
X30269Y41000D01*
X28848Y41065D02*
X28927D01*
X29074Y40918D01*
Y40876D02*
Y40918D01*
Y40876D02*
X29433Y40517D01*
X29519D01*
X29619Y40417D01*
X28800Y42848D02*
X28848Y42800D01*
X29600D01*
X28300Y38368D02*
Y38650D01*
X25050Y33450D02*
X25306D01*
X28737Y36059D02*
X28800Y36122D01*
X28659Y36059D02*
X28737D01*
X27688Y35088D02*
X28659Y36059D01*
X28800Y36122D02*
Y36400D01*
X27688Y34750D02*
Y35088D01*
X28659Y35759D02*
X29215D01*
X28082Y34750D02*
X28128Y34796D01*
Y35228D02*
X28659Y35759D01*
X28128Y34796D02*
Y35228D01*
X29274Y35817D02*
Y36374D01*
X29215Y35759D02*
X29274Y35817D01*
Y36374D02*
X29300Y36400D01*
X28475Y34750D02*
Y35273D01*
X27294Y34750D02*
X27297Y34753D01*
Y36397D01*
X27300Y36400D01*
X32400Y33700D02*
X32421Y33721D01*
Y34741D01*
X32412Y34750D02*
X32421Y34741D01*
X32400Y31521D02*
X32421Y31500D01*
X43150Y40599D02*
X43699D01*
X43908Y40808D02*
X44287D01*
X43699Y40599D02*
X43908Y40808D01*
X43150Y41901D02*
X43151Y41900D01*
X43650D01*
X43739Y41989D02*
X44287D01*
X43650Y41900D02*
X43739Y41989D01*
X44950Y32750D02*
Y33200D01*
X44750Y32550D02*
X44950Y32750D01*
X45262Y37774D02*
Y37804D01*
X45300Y37842D01*
X44238Y37774D02*
Y37988D01*
X44350Y38100D01*
X44850D02*
X45000Y38250D01*
X44350Y38100D02*
X44850D01*
X45000Y38250D02*
Y38600D01*
X42999D02*
X44252D01*
X19350Y30700D02*
X20351D01*
X19300Y30650D02*
X19350Y30700D01*
X47331Y43678D02*
X47350D01*
X47331D02*
X47331Y29922D01*
X47350Y29900D01*
X17800Y43700D02*
X47328D01*
X17800D02*
X17800Y29900D01*
X47350D01*
D15*
X46348Y35523D02*
G03*
X46348Y35523I-177J0D01*
G01*
Y32846D02*
G03*
X46348Y32846I-177J0D01*
G01*
X45024Y42438D02*
G03*
X45024Y42438I-148J0D01*
G01*
Y40162D02*
G03*
X45024Y40162I-148J0D01*
G01*
D16*
X37250Y42151D02*
D03*
Y42749D02*
D03*
X33950Y42151D02*
D03*
Y42749D02*
D03*
X20999Y32151D02*
D03*
Y32749D02*
D03*
X20300D02*
D03*
Y32151D02*
D03*
X33231Y31499D02*
D03*
Y30901D02*
D03*
X32400Y31499D02*
D03*
Y30901D02*
D03*
X43150Y37699D02*
D03*
Y37101D02*
D03*
X42401Y37699D02*
D03*
Y37101D02*
D03*
X46700Y37101D02*
D03*
Y37699D02*
D03*
X46045Y37101D02*
D03*
Y37699D02*
D03*
X43150Y40599D02*
D03*
Y40001D02*
D03*
Y41901D02*
D03*
Y42499D02*
D03*
X38811Y36399D02*
D03*
Y35801D02*
D03*
X38071D02*
D03*
Y36399D02*
D03*
X37331D02*
D03*
Y35801D02*
D03*
X36590Y36399D02*
D03*
Y35801D02*
D03*
X35850D02*
D03*
Y36399D02*
D03*
X29619Y40417D02*
D03*
Y41016D02*
D03*
X29600Y42202D02*
D03*
Y42800D02*
D03*
X26708Y42601D02*
D03*
Y43199D02*
D03*
X26000D02*
D03*
Y42601D02*
D03*
X25249Y43199D02*
D03*
Y42601D02*
D03*
D17*
X36212Y42076D02*
D03*
Y42450D02*
D03*
Y42824D02*
D03*
X35188D02*
D03*
Y42076D02*
D03*
X44238Y37774D02*
D03*
Y37400D02*
D03*
Y37026D02*
D03*
X45262D02*
D03*
Y37774D02*
D03*
D18*
X20351Y30700D02*
D03*
X20949D02*
D03*
X45852Y38600D02*
D03*
X46450D02*
D03*
X42401D02*
D03*
X42999D02*
D03*
X19149Y40200D02*
D03*
X18551D02*
D03*
D19*
X18552Y30650D02*
D03*
X19300D02*
D03*
X45000Y38600D02*
D03*
X44252D02*
D03*
X18452Y41000D02*
D03*
X19200D02*
D03*
D20*
X44950Y33200D02*
D03*
Y35168D02*
D03*
Y34184D02*
D03*
D21*
X44750Y31567D02*
D03*
Y30582D02*
D03*
D22*
X39400Y38300D02*
D03*
X40384Y38300D02*
D03*
D23*
X38239Y40938D02*
D03*
X41546D02*
D03*
D24*
X27294Y34750D02*
D03*
X27688D02*
D03*
X28082D02*
D03*
X28475D02*
D03*
X28869D02*
D03*
X29263D02*
D03*
X29656D02*
D03*
X30050D02*
D03*
X30444D02*
D03*
X30837D02*
D03*
X31231D02*
D03*
X31625D02*
D03*
X32018D02*
D03*
X32412D02*
D03*
X32806D02*
D03*
X33200D02*
D03*
X33593D02*
D03*
X33987D02*
D03*
X34381D02*
D03*
X34774D02*
D03*
X35168D02*
D03*
X35562D02*
D03*
X35956D02*
D03*
X36349D02*
D03*
X36743D02*
D03*
X37137D02*
D03*
X37530D02*
D03*
X37924D02*
D03*
X38318D02*
D03*
X38711D02*
D03*
D25*
X39794Y33785D02*
D03*
X26211D02*
D03*
D26*
X30800Y36400D02*
D03*
X30300D02*
D03*
X29800D02*
D03*
X29300D02*
D03*
X28800D02*
D03*
X28300D02*
D03*
X27800D02*
D03*
X27300D02*
D03*
Y38368D02*
D03*
X27800D02*
D03*
X28300D02*
D03*
X28800D02*
D03*
X29300D02*
D03*
X29800D02*
D03*
X30300D02*
D03*
X30800D02*
D03*
X35750Y38000D02*
D03*
X36250D02*
D03*
X36750D02*
D03*
X37250D02*
D03*
Y39969D02*
D03*
X36750D02*
D03*
X36250D02*
D03*
X35750D02*
D03*
D27*
X32584Y39500D02*
D03*
Y40000D02*
D03*
Y40500D02*
D03*
Y41000D02*
D03*
Y41500D02*
D03*
Y42000D02*
D03*
Y42500D02*
D03*
Y43000D02*
D03*
X30616D02*
D03*
Y42500D02*
D03*
Y42000D02*
D03*
Y41500D02*
D03*
Y41000D02*
D03*
Y40500D02*
D03*
Y40000D02*
D03*
Y39500D02*
D03*
D28*
X28848Y40317D02*
D03*
Y41065D02*
D03*
X27982Y40691D02*
D03*
X28848Y42100D02*
D03*
Y42848D02*
D03*
X27982Y42474D02*
D03*
D50*
X19452Y31809D02*
D03*
Y32991D02*
D03*
D51*
X44287Y42639D02*
D03*
Y42520D02*
D03*
X44287Y42324D02*
D03*
Y42206D02*
D03*
X44287Y41989D02*
D03*
X44287Y41792D02*
D03*
X44287Y41595D02*
D03*
Y41398D02*
D03*
Y41202D02*
D03*
Y41005D02*
D03*
Y40808D02*
D03*
X44287Y40611D02*
D03*
X44287Y40395D02*
D03*
Y40276D02*
D03*
Y40079D02*
D03*
Y39961D02*
D03*
D52*
X43451Y37699D02*
X43650Y37500D01*
Y37226D02*
Y37500D01*
X43826Y37050D02*
X44113D01*
X43650Y37226D02*
X43826Y37050D01*
X43150Y37699D02*
X43150Y37699D01*
X43150Y37699D02*
X43150Y37699D01*
X43150Y37699D02*
X43451D01*
X34400Y38950D02*
X35150Y39700D01*
X32200Y38950D02*
X34400D01*
X37150Y41500D02*
Y42058D01*
X37243Y42151D01*
X37250D01*
X35718Y40000D02*
Y41582D01*
X35301Y42057D02*
X35314Y42044D01*
Y41986D02*
Y42044D01*
X34051Y42057D02*
X35301D01*
X35314Y41986D02*
X35718Y41582D01*
Y40000D02*
X35750Y39969D01*
X32584Y41000D02*
X32982D01*
X33943Y42151D02*
X33950D01*
X32982Y41000D02*
X33943Y41961D01*
Y42150D01*
X33943Y42151D01*
D53*
X42401Y37699D02*
X43150D01*
X42094Y38006D02*
X42401Y37699D01*
X40409Y38006D02*
X42094D01*
X36850Y33100D02*
X39250Y30700D01*
X42550D01*
X36550Y33100D02*
X36850D01*
X29432D02*
X36550D01*
X39850Y42584D02*
X40150Y42884D01*
X39700Y42434D02*
X39850Y42584D01*
X40384Y38031D02*
X40409Y38006D01*
X40384Y38031D02*
Y38300D01*
X39700Y39650D02*
Y42434D01*
X40360Y38325D02*
X40384Y38300D01*
X40360Y38325D02*
Y38990D01*
X39700Y39650D02*
X40360Y38990D01*
X36550Y33400D02*
Y34950D01*
Y33400D02*
X36850Y33100D01*
X29081Y33451D02*
Y34656D01*
Y33451D02*
X29432Y33100D01*
D54*
X46572Y39150D02*
X47045Y38676D01*
X47000Y37300D02*
X47045Y37345D01*
Y38676D01*
D55*
X46596Y36997D02*
X46700Y37101D01*
X46149Y36997D02*
X46596D01*
X46700Y37101D02*
X46801D01*
X45262Y37026D02*
X45283Y37005D01*
X45949D01*
X46045Y37101D01*
X46149Y36997D01*
X46801Y37101D02*
X47000Y37300D01*
X27485Y37585D02*
X29101D01*
X29285Y37770D02*
Y38354D01*
X29101Y37585D02*
X29285Y37770D01*
X27300D02*
X27485Y37585D01*
X27300Y37770D02*
Y38368D01*
X29285Y38354D02*
X29300Y38368D01*
D56*
X43600Y39250D02*
X43700D01*
X43051D02*
X43600D01*
X35054Y37768D02*
Y37850D01*
Y37768D02*
X35088Y37734D01*
Y36300D02*
Y37734D01*
Y36062D02*
Y36300D01*
X35300Y35914D02*
X35729D01*
X35236D02*
X35300D01*
X35088Y36062D02*
X35236Y35914D01*
X35729D02*
X35811Y35832D01*
X35819D02*
X35850Y35801D01*
X35811Y35832D02*
X35819D01*
X44287Y40335D02*
X44463D01*
X43738D02*
X44110D01*
X43600Y39350D02*
Y40197D01*
X43738Y40335D01*
X36212Y42076D02*
X37167D01*
X43700Y39250D02*
X43800Y39150D01*
X46572D01*
X35750Y39600D02*
Y39969D01*
X35300Y39150D02*
X35750Y39600D01*
X29717Y39100D02*
X31450D01*
X29300Y38683D02*
X29717Y39100D01*
X33039Y31468D02*
X33199D01*
X32504Y30932D02*
X33039Y31468D01*
X32431Y30932D02*
X32504D01*
X32400Y30901D02*
X32431Y30932D01*
X33199Y31468D02*
X33231Y31499D01*
X33200Y34100D02*
Y34750D01*
Y34100D02*
X33215Y34085D01*
X33231Y31499D02*
Y32000D01*
D57*
X30597Y39518D02*
X30616Y39500D01*
X30282Y39518D02*
X30597D01*
X30101Y39700D02*
X30282Y39518D01*
X21300Y39800D02*
X21311D01*
X21411Y39700D02*
X30101D01*
X21311Y39800D02*
X21411Y39700D01*
X20850Y40250D02*
X21300Y39800D01*
X42420Y38620D02*
X43051Y39250D01*
X19149Y40200D02*
X19199Y40250D01*
X20850D01*
D58*
X44307Y42304D02*
X44557D01*
X44835Y42026D01*
Y41912D02*
Y42026D01*
Y41912D02*
X44847Y41900D01*
X44463Y40335D02*
X44587D01*
X44835Y40524D02*
X44847Y40536D01*
X44776Y40524D02*
X44835D01*
X44587Y40335D02*
X44776Y40524D01*
X43996Y42304D02*
X44267D01*
X43692Y42283D02*
X43975D01*
X43600Y42375D02*
Y42808D01*
X43975Y42283D02*
X43996Y42304D01*
X43600Y42375D02*
X43692Y42283D01*
X43508Y42900D02*
X43600Y42808D01*
X42450Y42900D02*
X43508D01*
X42400Y42950D02*
X42450Y42900D01*
D59*
X37242Y42151D02*
X37243D01*
X37167Y42076D02*
X37242Y42151D01*
X43600Y39350D02*
X43700Y39250D01*
X42401Y38600D02*
Y38608D01*
X42413Y38620D01*
X42420D01*
D60*
X38318Y34750D02*
Y35554D01*
X38071Y35801D02*
X38079D01*
X38154Y35718D02*
X38318Y35554D01*
X38154Y35718D02*
Y35726D01*
X21100Y33200D02*
Y35050D01*
X21306Y35256D01*
D61*
X18650Y40450D02*
X19200Y41000D01*
X18650Y40299D02*
Y40450D01*
X18551Y40200D02*
X18650Y40299D01*
D62*
X31115Y39500D02*
X31357Y39743D01*
X31350Y39750D02*
X31357Y39743D01*
X31350Y39750D02*
Y40310D01*
X30616Y39500D02*
X31115D01*
X32335Y41000D02*
X32584D01*
X32033Y40993D02*
X32328D01*
X32335Y41000D01*
X31350Y40310D02*
X32033Y40993D01*
D63*
X18448Y32400D02*
D03*
D64*
X44668Y39599D02*
D03*
Y43001D02*
D03*
D65*
X46313D02*
D03*
Y39599D02*
D03*
D66*
X18900Y42600D02*
D03*
X46250Y31000D02*
D03*
D67*
X19712Y42438D02*
D03*
X19652Y42946D02*
D03*
X19305Y43322D02*
D03*
X18803Y43422D02*
D03*
X18339Y43208D02*
D03*
X18088Y42762D02*
D03*
X18148Y42254D02*
D03*
X18495Y41878D02*
D03*
X18997Y41778D02*
D03*
X19461Y41992D02*
D03*
X46412Y31812D02*
D03*
X45904Y31752D02*
D03*
X45528Y31405D02*
D03*
X45428Y30903D02*
D03*
X45642Y30439D02*
D03*
X46088Y30188D02*
D03*
X46596Y30248D02*
D03*
X46972Y30595D02*
D03*
X47072Y31097D02*
D03*
X46858Y31561D02*
D03*
D68*
X46500Y42000D02*
D03*
X46000Y41000D02*
D03*
X46500Y40000D02*
D03*
X46000Y35000D02*
D03*
X45500Y40000D02*
D03*
Y32000D02*
D03*
X45000Y31000D02*
D03*
X44000Y43000D02*
D03*
X43000Y41000D02*
D03*
X43500Y36000D02*
D03*
X43000Y35000D02*
D03*
Y33000D02*
D03*
X43500Y32000D02*
D03*
X42500Y36000D02*
D03*
X42000Y35000D02*
D03*
Y33000D02*
D03*
X41000Y35000D02*
D03*
X40500Y42000D02*
D03*
X40000Y37000D02*
D03*
X40500Y36000D02*
D03*
X40000Y35000D02*
D03*
Y33000D02*
D03*
X39000Y43000D02*
D03*
Y37000D02*
D03*
X39500Y36000D02*
D03*
X39000Y33000D02*
D03*
X39500Y32000D02*
D03*
X38000Y43000D02*
D03*
X38500Y42000D02*
D03*
Y40000D02*
D03*
X38000Y39000D02*
D03*
X38500Y38000D02*
D03*
X38000Y37000D02*
D03*
X38500Y34000D02*
D03*
X38000Y33000D02*
D03*
Y31000D02*
D03*
X37000Y39000D02*
D03*
Y37000D02*
D03*
Y31000D02*
D03*
X36000Y39000D02*
D03*
Y37000D02*
D03*
X36500Y32000D02*
D03*
X36000Y31000D02*
D03*
X35000Y41000D02*
D03*
X35500Y32000D02*
D03*
X35000Y31000D02*
D03*
X34500Y32000D02*
D03*
X34000Y31000D02*
D03*
X32000D02*
D03*
X31500Y34000D02*
D03*
Y32000D02*
D03*
X31000Y31000D02*
D03*
X30500Y32000D02*
D03*
X30000Y31000D02*
D03*
X28500Y34000D02*
D03*
X28000Y33000D02*
D03*
X27000D02*
D03*
X27500Y32000D02*
D03*
X26500Y40000D02*
D03*
X26000Y37000D02*
D03*
X26500Y32000D02*
D03*
X25500Y40000D02*
D03*
X25000Y39000D02*
D03*
X25500Y38000D02*
D03*
X25000Y37000D02*
D03*
X25500Y36000D02*
D03*
Y32000D02*
D03*
X24000Y43000D02*
D03*
X24500Y40000D02*
D03*
X24000Y37000D02*
D03*
X24500Y36000D02*
D03*
X24000Y33000D02*
D03*
X24500Y32000D02*
D03*
X23500Y40000D02*
D03*
X23000Y37000D02*
D03*
X23500Y36000D02*
D03*
X23000Y35000D02*
D03*
Y33000D02*
D03*
X23500Y32000D02*
D03*
X22500Y40000D02*
D03*
X22000Y39000D02*
D03*
X22500Y38000D02*
D03*
X22000Y37000D02*
D03*
X22500Y36000D02*
D03*
X22000Y35000D02*
D03*
Y31000D02*
D03*
X21000Y39000D02*
D03*
Y37000D02*
D03*
X20500Y42000D02*
D03*
X20000Y41000D02*
D03*
Y39000D02*
D03*
X20500Y38000D02*
D03*
X20000Y37000D02*
D03*
X20500Y36000D02*
D03*
X20000Y35000D02*
D03*
Y31000D02*
D03*
X19000Y39000D02*
D03*
X19500Y38000D02*
D03*
X19000Y37000D02*
D03*
X19500Y36000D02*
D03*
X19000Y35000D02*
D03*
X19500Y34000D02*
D03*
X18000Y41000D02*
D03*
Y39000D02*
D03*
X18500Y38000D02*
D03*
X18000Y37000D02*
D03*
X18500Y36000D02*
D03*
X18000Y35000D02*
D03*
X18500Y34000D02*
D03*
X18000Y33000D02*
D03*
Y31000D02*
D03*
X30600Y35350D02*
D03*
X26800Y40400D02*
D03*
X46703Y36366D02*
D03*
X35089Y37577D02*
D03*
X33337Y36604D02*
D03*
X32641Y35423D02*
D03*
X27522Y42051D02*
D03*
X24700Y42601D02*
D03*
X35300Y35909D02*
D03*
X35150Y39700D02*
D03*
X32584Y38200D02*
D03*
X32300Y38500D02*
D03*
X32200Y38950D02*
D03*
X33700Y36062D02*
D03*
X33600Y35497D02*
D03*
X32273Y37750D02*
D03*
X31450Y37909D02*
D03*
X26567Y38972D02*
D03*
X27962Y41754D02*
D03*
X23817Y41783D02*
D03*
X34330Y35486D02*
D03*
X33987D02*
D03*
X33500Y36300D02*
D03*
X31936Y37950D02*
D03*
X29900Y37414D02*
D03*
X30277Y37590D02*
D03*
X25725Y30275D02*
D03*
X26200Y39268D02*
D03*
X35088Y36300D02*
D03*
X44847Y40536D02*
D03*
X24800Y32749D02*
D03*
X37150Y41150D02*
D03*
Y41500D02*
D03*
X37050Y40781D02*
D03*
X37457D02*
D03*
X44847Y41900D02*
D03*
X42700Y30550D02*
D03*
X42350D02*
D03*
X42000D02*
D03*
X41650D02*
D03*
X42700Y30900D02*
D03*
X42350D02*
D03*
X42000D02*
D03*
X41650D02*
D03*
X35054Y37850D02*
D03*
Y38904D02*
D03*
X35300Y39150D02*
D03*
X21300Y39800D02*
D03*
X38300Y35350D02*
D03*
X31450Y39100D02*
D03*
X31500Y41400D02*
D03*
X21500Y32494D02*
D03*
X33215Y34085D02*
D03*
X33231Y32000D02*
D03*
X32400D02*
D03*
X40150Y42584D02*
D03*
X39850D02*
D03*
X40150Y42884D02*
D03*
X39850D02*
D03*
X40466Y39850D02*
D03*
X40950D02*
D03*
Y40200D02*
D03*
X40475D02*
D03*
X21100Y33200D02*
D03*
X21306Y35256D02*
D03*
X22306Y41800D02*
D03*
X23363Y42451D02*
D03*
X25750Y32912D02*
D03*
X25306Y33450D02*
D03*
X32400Y33700D02*
D03*
M02*
