G04*
G04 #@! TF.GenerationSoftware,Altium Limited,Altium Designer,20.0.13 (296)*
G04*
G04 Layer_Color=128*
%FSLAX24Y24*%
%MOIN*%
G70*
G01*
G75*
%ADD11C,0.0100*%
%ADD15C,0.0002*%
%ADD16R,0.0315X0.0299*%
%ADD18R,0.0299X0.0315*%
%ADD26O,0.0236X0.0866*%
%ADD28R,0.0551X0.0394*%
%ADD69R,0.0354X0.0354*%
%ADD70R,0.0374X0.0827*%
%ADD71R,0.0827X0.0374*%
%ADD72R,0.0984X0.0748*%
%ADD73R,0.1299X0.0945*%
%ADD74R,0.0236X0.0472*%
%ADD75R,0.0945X0.0787*%
D11*
X47331Y43678D02*
X47350D01*
X47331D02*
X47331Y29922D01*
X47350Y29900D01*
X17800Y43700D02*
X47328D01*
X17800D02*
X17800Y29900D01*
X47350D01*
D15*
X46348Y35523D02*
G03*
X46348Y35523I-177J0D01*
G01*
Y32846D02*
G03*
X46348Y32846I-177J0D01*
G01*
X45024Y42438D02*
G03*
X45024Y42438I-148J0D01*
G01*
Y40162D02*
G03*
X45024Y40162I-148J0D01*
G01*
D16*
X20561Y43049D02*
D03*
Y42451D02*
D03*
X21274Y43049D02*
D03*
Y42451D02*
D03*
X21987Y42451D02*
D03*
Y43049D02*
D03*
X22700Y43049D02*
D03*
Y42451D02*
D03*
X42750Y41500D02*
D03*
Y42098D02*
D03*
Y40648D02*
D03*
Y40050D02*
D03*
D18*
X43640Y36650D02*
D03*
X44238D02*
D03*
X45550D02*
D03*
X44952D02*
D03*
X45550Y37400D02*
D03*
X44952D02*
D03*
X43602Y32850D02*
D03*
X44200D02*
D03*
X44952D02*
D03*
X45550D02*
D03*
X44800Y32100D02*
D03*
X44202D02*
D03*
X44799Y31350D02*
D03*
X44201D02*
D03*
D26*
X40450Y42750D02*
D03*
X40950D02*
D03*
X41450D02*
D03*
X41950D02*
D03*
Y40781D02*
D03*
X41450D02*
D03*
X40950D02*
D03*
X40450D02*
D03*
Y39350D02*
D03*
X40950D02*
D03*
X41450D02*
D03*
X41950D02*
D03*
Y37381D02*
D03*
X41450D02*
D03*
X40950D02*
D03*
X40450D02*
D03*
D28*
X43616Y38826D02*
D03*
X42750Y39200D02*
D03*
Y38452D02*
D03*
D69*
X24381Y37689D02*
D03*
Y38241D02*
D03*
Y38792D02*
D03*
X23279D02*
D03*
Y38241D02*
D03*
Y37689D02*
D03*
X23830D02*
D03*
Y38792D02*
D03*
Y38241D02*
D03*
D70*
X20806Y34107D02*
D03*
X21306D02*
D03*
X21806D02*
D03*
X22306D02*
D03*
X22806D02*
D03*
X23306D02*
D03*
X23806D02*
D03*
X24306D02*
D03*
X24806D02*
D03*
X25306D02*
D03*
X25806D02*
D03*
X26306D02*
D03*
X26806D02*
D03*
X27306D02*
D03*
Y41193D02*
D03*
X26806D02*
D03*
X26306D02*
D03*
X25806D02*
D03*
X25306D02*
D03*
X24806D02*
D03*
X24306D02*
D03*
X23806D02*
D03*
X23306D02*
D03*
X22806D02*
D03*
X22306D02*
D03*
X21806D02*
D03*
X21306D02*
D03*
X20806D02*
D03*
D71*
X27894Y35400D02*
D03*
Y35900D02*
D03*
Y36400D02*
D03*
Y36900D02*
D03*
Y37400D02*
D03*
Y37900D02*
D03*
Y38400D02*
D03*
Y38900D02*
D03*
Y39400D02*
D03*
Y39900D02*
D03*
D72*
X41481Y35823D02*
D03*
Y34209D02*
D03*
D73*
X44550Y34800D02*
D03*
D74*
X43800Y33655D02*
D03*
X44300D02*
D03*
X44800D02*
D03*
X45300D02*
D03*
Y35945D02*
D03*
X44800D02*
D03*
X44300D02*
D03*
X43800D02*
D03*
D75*
X40625Y31900D02*
D03*
X42200D02*
D03*
M02*
