G04*
G04 #@! TF.GenerationSoftware,Altium Limited,Altium Designer,20.0.13 (296)*
G04*
G04 Layer_Color=2752767*
%FSLAX24Y24*%
%MOIN*%
G70*
G01*
G75*
%ADD11C,0.0100*%
%ADD15C,0.0002*%
%ADD87C,0.0020*%
%ADD88C,0.0027*%
D11*
X47331Y43678D02*
X47350D01*
X47331D02*
X47331Y29922D01*
X47350Y29900D01*
X17800Y43700D02*
X47328D01*
X17800D02*
X17800Y29900D01*
X47350D01*
D15*
X46348Y35523D02*
G03*
X46348Y35523I-177J0D01*
G01*
Y32846D02*
G03*
X46348Y32846I-177J0D01*
G01*
X45024Y42438D02*
G03*
X45024Y42438I-148J0D01*
G01*
Y40162D02*
G03*
X45024Y40162I-148J0D01*
G01*
D87*
X18368Y32320D02*
Y32480D01*
X18528D01*
Y32320D01*
X18368D01*
X44668Y42921D02*
X44588Y43081D01*
X44748D01*
X44668Y42921D01*
X46313D02*
X46353Y42961D01*
X46393D01*
X46353Y43001D01*
X46393Y43041D01*
X46353D01*
X46313Y43081D01*
X46273Y43041D01*
X46233D01*
X46273Y43001D01*
X46233Y42961D01*
X46273D01*
X46313Y42921D01*
Y39519D02*
X46353Y39559D01*
X46393D01*
X46353Y39599D01*
X46393Y39639D01*
X46353D01*
X46313Y39679D01*
X46273Y39639D01*
X46233D01*
X46273Y39599D01*
X46233Y39559D01*
X46273D01*
X46313Y39519D01*
X18820Y42520D02*
X18860Y42600D01*
X18820Y42680D01*
X18900Y42640D01*
X18980Y42680D01*
X18940Y42600D01*
X18980Y42520D01*
X18900Y42560D01*
X18820Y42520D01*
X19672Y42398D02*
Y42358D01*
X19752D01*
Y42398D01*
X19792D01*
Y42478D01*
X19752D01*
Y42518D01*
X19672D01*
Y42478D01*
X19632D01*
Y42398D01*
X19672D01*
X19612Y42906D02*
Y42866D01*
X19692D01*
Y42906D01*
X19732D01*
Y42986D01*
X19692D01*
Y43026D01*
X19612D01*
Y42986D01*
X19572D01*
Y42906D01*
X19612D01*
X19265Y43282D02*
Y43242D01*
X19345D01*
Y43282D01*
X19385D01*
Y43362D01*
X19345D01*
Y43402D01*
X19265D01*
Y43362D01*
X19225D01*
Y43282D01*
X19265D01*
X18763Y43382D02*
Y43342D01*
X18843D01*
Y43382D01*
X18883D01*
Y43462D01*
X18843D01*
Y43502D01*
X18763D01*
Y43462D01*
X18723D01*
Y43382D01*
X18763D01*
X18299Y43168D02*
Y43128D01*
X18379D01*
Y43168D01*
X18419D01*
Y43248D01*
X18379D01*
Y43288D01*
X18299D01*
Y43248D01*
X18259D01*
Y43168D01*
X18299D01*
X18048Y42722D02*
Y42682D01*
X18128D01*
Y42722D01*
X18168D01*
Y42802D01*
X18128D01*
Y42842D01*
X18048D01*
Y42802D01*
X18008D01*
Y42722D01*
X18048D01*
X18108Y42214D02*
Y42174D01*
X18188D01*
Y42214D01*
X18228D01*
Y42294D01*
X18188D01*
Y42334D01*
X18108D01*
Y42294D01*
X18068D01*
Y42214D01*
X18108D01*
X18455Y41838D02*
Y41798D01*
X18535D01*
Y41838D01*
X18575D01*
Y41918D01*
X18535D01*
Y41958D01*
X18455D01*
Y41918D01*
X18415D01*
Y41838D01*
X18455D01*
X18957Y41738D02*
Y41698D01*
X19037D01*
Y41738D01*
X19077D01*
Y41818D01*
X19037D01*
Y41858D01*
X18957D01*
Y41818D01*
X18917D01*
Y41738D01*
X18957D01*
X19421Y41952D02*
Y41912D01*
X19501D01*
Y41952D01*
X19541D01*
Y42032D01*
X19501D01*
Y42072D01*
X19421D01*
Y42032D01*
X19381D01*
Y41952D01*
X19421D01*
X46170Y30920D02*
X46210Y31000D01*
X46170Y31080D01*
X46250Y31040D01*
X46330Y31080D01*
X46290Y31000D01*
X46330Y30920D01*
X46250Y30960D01*
X46170Y30920D01*
X46372Y31772D02*
Y31732D01*
X46452D01*
Y31772D01*
X46492D01*
Y31852D01*
X46452D01*
Y31892D01*
X46372D01*
Y31852D01*
X46332D01*
Y31772D01*
X46372D01*
X45864Y31712D02*
Y31672D01*
X45944D01*
Y31712D01*
X45984D01*
Y31792D01*
X45944D01*
Y31832D01*
X45864D01*
Y31792D01*
X45824D01*
Y31712D01*
X45864D01*
X45488Y31365D02*
Y31325D01*
X45568D01*
Y31365D01*
X45608D01*
Y31445D01*
X45568D01*
Y31485D01*
X45488D01*
Y31445D01*
X45448D01*
Y31365D01*
X45488D01*
X45388Y30863D02*
Y30823D01*
X45468D01*
Y30863D01*
X45508D01*
Y30943D01*
X45468D01*
Y30983D01*
X45388D01*
Y30943D01*
X45348D01*
Y30863D01*
X45388D01*
X45602Y30399D02*
Y30359D01*
X45682D01*
Y30399D01*
X45722D01*
Y30479D01*
X45682D01*
Y30519D01*
X45602D01*
Y30479D01*
X45562D01*
Y30399D01*
X45602D01*
X46048Y30148D02*
Y30108D01*
X46128D01*
Y30148D01*
X46168D01*
Y30228D01*
X46128D01*
Y30268D01*
X46048D01*
Y30228D01*
X46008D01*
Y30148D01*
X46048D01*
X46556Y30208D02*
Y30168D01*
X46636D01*
Y30208D01*
X46676D01*
Y30288D01*
X46636D01*
Y30328D01*
X46556D01*
Y30288D01*
X46516D01*
Y30208D01*
X46556D01*
X46932Y30555D02*
Y30515D01*
X47012D01*
Y30555D01*
X47052D01*
Y30635D01*
X47012D01*
Y30675D01*
X46932D01*
Y30635D01*
X46892D01*
Y30555D01*
X46932D01*
X47032Y31057D02*
Y31017D01*
X47112D01*
Y31057D01*
X47152D01*
Y31137D01*
X47112D01*
Y31177D01*
X47032D01*
Y31137D01*
X46992D01*
Y31057D01*
X47032D01*
X46818Y31521D02*
Y31481D01*
X46898D01*
Y31521D01*
X46938D01*
Y31601D01*
X46898D01*
Y31641D01*
X46818D01*
Y31601D01*
X46778D01*
Y31521D01*
X46818D01*
X46420Y41920D02*
X46460D01*
X46500Y41960D01*
X46540Y41920D01*
X46580D01*
Y41960D01*
X46540Y42000D01*
X46580Y42040D01*
Y42080D01*
X46540D01*
X46500Y42040D01*
X46460Y42080D01*
X46420D01*
Y42040D01*
X46460Y42000D01*
X46420Y41960D01*
Y41920D01*
X45920Y40920D02*
X45960D01*
X46000Y40960D01*
X46040Y40920D01*
X46080D01*
Y40960D01*
X46040Y41000D01*
X46080Y41040D01*
Y41080D01*
X46040D01*
X46000Y41040D01*
X45960Y41080D01*
X45920D01*
Y41040D01*
X45960Y41000D01*
X45920Y40960D01*
Y40920D01*
X46420Y39920D02*
X46460D01*
X46500Y39960D01*
X46540Y39920D01*
X46580D01*
Y39960D01*
X46540Y40000D01*
X46580Y40040D01*
Y40080D01*
X46540D01*
X46500Y40040D01*
X46460Y40080D01*
X46420D01*
Y40040D01*
X46460Y40000D01*
X46420Y39960D01*
Y39920D01*
X45920Y34920D02*
X45960D01*
X46000Y34960D01*
X46040Y34920D01*
X46080D01*
Y34960D01*
X46040Y35000D01*
X46080Y35040D01*
Y35080D01*
X46040D01*
X46000Y35040D01*
X45960Y35080D01*
X45920D01*
Y35040D01*
X45960Y35000D01*
X45920Y34960D01*
Y34920D01*
X45420Y39920D02*
X45460D01*
X45500Y39960D01*
X45540Y39920D01*
X45580D01*
Y39960D01*
X45540Y40000D01*
X45580Y40040D01*
Y40080D01*
X45540D01*
X45500Y40040D01*
X45460Y40080D01*
X45420D01*
Y40040D01*
X45460Y40000D01*
X45420Y39960D01*
Y39920D01*
Y31920D02*
X45460D01*
X45500Y31960D01*
X45540Y31920D01*
X45580D01*
Y31960D01*
X45540Y32000D01*
X45580Y32040D01*
Y32080D01*
X45540D01*
X45500Y32040D01*
X45460Y32080D01*
X45420D01*
Y32040D01*
X45460Y32000D01*
X45420Y31960D01*
Y31920D01*
X44920Y30920D02*
X44960D01*
X45000Y30960D01*
X45040Y30920D01*
X45080D01*
Y30960D01*
X45040Y31000D01*
X45080Y31040D01*
Y31080D01*
X45040D01*
X45000Y31040D01*
X44960Y31080D01*
X44920D01*
Y31040D01*
X44960Y31000D01*
X44920Y30960D01*
Y30920D01*
X43920Y42920D02*
X43960D01*
X44000Y42960D01*
X44040Y42920D01*
X44080D01*
Y42960D01*
X44040Y43000D01*
X44080Y43040D01*
Y43080D01*
X44040D01*
X44000Y43040D01*
X43960Y43080D01*
X43920D01*
Y43040D01*
X43960Y43000D01*
X43920Y42960D01*
Y42920D01*
X42920Y40920D02*
X42960D01*
X43000Y40960D01*
X43040Y40920D01*
X43080D01*
Y40960D01*
X43040Y41000D01*
X43080Y41040D01*
Y41080D01*
X43040D01*
X43000Y41040D01*
X42960Y41080D01*
X42920D01*
Y41040D01*
X42960Y41000D01*
X42920Y40960D01*
Y40920D01*
X43420Y35920D02*
X43460D01*
X43500Y35960D01*
X43540Y35920D01*
X43580D01*
Y35960D01*
X43540Y36000D01*
X43580Y36040D01*
Y36080D01*
X43540D01*
X43500Y36040D01*
X43460Y36080D01*
X43420D01*
Y36040D01*
X43460Y36000D01*
X43420Y35960D01*
Y35920D01*
X42920Y34920D02*
X42960D01*
X43000Y34960D01*
X43040Y34920D01*
X43080D01*
Y34960D01*
X43040Y35000D01*
X43080Y35040D01*
Y35080D01*
X43040D01*
X43000Y35040D01*
X42960Y35080D01*
X42920D01*
Y35040D01*
X42960Y35000D01*
X42920Y34960D01*
Y34920D01*
Y32920D02*
X42960D01*
X43000Y32960D01*
X43040Y32920D01*
X43080D01*
Y32960D01*
X43040Y33000D01*
X43080Y33040D01*
Y33080D01*
X43040D01*
X43000Y33040D01*
X42960Y33080D01*
X42920D01*
Y33040D01*
X42960Y33000D01*
X42920Y32960D01*
Y32920D01*
X43420Y31920D02*
X43460D01*
X43500Y31960D01*
X43540Y31920D01*
X43580D01*
Y31960D01*
X43540Y32000D01*
X43580Y32040D01*
Y32080D01*
X43540D01*
X43500Y32040D01*
X43460Y32080D01*
X43420D01*
Y32040D01*
X43460Y32000D01*
X43420Y31960D01*
Y31920D01*
X42420Y35920D02*
X42460D01*
X42500Y35960D01*
X42540Y35920D01*
X42580D01*
Y35960D01*
X42540Y36000D01*
X42580Y36040D01*
Y36080D01*
X42540D01*
X42500Y36040D01*
X42460Y36080D01*
X42420D01*
Y36040D01*
X42460Y36000D01*
X42420Y35960D01*
Y35920D01*
X41920Y34920D02*
X41960D01*
X42000Y34960D01*
X42040Y34920D01*
X42080D01*
Y34960D01*
X42040Y35000D01*
X42080Y35040D01*
Y35080D01*
X42040D01*
X42000Y35040D01*
X41960Y35080D01*
X41920D01*
Y35040D01*
X41960Y35000D01*
X41920Y34960D01*
Y34920D01*
Y32920D02*
X41960D01*
X42000Y32960D01*
X42040Y32920D01*
X42080D01*
Y32960D01*
X42040Y33000D01*
X42080Y33040D01*
Y33080D01*
X42040D01*
X42000Y33040D01*
X41960Y33080D01*
X41920D01*
Y33040D01*
X41960Y33000D01*
X41920Y32960D01*
Y32920D01*
X40920Y34920D02*
X40960D01*
X41000Y34960D01*
X41040Y34920D01*
X41080D01*
Y34960D01*
X41040Y35000D01*
X41080Y35040D01*
Y35080D01*
X41040D01*
X41000Y35040D01*
X40960Y35080D01*
X40920D01*
Y35040D01*
X40960Y35000D01*
X40920Y34960D01*
Y34920D01*
X40420Y41920D02*
X40460D01*
X40500Y41960D01*
X40540Y41920D01*
X40580D01*
Y41960D01*
X40540Y42000D01*
X40580Y42040D01*
Y42080D01*
X40540D01*
X40500Y42040D01*
X40460Y42080D01*
X40420D01*
Y42040D01*
X40460Y42000D01*
X40420Y41960D01*
Y41920D01*
X39920Y36920D02*
X39960D01*
X40000Y36960D01*
X40040Y36920D01*
X40080D01*
Y36960D01*
X40040Y37000D01*
X40080Y37040D01*
Y37080D01*
X40040D01*
X40000Y37040D01*
X39960Y37080D01*
X39920D01*
Y37040D01*
X39960Y37000D01*
X39920Y36960D01*
Y36920D01*
X40420Y35920D02*
X40460D01*
X40500Y35960D01*
X40540Y35920D01*
X40580D01*
Y35960D01*
X40540Y36000D01*
X40580Y36040D01*
Y36080D01*
X40540D01*
X40500Y36040D01*
X40460Y36080D01*
X40420D01*
Y36040D01*
X40460Y36000D01*
X40420Y35960D01*
Y35920D01*
X39920Y34920D02*
X39960D01*
X40000Y34960D01*
X40040Y34920D01*
X40080D01*
Y34960D01*
X40040Y35000D01*
X40080Y35040D01*
Y35080D01*
X40040D01*
X40000Y35040D01*
X39960Y35080D01*
X39920D01*
Y35040D01*
X39960Y35000D01*
X39920Y34960D01*
Y34920D01*
Y32920D02*
X39960D01*
X40000Y32960D01*
X40040Y32920D01*
X40080D01*
Y32960D01*
X40040Y33000D01*
X40080Y33040D01*
Y33080D01*
X40040D01*
X40000Y33040D01*
X39960Y33080D01*
X39920D01*
Y33040D01*
X39960Y33000D01*
X39920Y32960D01*
Y32920D01*
X38920Y42920D02*
X38960D01*
X39000Y42960D01*
X39040Y42920D01*
X39080D01*
Y42960D01*
X39040Y43000D01*
X39080Y43040D01*
Y43080D01*
X39040D01*
X39000Y43040D01*
X38960Y43080D01*
X38920D01*
Y43040D01*
X38960Y43000D01*
X38920Y42960D01*
Y42920D01*
Y36920D02*
X38960D01*
X39000Y36960D01*
X39040Y36920D01*
X39080D01*
Y36960D01*
X39040Y37000D01*
X39080Y37040D01*
Y37080D01*
X39040D01*
X39000Y37040D01*
X38960Y37080D01*
X38920D01*
Y37040D01*
X38960Y37000D01*
X38920Y36960D01*
Y36920D01*
X39420Y35920D02*
X39460D01*
X39500Y35960D01*
X39540Y35920D01*
X39580D01*
Y35960D01*
X39540Y36000D01*
X39580Y36040D01*
Y36080D01*
X39540D01*
X39500Y36040D01*
X39460Y36080D01*
X39420D01*
Y36040D01*
X39460Y36000D01*
X39420Y35960D01*
Y35920D01*
X38920Y32920D02*
X38960D01*
X39000Y32960D01*
X39040Y32920D01*
X39080D01*
Y32960D01*
X39040Y33000D01*
X39080Y33040D01*
Y33080D01*
X39040D01*
X39000Y33040D01*
X38960Y33080D01*
X38920D01*
Y33040D01*
X38960Y33000D01*
X38920Y32960D01*
Y32920D01*
X39420Y31920D02*
X39460D01*
X39500Y31960D01*
X39540Y31920D01*
X39580D01*
Y31960D01*
X39540Y32000D01*
X39580Y32040D01*
Y32080D01*
X39540D01*
X39500Y32040D01*
X39460Y32080D01*
X39420D01*
Y32040D01*
X39460Y32000D01*
X39420Y31960D01*
Y31920D01*
X37920Y42920D02*
X37960D01*
X38000Y42960D01*
X38040Y42920D01*
X38080D01*
Y42960D01*
X38040Y43000D01*
X38080Y43040D01*
Y43080D01*
X38040D01*
X38000Y43040D01*
X37960Y43080D01*
X37920D01*
Y43040D01*
X37960Y43000D01*
X37920Y42960D01*
Y42920D01*
X38420Y41920D02*
X38460D01*
X38500Y41960D01*
X38540Y41920D01*
X38580D01*
Y41960D01*
X38540Y42000D01*
X38580Y42040D01*
Y42080D01*
X38540D01*
X38500Y42040D01*
X38460Y42080D01*
X38420D01*
Y42040D01*
X38460Y42000D01*
X38420Y41960D01*
Y41920D01*
Y39920D02*
X38460D01*
X38500Y39960D01*
X38540Y39920D01*
X38580D01*
Y39960D01*
X38540Y40000D01*
X38580Y40040D01*
Y40080D01*
X38540D01*
X38500Y40040D01*
X38460Y40080D01*
X38420D01*
Y40040D01*
X38460Y40000D01*
X38420Y39960D01*
Y39920D01*
X37920Y38920D02*
X37960D01*
X38000Y38960D01*
X38040Y38920D01*
X38080D01*
Y38960D01*
X38040Y39000D01*
X38080Y39040D01*
Y39080D01*
X38040D01*
X38000Y39040D01*
X37960Y39080D01*
X37920D01*
Y39040D01*
X37960Y39000D01*
X37920Y38960D01*
Y38920D01*
X38420Y37920D02*
X38460D01*
X38500Y37960D01*
X38540Y37920D01*
X38580D01*
Y37960D01*
X38540Y38000D01*
X38580Y38040D01*
Y38080D01*
X38540D01*
X38500Y38040D01*
X38460Y38080D01*
X38420D01*
Y38040D01*
X38460Y38000D01*
X38420Y37960D01*
Y37920D01*
X37920Y36920D02*
X37960D01*
X38000Y36960D01*
X38040Y36920D01*
X38080D01*
Y36960D01*
X38040Y37000D01*
X38080Y37040D01*
Y37080D01*
X38040D01*
X38000Y37040D01*
X37960Y37080D01*
X37920D01*
Y37040D01*
X37960Y37000D01*
X37920Y36960D01*
Y36920D01*
X38420Y33920D02*
X38460D01*
X38500Y33960D01*
X38540Y33920D01*
X38580D01*
Y33960D01*
X38540Y34000D01*
X38580Y34040D01*
Y34080D01*
X38540D01*
X38500Y34040D01*
X38460Y34080D01*
X38420D01*
Y34040D01*
X38460Y34000D01*
X38420Y33960D01*
Y33920D01*
X37920Y32920D02*
X37960D01*
X38000Y32960D01*
X38040Y32920D01*
X38080D01*
Y32960D01*
X38040Y33000D01*
X38080Y33040D01*
Y33080D01*
X38040D01*
X38000Y33040D01*
X37960Y33080D01*
X37920D01*
Y33040D01*
X37960Y33000D01*
X37920Y32960D01*
Y32920D01*
Y30920D02*
X37960D01*
X38000Y30960D01*
X38040Y30920D01*
X38080D01*
Y30960D01*
X38040Y31000D01*
X38080Y31040D01*
Y31080D01*
X38040D01*
X38000Y31040D01*
X37960Y31080D01*
X37920D01*
Y31040D01*
X37960Y31000D01*
X37920Y30960D01*
Y30920D01*
X36920Y38920D02*
X36960D01*
X37000Y38960D01*
X37040Y38920D01*
X37080D01*
Y38960D01*
X37040Y39000D01*
X37080Y39040D01*
Y39080D01*
X37040D01*
X37000Y39040D01*
X36960Y39080D01*
X36920D01*
Y39040D01*
X36960Y39000D01*
X36920Y38960D01*
Y38920D01*
Y36920D02*
X36960D01*
X37000Y36960D01*
X37040Y36920D01*
X37080D01*
Y36960D01*
X37040Y37000D01*
X37080Y37040D01*
Y37080D01*
X37040D01*
X37000Y37040D01*
X36960Y37080D01*
X36920D01*
Y37040D01*
X36960Y37000D01*
X36920Y36960D01*
Y36920D01*
Y30920D02*
X36960D01*
X37000Y30960D01*
X37040Y30920D01*
X37080D01*
Y30960D01*
X37040Y31000D01*
X37080Y31040D01*
Y31080D01*
X37040D01*
X37000Y31040D01*
X36960Y31080D01*
X36920D01*
Y31040D01*
X36960Y31000D01*
X36920Y30960D01*
Y30920D01*
X35920Y38920D02*
X35960D01*
X36000Y38960D01*
X36040Y38920D01*
X36080D01*
Y38960D01*
X36040Y39000D01*
X36080Y39040D01*
Y39080D01*
X36040D01*
X36000Y39040D01*
X35960Y39080D01*
X35920D01*
Y39040D01*
X35960Y39000D01*
X35920Y38960D01*
Y38920D01*
Y36920D02*
X35960D01*
X36000Y36960D01*
X36040Y36920D01*
X36080D01*
Y36960D01*
X36040Y37000D01*
X36080Y37040D01*
Y37080D01*
X36040D01*
X36000Y37040D01*
X35960Y37080D01*
X35920D01*
Y37040D01*
X35960Y37000D01*
X35920Y36960D01*
Y36920D01*
X36420Y31920D02*
X36460D01*
X36500Y31960D01*
X36540Y31920D01*
X36580D01*
Y31960D01*
X36540Y32000D01*
X36580Y32040D01*
Y32080D01*
X36540D01*
X36500Y32040D01*
X36460Y32080D01*
X36420D01*
Y32040D01*
X36460Y32000D01*
X36420Y31960D01*
Y31920D01*
X35920Y30920D02*
X35960D01*
X36000Y30960D01*
X36040Y30920D01*
X36080D01*
Y30960D01*
X36040Y31000D01*
X36080Y31040D01*
Y31080D01*
X36040D01*
X36000Y31040D01*
X35960Y31080D01*
X35920D01*
Y31040D01*
X35960Y31000D01*
X35920Y30960D01*
Y30920D01*
X34920Y40920D02*
X34960D01*
X35000Y40960D01*
X35040Y40920D01*
X35080D01*
Y40960D01*
X35040Y41000D01*
X35080Y41040D01*
Y41080D01*
X35040D01*
X35000Y41040D01*
X34960Y41080D01*
X34920D01*
Y41040D01*
X34960Y41000D01*
X34920Y40960D01*
Y40920D01*
X35420Y31920D02*
X35460D01*
X35500Y31960D01*
X35540Y31920D01*
X35580D01*
Y31960D01*
X35540Y32000D01*
X35580Y32040D01*
Y32080D01*
X35540D01*
X35500Y32040D01*
X35460Y32080D01*
X35420D01*
Y32040D01*
X35460Y32000D01*
X35420Y31960D01*
Y31920D01*
X34920Y30920D02*
X34960D01*
X35000Y30960D01*
X35040Y30920D01*
X35080D01*
Y30960D01*
X35040Y31000D01*
X35080Y31040D01*
Y31080D01*
X35040D01*
X35000Y31040D01*
X34960Y31080D01*
X34920D01*
Y31040D01*
X34960Y31000D01*
X34920Y30960D01*
Y30920D01*
X34420Y31920D02*
X34460D01*
X34500Y31960D01*
X34540Y31920D01*
X34580D01*
Y31960D01*
X34540Y32000D01*
X34580Y32040D01*
Y32080D01*
X34540D01*
X34500Y32040D01*
X34460Y32080D01*
X34420D01*
Y32040D01*
X34460Y32000D01*
X34420Y31960D01*
Y31920D01*
X33920Y30920D02*
X33960D01*
X34000Y30960D01*
X34040Y30920D01*
X34080D01*
Y30960D01*
X34040Y31000D01*
X34080Y31040D01*
Y31080D01*
X34040D01*
X34000Y31040D01*
X33960Y31080D01*
X33920D01*
Y31040D01*
X33960Y31000D01*
X33920Y30960D01*
Y30920D01*
X31920D02*
X31960D01*
X32000Y30960D01*
X32040Y30920D01*
X32080D01*
Y30960D01*
X32040Y31000D01*
X32080Y31040D01*
Y31080D01*
X32040D01*
X32000Y31040D01*
X31960Y31080D01*
X31920D01*
Y31040D01*
X31960Y31000D01*
X31920Y30960D01*
Y30920D01*
X31420Y33920D02*
X31460D01*
X31500Y33960D01*
X31540Y33920D01*
X31580D01*
Y33960D01*
X31540Y34000D01*
X31580Y34040D01*
Y34080D01*
X31540D01*
X31500Y34040D01*
X31460Y34080D01*
X31420D01*
Y34040D01*
X31460Y34000D01*
X31420Y33960D01*
Y33920D01*
Y31920D02*
X31460D01*
X31500Y31960D01*
X31540Y31920D01*
X31580D01*
Y31960D01*
X31540Y32000D01*
X31580Y32040D01*
Y32080D01*
X31540D01*
X31500Y32040D01*
X31460Y32080D01*
X31420D01*
Y32040D01*
X31460Y32000D01*
X31420Y31960D01*
Y31920D01*
X30920Y30920D02*
X30960D01*
X31000Y30960D01*
X31040Y30920D01*
X31080D01*
Y30960D01*
X31040Y31000D01*
X31080Y31040D01*
Y31080D01*
X31040D01*
X31000Y31040D01*
X30960Y31080D01*
X30920D01*
Y31040D01*
X30960Y31000D01*
X30920Y30960D01*
Y30920D01*
X30420Y31920D02*
X30460D01*
X30500Y31960D01*
X30540Y31920D01*
X30580D01*
Y31960D01*
X30540Y32000D01*
X30580Y32040D01*
Y32080D01*
X30540D01*
X30500Y32040D01*
X30460Y32080D01*
X30420D01*
Y32040D01*
X30460Y32000D01*
X30420Y31960D01*
Y31920D01*
X29920Y30920D02*
X29960D01*
X30000Y30960D01*
X30040Y30920D01*
X30080D01*
Y30960D01*
X30040Y31000D01*
X30080Y31040D01*
Y31080D01*
X30040D01*
X30000Y31040D01*
X29960Y31080D01*
X29920D01*
Y31040D01*
X29960Y31000D01*
X29920Y30960D01*
Y30920D01*
X28420Y33920D02*
X28460D01*
X28500Y33960D01*
X28540Y33920D01*
X28580D01*
Y33960D01*
X28540Y34000D01*
X28580Y34040D01*
Y34080D01*
X28540D01*
X28500Y34040D01*
X28460Y34080D01*
X28420D01*
Y34040D01*
X28460Y34000D01*
X28420Y33960D01*
Y33920D01*
X27920Y32920D02*
X27960D01*
X28000Y32960D01*
X28040Y32920D01*
X28080D01*
Y32960D01*
X28040Y33000D01*
X28080Y33040D01*
Y33080D01*
X28040D01*
X28000Y33040D01*
X27960Y33080D01*
X27920D01*
Y33040D01*
X27960Y33000D01*
X27920Y32960D01*
Y32920D01*
X26920D02*
X26960D01*
X27000Y32960D01*
X27040Y32920D01*
X27080D01*
Y32960D01*
X27040Y33000D01*
X27080Y33040D01*
Y33080D01*
X27040D01*
X27000Y33040D01*
X26960Y33080D01*
X26920D01*
Y33040D01*
X26960Y33000D01*
X26920Y32960D01*
Y32920D01*
X27420Y31920D02*
X27460D01*
X27500Y31960D01*
X27540Y31920D01*
X27580D01*
Y31960D01*
X27540Y32000D01*
X27580Y32040D01*
Y32080D01*
X27540D01*
X27500Y32040D01*
X27460Y32080D01*
X27420D01*
Y32040D01*
X27460Y32000D01*
X27420Y31960D01*
Y31920D01*
X26420Y39920D02*
X26460D01*
X26500Y39960D01*
X26540Y39920D01*
X26580D01*
Y39960D01*
X26540Y40000D01*
X26580Y40040D01*
Y40080D01*
X26540D01*
X26500Y40040D01*
X26460Y40080D01*
X26420D01*
Y40040D01*
X26460Y40000D01*
X26420Y39960D01*
Y39920D01*
X25920Y36920D02*
X25960D01*
X26000Y36960D01*
X26040Y36920D01*
X26080D01*
Y36960D01*
X26040Y37000D01*
X26080Y37040D01*
Y37080D01*
X26040D01*
X26000Y37040D01*
X25960Y37080D01*
X25920D01*
Y37040D01*
X25960Y37000D01*
X25920Y36960D01*
Y36920D01*
X26420Y31920D02*
X26460D01*
X26500Y31960D01*
X26540Y31920D01*
X26580D01*
Y31960D01*
X26540Y32000D01*
X26580Y32040D01*
Y32080D01*
X26540D01*
X26500Y32040D01*
X26460Y32080D01*
X26420D01*
Y32040D01*
X26460Y32000D01*
X26420Y31960D01*
Y31920D01*
X25420Y39920D02*
X25460D01*
X25500Y39960D01*
X25540Y39920D01*
X25580D01*
Y39960D01*
X25540Y40000D01*
X25580Y40040D01*
Y40080D01*
X25540D01*
X25500Y40040D01*
X25460Y40080D01*
X25420D01*
Y40040D01*
X25460Y40000D01*
X25420Y39960D01*
Y39920D01*
X24920Y38920D02*
X24960D01*
X25000Y38960D01*
X25040Y38920D01*
X25080D01*
Y38960D01*
X25040Y39000D01*
X25080Y39040D01*
Y39080D01*
X25040D01*
X25000Y39040D01*
X24960Y39080D01*
X24920D01*
Y39040D01*
X24960Y39000D01*
X24920Y38960D01*
Y38920D01*
X25420Y37920D02*
X25460D01*
X25500Y37960D01*
X25540Y37920D01*
X25580D01*
Y37960D01*
X25540Y38000D01*
X25580Y38040D01*
Y38080D01*
X25540D01*
X25500Y38040D01*
X25460Y38080D01*
X25420D01*
Y38040D01*
X25460Y38000D01*
X25420Y37960D01*
Y37920D01*
X24920Y36920D02*
X24960D01*
X25000Y36960D01*
X25040Y36920D01*
X25080D01*
Y36960D01*
X25040Y37000D01*
X25080Y37040D01*
Y37080D01*
X25040D01*
X25000Y37040D01*
X24960Y37080D01*
X24920D01*
Y37040D01*
X24960Y37000D01*
X24920Y36960D01*
Y36920D01*
X25420Y35920D02*
X25460D01*
X25500Y35960D01*
X25540Y35920D01*
X25580D01*
Y35960D01*
X25540Y36000D01*
X25580Y36040D01*
Y36080D01*
X25540D01*
X25500Y36040D01*
X25460Y36080D01*
X25420D01*
Y36040D01*
X25460Y36000D01*
X25420Y35960D01*
Y35920D01*
Y31920D02*
X25460D01*
X25500Y31960D01*
X25540Y31920D01*
X25580D01*
Y31960D01*
X25540Y32000D01*
X25580Y32040D01*
Y32080D01*
X25540D01*
X25500Y32040D01*
X25460Y32080D01*
X25420D01*
Y32040D01*
X25460Y32000D01*
X25420Y31960D01*
Y31920D01*
X23920Y42920D02*
X23960D01*
X24000Y42960D01*
X24040Y42920D01*
X24080D01*
Y42960D01*
X24040Y43000D01*
X24080Y43040D01*
Y43080D01*
X24040D01*
X24000Y43040D01*
X23960Y43080D01*
X23920D01*
Y43040D01*
X23960Y43000D01*
X23920Y42960D01*
Y42920D01*
X24420Y39920D02*
X24460D01*
X24500Y39960D01*
X24540Y39920D01*
X24580D01*
Y39960D01*
X24540Y40000D01*
X24580Y40040D01*
Y40080D01*
X24540D01*
X24500Y40040D01*
X24460Y40080D01*
X24420D01*
Y40040D01*
X24460Y40000D01*
X24420Y39960D01*
Y39920D01*
X23920Y36920D02*
X23960D01*
X24000Y36960D01*
X24040Y36920D01*
X24080D01*
Y36960D01*
X24040Y37000D01*
X24080Y37040D01*
Y37080D01*
X24040D01*
X24000Y37040D01*
X23960Y37080D01*
X23920D01*
Y37040D01*
X23960Y37000D01*
X23920Y36960D01*
Y36920D01*
X24420Y35920D02*
X24460D01*
X24500Y35960D01*
X24540Y35920D01*
X24580D01*
Y35960D01*
X24540Y36000D01*
X24580Y36040D01*
Y36080D01*
X24540D01*
X24500Y36040D01*
X24460Y36080D01*
X24420D01*
Y36040D01*
X24460Y36000D01*
X24420Y35960D01*
Y35920D01*
X23920Y32920D02*
X23960D01*
X24000Y32960D01*
X24040Y32920D01*
X24080D01*
Y32960D01*
X24040Y33000D01*
X24080Y33040D01*
Y33080D01*
X24040D01*
X24000Y33040D01*
X23960Y33080D01*
X23920D01*
Y33040D01*
X23960Y33000D01*
X23920Y32960D01*
Y32920D01*
X24420Y31920D02*
X24460D01*
X24500Y31960D01*
X24540Y31920D01*
X24580D01*
Y31960D01*
X24540Y32000D01*
X24580Y32040D01*
Y32080D01*
X24540D01*
X24500Y32040D01*
X24460Y32080D01*
X24420D01*
Y32040D01*
X24460Y32000D01*
X24420Y31960D01*
Y31920D01*
X23420Y39920D02*
X23460D01*
X23500Y39960D01*
X23540Y39920D01*
X23580D01*
Y39960D01*
X23540Y40000D01*
X23580Y40040D01*
Y40080D01*
X23540D01*
X23500Y40040D01*
X23460Y40080D01*
X23420D01*
Y40040D01*
X23460Y40000D01*
X23420Y39960D01*
Y39920D01*
X22920Y36920D02*
X22960D01*
X23000Y36960D01*
X23040Y36920D01*
X23080D01*
Y36960D01*
X23040Y37000D01*
X23080Y37040D01*
Y37080D01*
X23040D01*
X23000Y37040D01*
X22960Y37080D01*
X22920D01*
Y37040D01*
X22960Y37000D01*
X22920Y36960D01*
Y36920D01*
X23420Y35920D02*
X23460D01*
X23500Y35960D01*
X23540Y35920D01*
X23580D01*
Y35960D01*
X23540Y36000D01*
X23580Y36040D01*
Y36080D01*
X23540D01*
X23500Y36040D01*
X23460Y36080D01*
X23420D01*
Y36040D01*
X23460Y36000D01*
X23420Y35960D01*
Y35920D01*
X22920Y34920D02*
X22960D01*
X23000Y34960D01*
X23040Y34920D01*
X23080D01*
Y34960D01*
X23040Y35000D01*
X23080Y35040D01*
Y35080D01*
X23040D01*
X23000Y35040D01*
X22960Y35080D01*
X22920D01*
Y35040D01*
X22960Y35000D01*
X22920Y34960D01*
Y34920D01*
Y32920D02*
X22960D01*
X23000Y32960D01*
X23040Y32920D01*
X23080D01*
Y32960D01*
X23040Y33000D01*
X23080Y33040D01*
Y33080D01*
X23040D01*
X23000Y33040D01*
X22960Y33080D01*
X22920D01*
Y33040D01*
X22960Y33000D01*
X22920Y32960D01*
Y32920D01*
X23420Y31920D02*
X23460D01*
X23500Y31960D01*
X23540Y31920D01*
X23580D01*
Y31960D01*
X23540Y32000D01*
X23580Y32040D01*
Y32080D01*
X23540D01*
X23500Y32040D01*
X23460Y32080D01*
X23420D01*
Y32040D01*
X23460Y32000D01*
X23420Y31960D01*
Y31920D01*
X22420Y39920D02*
X22460D01*
X22500Y39960D01*
X22540Y39920D01*
X22580D01*
Y39960D01*
X22540Y40000D01*
X22580Y40040D01*
Y40080D01*
X22540D01*
X22500Y40040D01*
X22460Y40080D01*
X22420D01*
Y40040D01*
X22460Y40000D01*
X22420Y39960D01*
Y39920D01*
X21920Y38920D02*
X21960D01*
X22000Y38960D01*
X22040Y38920D01*
X22080D01*
Y38960D01*
X22040Y39000D01*
X22080Y39040D01*
Y39080D01*
X22040D01*
X22000Y39040D01*
X21960Y39080D01*
X21920D01*
Y39040D01*
X21960Y39000D01*
X21920Y38960D01*
Y38920D01*
X22420Y37920D02*
X22460D01*
X22500Y37960D01*
X22540Y37920D01*
X22580D01*
Y37960D01*
X22540Y38000D01*
X22580Y38040D01*
Y38080D01*
X22540D01*
X22500Y38040D01*
X22460Y38080D01*
X22420D01*
Y38040D01*
X22460Y38000D01*
X22420Y37960D01*
Y37920D01*
X21920Y36920D02*
X21960D01*
X22000Y36960D01*
X22040Y36920D01*
X22080D01*
Y36960D01*
X22040Y37000D01*
X22080Y37040D01*
Y37080D01*
X22040D01*
X22000Y37040D01*
X21960Y37080D01*
X21920D01*
Y37040D01*
X21960Y37000D01*
X21920Y36960D01*
Y36920D01*
X22420Y35920D02*
X22460D01*
X22500Y35960D01*
X22540Y35920D01*
X22580D01*
Y35960D01*
X22540Y36000D01*
X22580Y36040D01*
Y36080D01*
X22540D01*
X22500Y36040D01*
X22460Y36080D01*
X22420D01*
Y36040D01*
X22460Y36000D01*
X22420Y35960D01*
Y35920D01*
X21920Y34920D02*
X21960D01*
X22000Y34960D01*
X22040Y34920D01*
X22080D01*
Y34960D01*
X22040Y35000D01*
X22080Y35040D01*
Y35080D01*
X22040D01*
X22000Y35040D01*
X21960Y35080D01*
X21920D01*
Y35040D01*
X21960Y35000D01*
X21920Y34960D01*
Y34920D01*
Y30920D02*
X21960D01*
X22000Y30960D01*
X22040Y30920D01*
X22080D01*
Y30960D01*
X22040Y31000D01*
X22080Y31040D01*
Y31080D01*
X22040D01*
X22000Y31040D01*
X21960Y31080D01*
X21920D01*
Y31040D01*
X21960Y31000D01*
X21920Y30960D01*
Y30920D01*
X20920Y38920D02*
X20960D01*
X21000Y38960D01*
X21040Y38920D01*
X21080D01*
Y38960D01*
X21040Y39000D01*
X21080Y39040D01*
Y39080D01*
X21040D01*
X21000Y39040D01*
X20960Y39080D01*
X20920D01*
Y39040D01*
X20960Y39000D01*
X20920Y38960D01*
Y38920D01*
Y36920D02*
X20960D01*
X21000Y36960D01*
X21040Y36920D01*
X21080D01*
Y36960D01*
X21040Y37000D01*
X21080Y37040D01*
Y37080D01*
X21040D01*
X21000Y37040D01*
X20960Y37080D01*
X20920D01*
Y37040D01*
X20960Y37000D01*
X20920Y36960D01*
Y36920D01*
X20420Y41920D02*
X20460D01*
X20500Y41960D01*
X20540Y41920D01*
X20580D01*
Y41960D01*
X20540Y42000D01*
X20580Y42040D01*
Y42080D01*
X20540D01*
X20500Y42040D01*
X20460Y42080D01*
X20420D01*
Y42040D01*
X20460Y42000D01*
X20420Y41960D01*
Y41920D01*
X19920Y40920D02*
X19960D01*
X20000Y40960D01*
X20040Y40920D01*
X20080D01*
Y40960D01*
X20040Y41000D01*
X20080Y41040D01*
Y41080D01*
X20040D01*
X20000Y41040D01*
X19960Y41080D01*
X19920D01*
Y41040D01*
X19960Y41000D01*
X19920Y40960D01*
Y40920D01*
Y38920D02*
X19960D01*
X20000Y38960D01*
X20040Y38920D01*
X20080D01*
Y38960D01*
X20040Y39000D01*
X20080Y39040D01*
Y39080D01*
X20040D01*
X20000Y39040D01*
X19960Y39080D01*
X19920D01*
Y39040D01*
X19960Y39000D01*
X19920Y38960D01*
Y38920D01*
X20420Y37920D02*
X20460D01*
X20500Y37960D01*
X20540Y37920D01*
X20580D01*
Y37960D01*
X20540Y38000D01*
X20580Y38040D01*
Y38080D01*
X20540D01*
X20500Y38040D01*
X20460Y38080D01*
X20420D01*
Y38040D01*
X20460Y38000D01*
X20420Y37960D01*
Y37920D01*
X19920Y36920D02*
X19960D01*
X20000Y36960D01*
X20040Y36920D01*
X20080D01*
Y36960D01*
X20040Y37000D01*
X20080Y37040D01*
Y37080D01*
X20040D01*
X20000Y37040D01*
X19960Y37080D01*
X19920D01*
Y37040D01*
X19960Y37000D01*
X19920Y36960D01*
Y36920D01*
X20420Y35920D02*
X20460D01*
X20500Y35960D01*
X20540Y35920D01*
X20580D01*
Y35960D01*
X20540Y36000D01*
X20580Y36040D01*
Y36080D01*
X20540D01*
X20500Y36040D01*
X20460Y36080D01*
X20420D01*
Y36040D01*
X20460Y36000D01*
X20420Y35960D01*
Y35920D01*
X19920Y34920D02*
X19960D01*
X20000Y34960D01*
X20040Y34920D01*
X20080D01*
Y34960D01*
X20040Y35000D01*
X20080Y35040D01*
Y35080D01*
X20040D01*
X20000Y35040D01*
X19960Y35080D01*
X19920D01*
Y35040D01*
X19960Y35000D01*
X19920Y34960D01*
Y34920D01*
Y30920D02*
X19960D01*
X20000Y30960D01*
X20040Y30920D01*
X20080D01*
Y30960D01*
X20040Y31000D01*
X20080Y31040D01*
Y31080D01*
X20040D01*
X20000Y31040D01*
X19960Y31080D01*
X19920D01*
Y31040D01*
X19960Y31000D01*
X19920Y30960D01*
Y30920D01*
X18920Y38920D02*
X18960D01*
X19000Y38960D01*
X19040Y38920D01*
X19080D01*
Y38960D01*
X19040Y39000D01*
X19080Y39040D01*
Y39080D01*
X19040D01*
X19000Y39040D01*
X18960Y39080D01*
X18920D01*
Y39040D01*
X18960Y39000D01*
X18920Y38960D01*
Y38920D01*
X19420Y37920D02*
X19460D01*
X19500Y37960D01*
X19540Y37920D01*
X19580D01*
Y37960D01*
X19540Y38000D01*
X19580Y38040D01*
Y38080D01*
X19540D01*
X19500Y38040D01*
X19460Y38080D01*
X19420D01*
Y38040D01*
X19460Y38000D01*
X19420Y37960D01*
Y37920D01*
X18920Y36920D02*
X18960D01*
X19000Y36960D01*
X19040Y36920D01*
X19080D01*
Y36960D01*
X19040Y37000D01*
X19080Y37040D01*
Y37080D01*
X19040D01*
X19000Y37040D01*
X18960Y37080D01*
X18920D01*
Y37040D01*
X18960Y37000D01*
X18920Y36960D01*
Y36920D01*
X19420Y35920D02*
X19460D01*
X19500Y35960D01*
X19540Y35920D01*
X19580D01*
Y35960D01*
X19540Y36000D01*
X19580Y36040D01*
Y36080D01*
X19540D01*
X19500Y36040D01*
X19460Y36080D01*
X19420D01*
Y36040D01*
X19460Y36000D01*
X19420Y35960D01*
Y35920D01*
X18920Y34920D02*
X18960D01*
X19000Y34960D01*
X19040Y34920D01*
X19080D01*
Y34960D01*
X19040Y35000D01*
X19080Y35040D01*
Y35080D01*
X19040D01*
X19000Y35040D01*
X18960Y35080D01*
X18920D01*
Y35040D01*
X18960Y35000D01*
X18920Y34960D01*
Y34920D01*
X19420Y33920D02*
X19460D01*
X19500Y33960D01*
X19540Y33920D01*
X19580D01*
Y33960D01*
X19540Y34000D01*
X19580Y34040D01*
Y34080D01*
X19540D01*
X19500Y34040D01*
X19460Y34080D01*
X19420D01*
Y34040D01*
X19460Y34000D01*
X19420Y33960D01*
Y33920D01*
X17920Y40920D02*
X17960D01*
X18000Y40960D01*
X18040Y40920D01*
X18080D01*
Y40960D01*
X18040Y41000D01*
X18080Y41040D01*
Y41080D01*
X18040D01*
X18000Y41040D01*
X17960Y41080D01*
X17920D01*
Y41040D01*
X17960Y41000D01*
X17920Y40960D01*
Y40920D01*
Y38920D02*
X17960D01*
X18000Y38960D01*
X18040Y38920D01*
X18080D01*
Y38960D01*
X18040Y39000D01*
X18080Y39040D01*
Y39080D01*
X18040D01*
X18000Y39040D01*
X17960Y39080D01*
X17920D01*
Y39040D01*
X17960Y39000D01*
X17920Y38960D01*
Y38920D01*
X18420Y37920D02*
X18460D01*
X18500Y37960D01*
X18540Y37920D01*
X18580D01*
Y37960D01*
X18540Y38000D01*
X18580Y38040D01*
Y38080D01*
X18540D01*
X18500Y38040D01*
X18460Y38080D01*
X18420D01*
Y38040D01*
X18460Y38000D01*
X18420Y37960D01*
Y37920D01*
X17920Y36920D02*
X17960D01*
X18000Y36960D01*
X18040Y36920D01*
X18080D01*
Y36960D01*
X18040Y37000D01*
X18080Y37040D01*
Y37080D01*
X18040D01*
X18000Y37040D01*
X17960Y37080D01*
X17920D01*
Y37040D01*
X17960Y37000D01*
X17920Y36960D01*
Y36920D01*
X18420Y35920D02*
X18460D01*
X18500Y35960D01*
X18540Y35920D01*
X18580D01*
Y35960D01*
X18540Y36000D01*
X18580Y36040D01*
Y36080D01*
X18540D01*
X18500Y36040D01*
X18460Y36080D01*
X18420D01*
Y36040D01*
X18460Y36000D01*
X18420Y35960D01*
Y35920D01*
X17920Y34920D02*
X17960D01*
X18000Y34960D01*
X18040Y34920D01*
X18080D01*
Y34960D01*
X18040Y35000D01*
X18080Y35040D01*
Y35080D01*
X18040D01*
X18000Y35040D01*
X17960Y35080D01*
X17920D01*
Y35040D01*
X17960Y35000D01*
X17920Y34960D01*
Y34920D01*
X18420Y33920D02*
X18460D01*
X18500Y33960D01*
X18540Y33920D01*
X18580D01*
Y33960D01*
X18540Y34000D01*
X18580Y34040D01*
Y34080D01*
X18540D01*
X18500Y34040D01*
X18460Y34080D01*
X18420D01*
Y34040D01*
X18460Y34000D01*
X18420Y33960D01*
Y33920D01*
X17920Y32920D02*
X17960D01*
X18000Y32960D01*
X18040Y32920D01*
X18080D01*
Y32960D01*
X18040Y33000D01*
X18080Y33040D01*
Y33080D01*
X18040D01*
X18000Y33040D01*
X17960Y33080D01*
X17920D01*
Y33040D01*
X17960Y33000D01*
X17920Y32960D01*
Y32920D01*
Y30920D02*
X17960D01*
X18000Y30960D01*
X18040Y30920D01*
X18080D01*
Y30960D01*
X18040Y31000D01*
X18080Y31040D01*
Y31080D01*
X18040D01*
X18000Y31040D01*
X17960Y31080D01*
X17920D01*
Y31040D01*
X17960Y31000D01*
X17920Y30960D01*
Y30920D01*
X30520Y35270D02*
X30560D01*
X30600Y35310D01*
X30640Y35270D01*
X30680D01*
Y35310D01*
X30640Y35350D01*
X30680Y35390D01*
Y35430D01*
X30640D01*
X30600Y35390D01*
X30560Y35430D01*
X30520D01*
Y35390D01*
X30560Y35350D01*
X30520Y35310D01*
Y35270D01*
X26720Y40320D02*
X26760D01*
X26800Y40360D01*
X26840Y40320D01*
X26880D01*
Y40360D01*
X26840Y40400D01*
X26880Y40440D01*
Y40480D01*
X26840D01*
X26800Y40440D01*
X26760Y40480D01*
X26720D01*
Y40440D01*
X26760Y40400D01*
X26720Y40360D01*
Y40320D01*
X46623Y36286D02*
X46663D01*
X46703Y36326D01*
X46743Y36286D01*
X46783D01*
Y36326D01*
X46743Y36366D01*
X46783Y36406D01*
Y36446D01*
X46743D01*
X46703Y36406D01*
X46663Y36446D01*
X46623D01*
Y36406D01*
X46663Y36366D01*
X46623Y36326D01*
Y36286D01*
X35009Y37497D02*
X35049D01*
X35089Y37537D01*
X35129Y37497D01*
X35169D01*
Y37537D01*
X35129Y37577D01*
X35169Y37617D01*
Y37657D01*
X35129D01*
X35089Y37617D01*
X35049Y37657D01*
X35009D01*
Y37617D01*
X35049Y37577D01*
X35009Y37537D01*
Y37497D01*
X33257Y36524D02*
X33297D01*
X33337Y36564D01*
X33377Y36524D01*
X33417D01*
Y36564D01*
X33377Y36604D01*
X33417Y36644D01*
Y36684D01*
X33377D01*
X33337Y36644D01*
X33297Y36684D01*
X33257D01*
Y36644D01*
X33297Y36604D01*
X33257Y36564D01*
Y36524D01*
X32561Y35343D02*
X32601D01*
X32641Y35383D01*
X32681Y35343D01*
X32721D01*
Y35383D01*
X32681Y35423D01*
X32721Y35463D01*
Y35503D01*
X32681D01*
X32641Y35463D01*
X32601Y35503D01*
X32561D01*
Y35463D01*
X32601Y35423D01*
X32561Y35383D01*
Y35343D01*
X27442Y41971D02*
X27482D01*
X27522Y42011D01*
X27562Y41971D01*
X27602D01*
Y42011D01*
X27562Y42051D01*
X27602Y42091D01*
Y42131D01*
X27562D01*
X27522Y42091D01*
X27482Y42131D01*
X27442D01*
Y42091D01*
X27482Y42051D01*
X27442Y42011D01*
Y41971D01*
X24620Y42521D02*
X24660D01*
X24700Y42561D01*
X24740Y42521D01*
X24780D01*
Y42561D01*
X24740Y42601D01*
X24780Y42641D01*
Y42681D01*
X24740D01*
X24700Y42641D01*
X24660Y42681D01*
X24620D01*
Y42641D01*
X24660Y42601D01*
X24620Y42561D01*
Y42521D01*
X35220Y35829D02*
X35260D01*
X35300Y35869D01*
X35340Y35829D01*
X35380D01*
Y35869D01*
X35340Y35909D01*
X35380Y35949D01*
Y35989D01*
X35340D01*
X35300Y35949D01*
X35260Y35989D01*
X35220D01*
Y35949D01*
X35260Y35909D01*
X35220Y35869D01*
Y35829D01*
X35070Y39620D02*
X35110D01*
X35150Y39660D01*
X35190Y39620D01*
X35230D01*
Y39660D01*
X35190Y39700D01*
X35230Y39740D01*
Y39780D01*
X35190D01*
X35150Y39740D01*
X35110Y39780D01*
X35070D01*
Y39740D01*
X35110Y39700D01*
X35070Y39660D01*
Y39620D01*
X32504Y38120D02*
X32544D01*
X32584Y38160D01*
X32624Y38120D01*
X32664D01*
Y38160D01*
X32624Y38200D01*
X32664Y38240D01*
Y38280D01*
X32624D01*
X32584Y38240D01*
X32544Y38280D01*
X32504D01*
Y38240D01*
X32544Y38200D01*
X32504Y38160D01*
Y38120D01*
X32220Y38420D02*
X32260D01*
X32300Y38460D01*
X32340Y38420D01*
X32380D01*
Y38460D01*
X32340Y38500D01*
X32380Y38540D01*
Y38580D01*
X32340D01*
X32300Y38540D01*
X32260Y38580D01*
X32220D01*
Y38540D01*
X32260Y38500D01*
X32220Y38460D01*
Y38420D01*
X32120Y38870D02*
X32160D01*
X32200Y38910D01*
X32240Y38870D01*
X32280D01*
Y38910D01*
X32240Y38950D01*
X32280Y38990D01*
Y39030D01*
X32240D01*
X32200Y38990D01*
X32160Y39030D01*
X32120D01*
Y38990D01*
X32160Y38950D01*
X32120Y38910D01*
Y38870D01*
X33620Y35982D02*
X33660D01*
X33700Y36022D01*
X33740Y35982D01*
X33780D01*
Y36022D01*
X33740Y36062D01*
X33780Y36102D01*
Y36142D01*
X33740D01*
X33700Y36102D01*
X33660Y36142D01*
X33620D01*
Y36102D01*
X33660Y36062D01*
X33620Y36022D01*
Y35982D01*
X33520Y35417D02*
X33560D01*
X33600Y35457D01*
X33640Y35417D01*
X33680D01*
Y35457D01*
X33640Y35497D01*
X33680Y35537D01*
Y35577D01*
X33640D01*
X33600Y35537D01*
X33560Y35577D01*
X33520D01*
Y35537D01*
X33560Y35497D01*
X33520Y35457D01*
Y35417D01*
X32193Y37670D02*
X32233D01*
X32273Y37710D01*
X32313Y37670D01*
X32353D01*
Y37710D01*
X32313Y37750D01*
X32353Y37790D01*
Y37830D01*
X32313D01*
X32273Y37790D01*
X32233Y37830D01*
X32193D01*
Y37790D01*
X32233Y37750D01*
X32193Y37710D01*
Y37670D01*
X31370Y37829D02*
X31410D01*
X31450Y37869D01*
X31490Y37829D01*
X31530D01*
Y37869D01*
X31490Y37909D01*
X31530Y37949D01*
Y37989D01*
X31490D01*
X31450Y37949D01*
X31410Y37989D01*
X31370D01*
Y37949D01*
X31410Y37909D01*
X31370Y37869D01*
Y37829D01*
X26487Y38892D02*
X26527D01*
X26567Y38932D01*
X26607Y38892D01*
X26647D01*
Y38932D01*
X26607Y38972D01*
X26647Y39012D01*
Y39052D01*
X26607D01*
X26567Y39012D01*
X26527Y39052D01*
X26487D01*
Y39012D01*
X26527Y38972D01*
X26487Y38932D01*
Y38892D01*
X27882Y41674D02*
X27922D01*
X27962Y41714D01*
X28002Y41674D01*
X28042D01*
Y41714D01*
X28002Y41754D01*
X28042Y41794D01*
Y41834D01*
X28002D01*
X27962Y41794D01*
X27922Y41834D01*
X27882D01*
Y41794D01*
X27922Y41754D01*
X27882Y41714D01*
Y41674D01*
X23737Y41703D02*
X23777D01*
X23817Y41743D01*
X23857Y41703D01*
X23897D01*
Y41743D01*
X23857Y41783D01*
X23897Y41823D01*
Y41863D01*
X23857D01*
X23817Y41823D01*
X23777Y41863D01*
X23737D01*
Y41823D01*
X23777Y41783D01*
X23737Y41743D01*
Y41703D01*
X34250Y35406D02*
X34290D01*
X34330Y35446D01*
X34370Y35406D01*
X34410D01*
Y35446D01*
X34370Y35486D01*
X34410Y35526D01*
Y35566D01*
X34370D01*
X34330Y35526D01*
X34290Y35566D01*
X34250D01*
Y35526D01*
X34290Y35486D01*
X34250Y35446D01*
Y35406D01*
X33907D02*
X33947D01*
X33987Y35446D01*
X34027Y35406D01*
X34067D01*
Y35446D01*
X34027Y35486D01*
X34067Y35526D01*
Y35566D01*
X34027D01*
X33987Y35526D01*
X33947Y35566D01*
X33907D01*
Y35526D01*
X33947Y35486D01*
X33907Y35446D01*
Y35406D01*
X33420Y36220D02*
X33460D01*
X33500Y36260D01*
X33540Y36220D01*
X33580D01*
Y36260D01*
X33540Y36300D01*
X33580Y36340D01*
Y36380D01*
X33540D01*
X33500Y36340D01*
X33460Y36380D01*
X33420D01*
Y36340D01*
X33460Y36300D01*
X33420Y36260D01*
Y36220D01*
X31856Y37870D02*
X31896D01*
X31936Y37910D01*
X31976Y37870D01*
X32016D01*
Y37910D01*
X31976Y37950D01*
X32016Y37990D01*
Y38030D01*
X31976D01*
X31936Y37990D01*
X31896Y38030D01*
X31856D01*
Y37990D01*
X31896Y37950D01*
X31856Y37910D01*
Y37870D01*
X29820Y37334D02*
X29860D01*
X29900Y37374D01*
X29940Y37334D01*
X29980D01*
Y37374D01*
X29940Y37414D01*
X29980Y37454D01*
Y37494D01*
X29940D01*
X29900Y37454D01*
X29860Y37494D01*
X29820D01*
Y37454D01*
X29860Y37414D01*
X29820Y37374D01*
Y37334D01*
X30197Y37510D02*
X30237D01*
X30277Y37550D01*
X30317Y37510D01*
X30357D01*
Y37550D01*
X30317Y37590D01*
X30357Y37630D01*
Y37670D01*
X30317D01*
X30277Y37630D01*
X30237Y37670D01*
X30197D01*
Y37630D01*
X30237Y37590D01*
X30197Y37550D01*
Y37510D01*
X25645Y30195D02*
X25685D01*
X25725Y30235D01*
X25765Y30195D01*
X25805D01*
Y30235D01*
X25765Y30275D01*
X25805Y30315D01*
Y30355D01*
X25765D01*
X25725Y30315D01*
X25685Y30355D01*
X25645D01*
Y30315D01*
X25685Y30275D01*
X25645Y30235D01*
Y30195D01*
X26120Y39188D02*
X26160D01*
X26200Y39228D01*
X26240Y39188D01*
X26280D01*
Y39228D01*
X26240Y39268D01*
X26280Y39308D01*
Y39348D01*
X26240D01*
X26200Y39308D01*
X26160Y39348D01*
X26120D01*
Y39308D01*
X26160Y39268D01*
X26120Y39228D01*
Y39188D01*
X35008Y36220D02*
X35048D01*
X35088Y36260D01*
X35128Y36220D01*
X35168D01*
Y36260D01*
X35128Y36300D01*
X35168Y36340D01*
Y36380D01*
X35128D01*
X35088Y36340D01*
X35048Y36380D01*
X35008D01*
Y36340D01*
X35048Y36300D01*
X35008Y36260D01*
Y36220D01*
X44767Y40456D02*
X44807D01*
X44847Y40496D01*
X44887Y40456D01*
X44927D01*
Y40496D01*
X44887Y40536D01*
X44927Y40576D01*
Y40616D01*
X44887D01*
X44847Y40576D01*
X44807Y40616D01*
X44767D01*
Y40576D01*
X44807Y40536D01*
X44767Y40496D01*
Y40456D01*
X24720Y32669D02*
X24760D01*
X24800Y32709D01*
X24840Y32669D01*
X24880D01*
Y32709D01*
X24840Y32749D01*
X24880Y32789D01*
Y32829D01*
X24840D01*
X24800Y32789D01*
X24760Y32829D01*
X24720D01*
Y32789D01*
X24760Y32749D01*
X24720Y32709D01*
Y32669D01*
X37070Y41070D02*
X37110D01*
X37150Y41110D01*
X37190Y41070D01*
X37230D01*
Y41110D01*
X37190Y41150D01*
X37230Y41190D01*
Y41230D01*
X37190D01*
X37150Y41190D01*
X37110Y41230D01*
X37070D01*
Y41190D01*
X37110Y41150D01*
X37070Y41110D01*
Y41070D01*
Y41420D02*
X37110D01*
X37150Y41460D01*
X37190Y41420D01*
X37230D01*
Y41460D01*
X37190Y41500D01*
X37230Y41540D01*
Y41580D01*
X37190D01*
X37150Y41540D01*
X37110Y41580D01*
X37070D01*
Y41540D01*
X37110Y41500D01*
X37070Y41460D01*
Y41420D01*
X36970Y40701D02*
X37010D01*
X37050Y40742D01*
X37090Y40701D01*
X37130D01*
Y40742D01*
X37090Y40781D01*
X37130Y40821D01*
Y40862D01*
X37090D01*
X37050Y40821D01*
X37010Y40862D01*
X36970D01*
Y40821D01*
X37010Y40781D01*
X36970Y40742D01*
Y40701D01*
X37377D02*
X37417D01*
X37457Y40742D01*
X37497Y40701D01*
X37537D01*
Y40742D01*
X37497Y40781D01*
X37537Y40821D01*
Y40862D01*
X37497D01*
X37457Y40821D01*
X37417Y40862D01*
X37377D01*
Y40821D01*
X37417Y40781D01*
X37377Y40742D01*
Y40701D01*
X44767Y41820D02*
X44807D01*
X44847Y41860D01*
X44887Y41820D01*
X44927D01*
Y41860D01*
X44887Y41900D01*
X44927Y41940D01*
Y41980D01*
X44887D01*
X44847Y41940D01*
X44807Y41980D01*
X44767D01*
Y41940D01*
X44807Y41900D01*
X44767Y41860D01*
Y41820D01*
X42620Y30470D02*
X42660D01*
X42700Y30510D01*
X42740Y30470D01*
X42780D01*
Y30510D01*
X42740Y30550D01*
X42780Y30590D01*
Y30630D01*
X42740D01*
X42700Y30590D01*
X42660Y30630D01*
X42620D01*
Y30590D01*
X42660Y30550D01*
X42620Y30510D01*
Y30470D01*
X42270D02*
X42310D01*
X42350Y30510D01*
X42390Y30470D01*
X42430D01*
Y30510D01*
X42390Y30550D01*
X42430Y30590D01*
Y30630D01*
X42390D01*
X42350Y30590D01*
X42310Y30630D01*
X42270D01*
Y30590D01*
X42310Y30550D01*
X42270Y30510D01*
Y30470D01*
X41920D02*
X41960D01*
X42000Y30510D01*
X42040Y30470D01*
X42080D01*
Y30510D01*
X42040Y30550D01*
X42080Y30590D01*
Y30630D01*
X42040D01*
X42000Y30590D01*
X41960Y30630D01*
X41920D01*
Y30590D01*
X41960Y30550D01*
X41920Y30510D01*
Y30470D01*
X41570D02*
X41610D01*
X41650Y30510D01*
X41690Y30470D01*
X41730D01*
Y30510D01*
X41690Y30550D01*
X41730Y30590D01*
Y30630D01*
X41690D01*
X41650Y30590D01*
X41610Y30630D01*
X41570D01*
Y30590D01*
X41610Y30550D01*
X41570Y30510D01*
Y30470D01*
X42620Y30820D02*
X42660D01*
X42700Y30860D01*
X42740Y30820D01*
X42780D01*
Y30860D01*
X42740Y30900D01*
X42780Y30940D01*
Y30980D01*
X42740D01*
X42700Y30940D01*
X42660Y30980D01*
X42620D01*
Y30940D01*
X42660Y30900D01*
X42620Y30860D01*
Y30820D01*
X42270D02*
X42310D01*
X42350Y30860D01*
X42390Y30820D01*
X42430D01*
Y30860D01*
X42390Y30900D01*
X42430Y30940D01*
Y30980D01*
X42390D01*
X42350Y30940D01*
X42310Y30980D01*
X42270D01*
Y30940D01*
X42310Y30900D01*
X42270Y30860D01*
Y30820D01*
X41920D02*
X41960D01*
X42000Y30860D01*
X42040Y30820D01*
X42080D01*
Y30860D01*
X42040Y30900D01*
X42080Y30940D01*
Y30980D01*
X42040D01*
X42000Y30940D01*
X41960Y30980D01*
X41920D01*
Y30940D01*
X41960Y30900D01*
X41920Y30860D01*
Y30820D01*
X41570D02*
X41610D01*
X41650Y30860D01*
X41690Y30820D01*
X41730D01*
Y30860D01*
X41690Y30900D01*
X41730Y30940D01*
Y30980D01*
X41690D01*
X41650Y30940D01*
X41610Y30980D01*
X41570D01*
Y30940D01*
X41610Y30900D01*
X41570Y30860D01*
Y30820D01*
X34974Y37770D02*
X35014D01*
X35054Y37810D01*
X35094Y37770D01*
X35134D01*
Y37810D01*
X35094Y37850D01*
X35134Y37890D01*
Y37930D01*
X35094D01*
X35054Y37890D01*
X35014Y37930D01*
X34974D01*
Y37890D01*
X35014Y37850D01*
X34974Y37810D01*
Y37770D01*
Y38824D02*
X35014D01*
X35054Y38864D01*
X35094Y38824D01*
X35134D01*
Y38864D01*
X35094Y38904D01*
X35134Y38944D01*
Y38984D01*
X35094D01*
X35054Y38944D01*
X35014Y38984D01*
X34974D01*
Y38944D01*
X35014Y38904D01*
X34974Y38864D01*
Y38824D01*
X35220Y39070D02*
X35260D01*
X35300Y39110D01*
X35340Y39070D01*
X35380D01*
Y39110D01*
X35340Y39150D01*
X35380Y39190D01*
Y39230D01*
X35340D01*
X35300Y39190D01*
X35260Y39230D01*
X35220D01*
Y39190D01*
X35260Y39150D01*
X35220Y39110D01*
Y39070D01*
X21220Y39720D02*
X21260D01*
X21300Y39760D01*
X21340Y39720D01*
X21380D01*
Y39760D01*
X21340Y39800D01*
X21380Y39840D01*
Y39880D01*
X21340D01*
X21300Y39840D01*
X21260Y39880D01*
X21220D01*
Y39840D01*
X21260Y39800D01*
X21220Y39760D01*
Y39720D01*
X38220Y35270D02*
X38260D01*
X38300Y35310D01*
X38340Y35270D01*
X38380D01*
Y35310D01*
X38340Y35350D01*
X38380Y35390D01*
Y35430D01*
X38340D01*
X38300Y35390D01*
X38260Y35430D01*
X38220D01*
Y35390D01*
X38260Y35350D01*
X38220Y35310D01*
Y35270D01*
X31370Y39020D02*
X31410D01*
X31450Y39060D01*
X31490Y39020D01*
X31530D01*
Y39060D01*
X31490Y39100D01*
X31530Y39140D01*
Y39180D01*
X31490D01*
X31450Y39140D01*
X31410Y39180D01*
X31370D01*
Y39140D01*
X31410Y39100D01*
X31370Y39060D01*
Y39020D01*
X31420Y41320D02*
X31460D01*
X31500Y41360D01*
X31540Y41320D01*
X31580D01*
Y41360D01*
X31540Y41400D01*
X31580Y41440D01*
Y41480D01*
X31540D01*
X31500Y41440D01*
X31460Y41480D01*
X31420D01*
Y41440D01*
X31460Y41400D01*
X31420Y41360D01*
Y41320D01*
X21420Y32414D02*
X21460D01*
X21500Y32454D01*
X21540Y32414D01*
X21580D01*
Y32454D01*
X21540Y32494D01*
X21580Y32534D01*
Y32574D01*
X21540D01*
X21500Y32534D01*
X21460Y32574D01*
X21420D01*
Y32534D01*
X21460Y32494D01*
X21420Y32454D01*
Y32414D01*
X33135Y34005D02*
X33175D01*
X33215Y34045D01*
X33255Y34005D01*
X33295D01*
Y34045D01*
X33255Y34085D01*
X33295Y34125D01*
Y34165D01*
X33255D01*
X33215Y34125D01*
X33175Y34165D01*
X33135D01*
Y34125D01*
X33175Y34085D01*
X33135Y34045D01*
Y34005D01*
X33151Y31920D02*
X33191D01*
X33231Y31960D01*
X33271Y31920D01*
X33311D01*
Y31960D01*
X33271Y32000D01*
X33311Y32040D01*
Y32080D01*
X33271D01*
X33231Y32040D01*
X33191Y32080D01*
X33151D01*
Y32040D01*
X33191Y32000D01*
X33151Y31960D01*
Y31920D01*
X32320D02*
X32360D01*
X32400Y31960D01*
X32440Y31920D01*
X32480D01*
Y31960D01*
X32440Y32000D01*
X32480Y32040D01*
Y32080D01*
X32440D01*
X32400Y32040D01*
X32360Y32080D01*
X32320D01*
Y32040D01*
X32360Y32000D01*
X32320Y31960D01*
Y31920D01*
X40070Y42504D02*
X40110D01*
X40150Y42544D01*
X40190Y42504D01*
X40230D01*
Y42544D01*
X40190Y42584D01*
X40230Y42624D01*
Y42664D01*
X40190D01*
X40150Y42624D01*
X40110Y42664D01*
X40070D01*
Y42624D01*
X40110Y42584D01*
X40070Y42544D01*
Y42504D01*
X39770D02*
X39810D01*
X39850Y42544D01*
X39890Y42504D01*
X39930D01*
Y42544D01*
X39890Y42584D01*
X39930Y42624D01*
Y42664D01*
X39890D01*
X39850Y42624D01*
X39810Y42664D01*
X39770D01*
Y42624D01*
X39810Y42584D01*
X39770Y42544D01*
Y42504D01*
X40070Y42804D02*
X40110D01*
X40150Y42844D01*
X40190Y42804D01*
X40230D01*
Y42844D01*
X40190Y42884D01*
X40230Y42924D01*
Y42964D01*
X40190D01*
X40150Y42924D01*
X40110Y42964D01*
X40070D01*
Y42924D01*
X40110Y42884D01*
X40070Y42844D01*
Y42804D01*
X39770D02*
X39810D01*
X39850Y42844D01*
X39890Y42804D01*
X39930D01*
Y42844D01*
X39890Y42884D01*
X39930Y42924D01*
Y42964D01*
X39890D01*
X39850Y42924D01*
X39810Y42964D01*
X39770D01*
Y42924D01*
X39810Y42884D01*
X39770Y42844D01*
Y42804D01*
X40386Y39770D02*
X40426D01*
X40466Y39810D01*
X40506Y39770D01*
X40546D01*
Y39810D01*
X40506Y39850D01*
X40546Y39890D01*
Y39930D01*
X40506D01*
X40466Y39890D01*
X40426Y39930D01*
X40386D01*
Y39890D01*
X40426Y39850D01*
X40386Y39810D01*
Y39770D01*
X40870D02*
X40910D01*
X40950Y39810D01*
X40990Y39770D01*
X41030D01*
Y39810D01*
X40990Y39850D01*
X41030Y39890D01*
Y39930D01*
X40990D01*
X40950Y39890D01*
X40910Y39930D01*
X40870D01*
Y39890D01*
X40910Y39850D01*
X40870Y39810D01*
Y39770D01*
Y40120D02*
X40910D01*
X40950Y40160D01*
X40990Y40120D01*
X41030D01*
Y40160D01*
X40990Y40200D01*
X41030Y40240D01*
Y40280D01*
X40990D01*
X40950Y40240D01*
X40910Y40280D01*
X40870D01*
Y40240D01*
X40910Y40200D01*
X40870Y40160D01*
Y40120D01*
X40395D02*
X40435D01*
X40475Y40160D01*
X40515Y40120D01*
X40555D01*
Y40160D01*
X40515Y40200D01*
X40555Y40240D01*
Y40280D01*
X40515D01*
X40475Y40240D01*
X40435Y40280D01*
X40395D01*
Y40240D01*
X40435Y40200D01*
X40395Y40160D01*
Y40120D01*
X21020Y33120D02*
X21060D01*
X21100Y33160D01*
X21140Y33120D01*
X21180D01*
Y33160D01*
X21140Y33200D01*
X21180Y33240D01*
Y33280D01*
X21140D01*
X21100Y33240D01*
X21060Y33280D01*
X21020D01*
Y33240D01*
X21060Y33200D01*
X21020Y33160D01*
Y33120D01*
X21226Y35176D02*
X21266D01*
X21306Y35216D01*
X21346Y35176D01*
X21386D01*
Y35216D01*
X21346Y35256D01*
X21386Y35296D01*
Y35336D01*
X21346D01*
X21306Y35296D01*
X21266Y35336D01*
X21226D01*
Y35296D01*
X21266Y35256D01*
X21226Y35216D01*
Y35176D01*
X22226Y41720D02*
X22266D01*
X22306Y41760D01*
X22346Y41720D01*
X22386D01*
Y41760D01*
X22346Y41800D01*
X22386Y41840D01*
Y41880D01*
X22346D01*
X22306Y41840D01*
X22266Y41880D01*
X22226D01*
Y41840D01*
X22266Y41800D01*
X22226Y41760D01*
Y41720D01*
X23283Y42371D02*
X23323D01*
X23363Y42411D01*
X23403Y42371D01*
X23443D01*
Y42411D01*
X23403Y42451D01*
X23443Y42491D01*
Y42531D01*
X23403D01*
X23363Y42491D01*
X23323Y42531D01*
X23283D01*
Y42491D01*
X23323Y42451D01*
X23283Y42411D01*
Y42371D01*
X25670Y32833D02*
X25710D01*
X25750Y32873D01*
X25790Y32833D01*
X25830D01*
Y32873D01*
X25790Y32912D01*
X25830Y32952D01*
Y32992D01*
X25790D01*
X25750Y32952D01*
X25710Y32992D01*
X25670D01*
Y32952D01*
X25710Y32912D01*
X25670Y32873D01*
Y32833D01*
X25226Y33370D02*
X25266D01*
X25306Y33410D01*
X25346Y33370D01*
X25386D01*
Y33410D01*
X25346Y33450D01*
X25386Y33490D01*
Y33530D01*
X25346D01*
X25306Y33490D01*
X25266Y33530D01*
X25226D01*
Y33490D01*
X25266Y33450D01*
X25226Y33410D01*
Y33370D01*
X32320Y33620D02*
X32360D01*
X32400Y33660D01*
X32440Y33620D01*
X32480D01*
Y33660D01*
X32440Y33700D01*
X32480Y33740D01*
Y33780D01*
X32440D01*
X32400Y33740D01*
X32360Y33780D01*
X32320D01*
Y33740D01*
X32360Y33700D01*
X32320Y33660D01*
Y33620D01*
D88*
X44748Y39599D02*
G03*
X44748Y39599I-80J0D01*
G01*
M02*
