G04*
G04 #@! TF.GenerationSoftware,Altium Limited,Altium Designer,20.0.13 (296)*
G04*
G04 Layer_Color=8388736*
%FSLAX24Y24*%
%MOIN*%
G70*
G01*
G75*
%ADD11C,0.0100*%
%ADD15C,0.0002*%
%ADD85C,0.0315*%
%ADD86C,0.0118*%
G36*
X18005Y31947D02*
Y32853D01*
X18379D01*
Y31947D01*
X18005D01*
D01*
D02*
G37*
G36*
X25719Y32220D02*
Y32614D01*
X40286D01*
Y32220D01*
X25719D01*
D01*
D02*
G37*
G36*
X46879Y34302D02*
Y34854D01*
Y34893D01*
X48454D01*
Y34302D01*
X46879D01*
D01*
D02*
G37*
G36*
X46658Y39568D02*
X47328D01*
Y43032D01*
X46658D01*
Y42914D01*
X47209D01*
Y39686D01*
X46658D01*
Y39568D01*
D01*
D02*
G37*
D11*
X47331Y43678D02*
X47350D01*
X47331D02*
X47331Y29922D01*
X47350Y29900D01*
X17800Y43700D02*
X47328D01*
X17800D02*
X17800Y29900D01*
X47350D01*
D15*
X46348Y35523D02*
G03*
X46348Y35523I-177J0D01*
G01*
Y32846D02*
G03*
X46348Y32846I-177J0D01*
G01*
X45024Y42438D02*
G03*
X45024Y42438I-148J0D01*
G01*
Y40162D02*
G03*
X45024Y40162I-148J0D01*
G01*
D85*
X20860Y41500D02*
G03*
X20860Y41500I-158J0D01*
G01*
D86*
X43837Y36091D02*
G03*
X43837Y36091I-59J0D01*
G01*
X44935Y42438D02*
G03*
X44935Y42438I-59J0D01*
G01*
Y40162D02*
G03*
X44935Y40162I-59J0D01*
G01*
M02*
