G04*
G04 #@! TF.GenerationSoftware,Altium Limited,Altium Designer,20.0.13 (296)*
G04*
G04 Layer_Color=16711935*
%FSLAX24Y24*%
%MOIN*%
G70*
G01*
G75*
%ADD11C,0.0100*%
%ADD15C,0.0002*%
%ADD29R,0.0395X0.0379*%
%ADD31R,0.0379X0.0395*%
%ADD41O,0.0316X0.0946*%
%ADD43R,0.0631X0.0474*%
%ADD44C,0.0748*%
%ADD45O,0.0867X0.0513*%
%ADD46O,0.0789X0.0513*%
%ADD47C,0.2080*%
%ADD48C,0.0310*%
%ADD49C,0.0300*%
%ADD78R,0.0434X0.0434*%
%ADD79R,0.0454X0.0907*%
%ADD80R,0.0907X0.0454*%
%ADD81R,0.1064X0.0828*%
%ADD82R,0.1379X0.1025*%
%ADD83R,0.0316X0.0552*%
%ADD84R,0.1025X0.0867*%
D11*
X47331Y43678D02*
X47350D01*
X47331D02*
X47331Y29922D01*
X47350Y29900D01*
X17800Y43700D02*
X47328D01*
X17800D02*
X17800Y29900D01*
X47350D01*
D15*
X46348Y35523D02*
G03*
X46348Y35523I-177J0D01*
G01*
Y32846D02*
G03*
X46348Y32846I-177J0D01*
G01*
X45024Y42438D02*
G03*
X45024Y42438I-148J0D01*
G01*
Y40162D02*
G03*
X45024Y40162I-148J0D01*
G01*
D29*
X20561Y43049D02*
D03*
Y42451D02*
D03*
X21274Y43049D02*
D03*
Y42451D02*
D03*
X21987Y42451D02*
D03*
Y43049D02*
D03*
X22700Y43049D02*
D03*
Y42451D02*
D03*
X42750Y41500D02*
D03*
Y42098D02*
D03*
Y40648D02*
D03*
Y40050D02*
D03*
D31*
X43640Y36650D02*
D03*
X44238D02*
D03*
X45550D02*
D03*
X44952D02*
D03*
X45550Y37400D02*
D03*
X44952D02*
D03*
X43602Y32850D02*
D03*
X44200D02*
D03*
X44952D02*
D03*
X45550D02*
D03*
X44800Y32100D02*
D03*
X44202D02*
D03*
X44799Y31350D02*
D03*
X44201D02*
D03*
D41*
X40450Y42750D02*
D03*
X40950D02*
D03*
X41450D02*
D03*
X41950D02*
D03*
Y40781D02*
D03*
X41450D02*
D03*
X40950D02*
D03*
X40450D02*
D03*
Y39350D02*
D03*
X40950D02*
D03*
X41450D02*
D03*
X41950D02*
D03*
Y37381D02*
D03*
X41450D02*
D03*
X40950D02*
D03*
X40450D02*
D03*
D43*
X43616Y38826D02*
D03*
X42750Y39200D02*
D03*
Y38452D02*
D03*
D44*
X18448Y32400D02*
D03*
D45*
X44668Y39599D02*
D03*
Y43001D02*
D03*
D46*
X46313D02*
D03*
Y39599D02*
D03*
D47*
X18900Y42600D02*
D03*
X46250Y31000D02*
D03*
D48*
X19712Y42438D02*
D03*
X19652Y42946D02*
D03*
X19305Y43322D02*
D03*
X18803Y43422D02*
D03*
X18339Y43208D02*
D03*
X18088Y42762D02*
D03*
X18148Y42254D02*
D03*
X18495Y41878D02*
D03*
X18997Y41778D02*
D03*
X19461Y41992D02*
D03*
X46412Y31812D02*
D03*
X45904Y31752D02*
D03*
X45528Y31405D02*
D03*
X45428Y30903D02*
D03*
X45642Y30439D02*
D03*
X46088Y30188D02*
D03*
X46596Y30248D02*
D03*
X46972Y30595D02*
D03*
X47072Y31097D02*
D03*
X46858Y31561D02*
D03*
D49*
X30600Y35350D02*
D03*
X26800Y40400D02*
D03*
X33337Y36604D02*
D03*
X24700Y42601D02*
D03*
X32300Y38500D02*
D03*
X33700Y36062D02*
D03*
X33600Y35497D02*
D03*
X32273Y37750D02*
D03*
X31450Y37909D02*
D03*
X26567Y38972D02*
D03*
X23817Y41783D02*
D03*
X34330Y35486D02*
D03*
X33987D02*
D03*
X33500Y36300D02*
D03*
X31936Y37950D02*
D03*
X29900Y37414D02*
D03*
X30277Y37590D02*
D03*
X26200Y39268D02*
D03*
X24800Y32749D02*
D03*
X21300Y39800D02*
D03*
X21306Y35256D02*
D03*
X22306Y41800D02*
D03*
X25750Y32912D02*
D03*
X25306Y33450D02*
D03*
D78*
X24381Y37689D02*
D03*
Y38241D02*
D03*
Y38792D02*
D03*
X23279D02*
D03*
Y38241D02*
D03*
Y37689D02*
D03*
X23830D02*
D03*
Y38792D02*
D03*
Y38241D02*
D03*
D79*
X20806Y34107D02*
D03*
X21306D02*
D03*
X21806D02*
D03*
X22306D02*
D03*
X22806D02*
D03*
X23306D02*
D03*
X23806D02*
D03*
X24306D02*
D03*
X24806D02*
D03*
X25306D02*
D03*
X25806D02*
D03*
X26306D02*
D03*
X26806D02*
D03*
X27306D02*
D03*
Y41193D02*
D03*
X26806D02*
D03*
X26306D02*
D03*
X25806D02*
D03*
X25306D02*
D03*
X24806D02*
D03*
X24306D02*
D03*
X23806D02*
D03*
X23306D02*
D03*
X22806D02*
D03*
X22306D02*
D03*
X21806D02*
D03*
X21306D02*
D03*
X20806D02*
D03*
D80*
X27894Y35400D02*
D03*
Y35900D02*
D03*
Y36400D02*
D03*
Y36900D02*
D03*
Y37400D02*
D03*
Y37900D02*
D03*
Y38400D02*
D03*
Y38900D02*
D03*
Y39400D02*
D03*
Y39900D02*
D03*
D81*
X41481Y35823D02*
D03*
Y34209D02*
D03*
D82*
X44550Y34800D02*
D03*
D83*
X43800Y33655D02*
D03*
X44300D02*
D03*
X44800D02*
D03*
X45300D02*
D03*
Y35945D02*
D03*
X44800D02*
D03*
X44300D02*
D03*
X43800D02*
D03*
D84*
X40625Y31900D02*
D03*
X42200D02*
D03*
M02*
