G04*
G04 #@! TF.GenerationSoftware,Altium Limited,Altium Designer,20.0.13 (296)*
G04*
G04 Layer_Physical_Order=2*
G04 Layer_Color=16711680*
%FSLAX24Y24*%
%MOIN*%
G70*
G01*
G75*
%ADD11C,0.0100*%
%ADD15C,0.0002*%
%ADD16R,0.0315X0.0299*%
%ADD18R,0.0299X0.0315*%
%ADD26O,0.0236X0.0866*%
%ADD28R,0.0551X0.0394*%
%ADD52C,0.0300*%
%ADD53C,0.0600*%
%ADD55C,0.0315*%
%ADD56C,0.0236*%
%ADD58C,0.0157*%
%ADD60C,0.0150*%
%ADD63C,0.0709*%
%ADD64O,0.0787X0.0433*%
%ADD65O,0.0709X0.0433*%
%ADD66C,0.2000*%
%ADD67C,0.0230*%
%ADD68C,0.0220*%
%ADD69R,0.0354X0.0354*%
%ADD70R,0.0374X0.0827*%
%ADD71R,0.0827X0.0374*%
%ADD72R,0.0984X0.0748*%
%ADD73R,0.1299X0.0945*%
%ADD74R,0.0236X0.0472*%
%ADD75R,0.0945X0.0787*%
%ADD76C,0.0500*%
%ADD77C,0.0400*%
G36*
X47350Y31170D02*
X47300Y31166D01*
X47261Y31329D01*
X47197Y31483D01*
X47110Y31625D01*
X47002Y31752D01*
X46875Y31860D01*
X46733Y31947D01*
X46579Y32011D01*
X46416Y32050D01*
X46250Y32063D01*
X46084Y32050D01*
X45921Y32011D01*
X45767Y31947D01*
X45625Y31860D01*
X45498Y31752D01*
X45390Y31625D01*
X45303Y31483D01*
X45239Y31329D01*
X45200Y31166D01*
X45187Y31000D01*
X45200Y30834D01*
X45239Y30671D01*
X45303Y30517D01*
X45390Y30375D01*
X45498Y30248D01*
X45625Y30140D01*
X45767Y30053D01*
X45921Y29989D01*
X46084Y29950D01*
X46080Y29900D01*
X17800D01*
Y42430D01*
X17850Y42434D01*
X17889Y42271D01*
X17953Y42117D01*
X18040Y41975D01*
X18148Y41848D01*
X18275Y41740D01*
X18417Y41653D01*
X18571Y41589D01*
X18734Y41550D01*
X18900Y41537D01*
X19066Y41550D01*
X19229Y41589D01*
X19383Y41653D01*
X19525Y41740D01*
X19652Y41848D01*
X19760Y41975D01*
X19847Y42117D01*
X19911Y42271D01*
X19950Y42434D01*
X19963Y42600D01*
X19950Y42766D01*
X19911Y42929D01*
X19847Y43083D01*
X19760Y43225D01*
X19652Y43352D01*
X19525Y43460D01*
X19383Y43547D01*
X19229Y43611D01*
X19066Y43650D01*
X19070Y43700D01*
X47350D01*
Y31170D01*
D02*
G37*
%LPC*%
G36*
X33100Y43610D02*
X33100Y43610D01*
X26127D01*
X26127Y43610D01*
X26084Y43601D01*
X26047Y43577D01*
X26047Y43577D01*
X25193Y42723D01*
X25150Y42704D01*
Y42704D01*
X25150Y42704D01*
X24835D01*
X24823Y42723D01*
X24766Y42761D01*
X24700Y42774D01*
X24634Y42761D01*
X24577Y42723D01*
X24570Y42713D01*
X24106D01*
X24064Y42704D01*
X24027Y42680D01*
X24027Y42680D01*
X23532Y42185D01*
X23486Y42204D01*
Y42328D01*
X23524Y42384D01*
X23537Y42451D01*
X23524Y42517D01*
X23486Y42573D01*
X23430Y42611D01*
X23363Y42624D01*
X23297Y42611D01*
X23241Y42573D01*
X23234Y42563D01*
X22917D01*
Y42660D01*
X22483D01*
X22462Y42702D01*
Y42962D01*
X22454Y43005D01*
X22429Y43041D01*
X22429Y43041D01*
X22342Y43129D01*
X22306Y43153D01*
X22263Y43161D01*
X22263Y43161D01*
X22205D01*
Y43259D01*
X21770D01*
Y42840D01*
X22205D01*
X22238Y42803D01*
Y42697D01*
X22205Y42660D01*
X22048D01*
X21987Y42673D01*
X21987Y42673D01*
X21274D01*
X21274Y42673D01*
X21274Y42673D01*
X20561D01*
X20561Y42673D01*
X20500Y42660D01*
X20344D01*
Y42472D01*
X20340Y42451D01*
X20344Y42429D01*
Y42241D01*
X20500D01*
X20561Y42229D01*
X20561Y42229D01*
X20900D01*
X21168Y41961D01*
Y41667D01*
X21059D01*
Y40720D01*
X21168D01*
Y39909D01*
X21140Y39866D01*
X21127Y39800D01*
X21140Y39734D01*
X21168Y39691D01*
Y35356D01*
X21146Y35322D01*
X21132Y35256D01*
X21146Y35189D01*
X21183Y35133D01*
X21239Y35096D01*
X21306Y35082D01*
X21372Y35096D01*
X21428Y35133D01*
X21466Y35189D01*
X21479Y35256D01*
X21466Y35322D01*
X21443Y35356D01*
Y39709D01*
X21460Y39734D01*
X21473Y39800D01*
X21460Y39866D01*
X21443Y39891D01*
Y40720D01*
X21553D01*
Y40720D01*
X21559D01*
Y40720D01*
X22053D01*
Y40720D01*
X22059D01*
Y40720D01*
X22553D01*
Y40720D01*
X22559D01*
Y40720D01*
X23053D01*
Y40720D01*
X23059D01*
Y40720D01*
X23553D01*
Y40720D01*
X23559D01*
Y40720D01*
X24053D01*
Y40720D01*
X24059D01*
Y40720D01*
X24509D01*
X24553Y40720D01*
Y40720D01*
X24559D01*
Y40720D01*
X25053D01*
Y40720D01*
X25059D01*
Y40720D01*
X25553D01*
Y40720D01*
X25559D01*
Y40720D01*
X26053D01*
Y40720D01*
X26059D01*
Y40720D01*
X26553D01*
Y40720D01*
X26559D01*
Y40720D01*
X27053D01*
Y40720D01*
X27059D01*
Y40720D01*
X27553D01*
Y41320D01*
X27555Y41330D01*
Y41530D01*
X27744Y41719D01*
X27798Y41703D01*
X27802Y41687D01*
X27839Y41631D01*
X27895Y41594D01*
X27962Y41580D01*
X28028Y41594D01*
X28084Y41631D01*
X28122Y41687D01*
X28135Y41754D01*
X28140Y41760D01*
X28754D01*
X28775Y41710D01*
X28671Y41606D01*
X28646Y41570D01*
X28638Y41527D01*
X28638Y41527D01*
Y39696D01*
X28453Y39512D01*
X28368D01*
Y39647D01*
X27421D01*
Y39197D01*
X27421Y39153D01*
X27421Y39103D01*
Y38697D01*
X27421Y38653D01*
X27421Y38603D01*
Y38197D01*
X27421Y38153D01*
X27421Y38103D01*
Y37697D01*
X27421Y37653D01*
X27421Y37603D01*
Y37197D01*
X27421Y37153D01*
X27421Y37103D01*
Y36697D01*
X27421Y36653D01*
X27421Y36603D01*
Y36197D01*
X27421Y36153D01*
X27421Y36103D01*
Y35697D01*
X27421Y35653D01*
X27421Y35603D01*
Y35153D01*
X28368D01*
Y35603D01*
X28368Y35647D01*
X28368Y35697D01*
Y35833D01*
X28900D01*
X28900Y35833D01*
X28943Y35842D01*
X28979Y35866D01*
X29232Y36118D01*
X29232Y36118D01*
X29235Y36123D01*
X29285Y36108D01*
Y32793D01*
X27804Y31312D01*
X23946D01*
X22662Y32596D01*
Y33304D01*
X22881Y33523D01*
X22881Y33523D01*
X22905Y33559D01*
X22914Y33602D01*
X22945Y33633D01*
X23053Y33633D01*
X23103Y33633D01*
X23509D01*
X23553Y33633D01*
X23603Y33633D01*
X24009D01*
X24053Y33633D01*
X24103Y33633D01*
X24553D01*
Y33633D01*
X24559D01*
Y33633D01*
X24688D01*
Y32879D01*
X24677Y32872D01*
X24640Y32816D01*
X24627Y32749D01*
X24640Y32683D01*
X24677Y32627D01*
X24734Y32589D01*
X24800Y32576D01*
X24866Y32589D01*
X24923Y32627D01*
X24960Y32683D01*
X24973Y32749D01*
X24960Y32816D01*
X24923Y32872D01*
X24912Y32879D01*
Y33633D01*
X25053D01*
Y33633D01*
X25059D01*
Y33633D01*
X25194D01*
Y33580D01*
X25183Y33573D01*
X25146Y33516D01*
X25132Y33450D01*
X25146Y33384D01*
X25183Y33327D01*
X25239Y33290D01*
X25306Y33277D01*
X25372Y33290D01*
X25428Y33327D01*
X25466Y33384D01*
X25479Y33450D01*
X25466Y33516D01*
X25428Y33573D01*
X25418Y33580D01*
Y33633D01*
X25553D01*
Y33633D01*
X25559D01*
Y33633D01*
X25638D01*
Y33042D01*
X25627Y33035D01*
X25590Y32979D01*
X25577Y32912D01*
X25590Y32846D01*
X25627Y32790D01*
X25684Y32752D01*
X25750Y32739D01*
X25816Y32752D01*
X25873Y32790D01*
X25910Y32846D01*
X25923Y32912D01*
X25910Y32979D01*
X25873Y33035D01*
X25862Y33042D01*
Y33633D01*
X26053D01*
Y33633D01*
X26059D01*
Y33633D01*
X26553D01*
Y33633D01*
X26559D01*
Y33633D01*
X27053D01*
Y33633D01*
X27059D01*
Y33633D01*
X27553D01*
Y34580D01*
X27418D01*
Y34779D01*
X27418Y34779D01*
X27409Y34822D01*
X27385Y34858D01*
X27385Y34858D01*
X26912Y35331D01*
Y40270D01*
X26923Y40277D01*
X26960Y40334D01*
X26973Y40400D01*
X26960Y40466D01*
X26923Y40523D01*
X26866Y40560D01*
X26800Y40573D01*
X26734Y40560D01*
X26677Y40523D01*
X26640Y40466D01*
X26627Y40400D01*
X26640Y40334D01*
X26677Y40277D01*
X26688Y40270D01*
Y39149D01*
X26644Y39125D01*
X26634Y39132D01*
X26567Y39145D01*
X26501Y39132D01*
X26445Y39094D01*
X26407Y39038D01*
X26394Y38972D01*
X26407Y38905D01*
X26445Y38849D01*
X26453Y38844D01*
X26451Y38796D01*
X26405Y38777D01*
X26312Y38870D01*
Y39138D01*
X26323Y39145D01*
X26360Y39201D01*
X26373Y39268D01*
X26360Y39334D01*
X26323Y39390D01*
X26266Y39428D01*
X26200Y39441D01*
X26134Y39428D01*
X26077Y39390D01*
X26040Y39334D01*
X26027Y39268D01*
X26040Y39201D01*
X26077Y39145D01*
X26088Y39138D01*
Y38824D01*
X26088Y38824D01*
X26096Y38781D01*
X26121Y38744D01*
X26261Y38604D01*
Y35620D01*
X25854Y35212D01*
X24400D01*
X24357Y35204D01*
X24321Y35179D01*
X24321Y35179D01*
X24104Y34962D01*
X23600D01*
X23600Y34962D01*
X23557Y34954D01*
X23521Y34929D01*
X23521Y34929D01*
X23282Y34691D01*
X23258Y34654D01*
X23249Y34611D01*
X23215Y34580D01*
X23059Y34580D01*
X23009Y34580D01*
X22559D01*
Y34580D01*
X22553D01*
Y34580D01*
X22059D01*
Y34580D01*
X22053D01*
Y34580D01*
X21559D01*
Y34580D01*
X21553D01*
Y34580D01*
X21059D01*
Y33633D01*
X21194D01*
Y33500D01*
X21194Y33500D01*
X21202Y33458D01*
X21226Y33421D01*
X21788Y32860D01*
Y32300D01*
X21788Y32300D01*
X21796Y32257D01*
X21821Y32221D01*
X23521Y30521D01*
X23557Y30496D01*
X23600Y30488D01*
X23600Y30488D01*
X25667D01*
X25672Y30438D01*
X25659Y30435D01*
X25602Y30398D01*
X25565Y30341D01*
X25552Y30275D01*
X25565Y30209D01*
X25602Y30152D01*
X25659Y30115D01*
X25725Y30102D01*
X25791Y30115D01*
X25848Y30152D01*
X25885Y30209D01*
X25898Y30275D01*
X25937Y30309D01*
X28321D01*
X28321Y30309D01*
X28364Y30317D01*
X28400Y30341D01*
X30429Y32371D01*
X30454Y32407D01*
X30462Y32450D01*
X30462Y32450D01*
Y34504D01*
X30996Y35038D01*
X34500D01*
X34500Y35038D01*
X34543Y35046D01*
X34579Y35071D01*
X34759Y35250D01*
X34850D01*
Y36350D01*
X34850Y36350D01*
Y36741D01*
X35546Y37438D01*
X39582D01*
X39582Y37438D01*
X39625Y37446D01*
X39661Y37471D01*
X40531Y38340D01*
X42414D01*
Y38195D01*
X43086D01*
Y38709D01*
X42414D01*
Y38564D01*
X40484D01*
X40441Y38556D01*
X40405Y38531D01*
X40405Y38531D01*
X39536Y37662D01*
X35500D01*
X35457Y37654D01*
X35421Y37629D01*
X35421Y37629D01*
X35299Y37508D01*
X35253Y37533D01*
X35262Y37577D01*
X35249Y37643D01*
X35211Y37700D01*
X35209Y37761D01*
X35222Y37780D01*
X35236Y37850D01*
Y38829D01*
X35428Y39022D01*
X35468Y39081D01*
X35482Y39150D01*
X35468Y39220D01*
X35428Y39278D01*
X35370Y39318D01*
X35300Y39332D01*
X35231Y39318D01*
X35172Y39278D01*
X34926Y39033D01*
X34887Y38974D01*
X34873Y38904D01*
Y37850D01*
X34887Y37780D01*
X34926Y37722D01*
X34964Y37696D01*
X34929Y37643D01*
X34915Y37577D01*
X34929Y37511D01*
X34966Y37455D01*
X35022Y37417D01*
X35089Y37404D01*
X35133Y37413D01*
X35158Y37367D01*
X34695Y36904D01*
X34695Y36904D01*
X34658Y36879D01*
X34636Y36846D01*
X34632Y36845D01*
X34586Y36868D01*
Y42124D01*
X34586Y42124D01*
X34577Y42167D01*
X34553Y42203D01*
X33179Y43577D01*
X33143Y43601D01*
X33100Y43610D01*
D02*
G37*
G36*
X41450Y43265D02*
X41404Y43246D01*
X41398Y43240D01*
X40983D01*
X40950Y43247D01*
X40917Y43240D01*
X40483D01*
X40450Y43247D01*
X40417Y43240D01*
X39775D01*
X39729Y43221D01*
X39654Y43146D01*
X39635Y43100D01*
X39635Y42442D01*
X39636Y42439D01*
X39635Y42436D01*
X39646Y42416D01*
X39654Y42396D01*
X39657Y42395D01*
X39658Y42392D01*
X39768Y42300D01*
X39790Y42294D01*
X39810Y42285D01*
X40050Y42285D01*
X40354D01*
X40381Y42267D01*
X40450Y42253D01*
X40519Y42267D01*
X40546Y42285D01*
X40854D01*
X40880Y42267D01*
X40950Y42253D01*
X41019Y42267D01*
X41046Y42285D01*
X41268D01*
Y42001D01*
X41282Y41931D01*
X41322Y41872D01*
X41822Y41372D01*
X41881Y41332D01*
X41892Y41330D01*
X41900Y41277D01*
X41877Y41265D01*
X41516D01*
X41450Y41278D01*
X41384Y41265D01*
X41016D01*
X40950Y41278D01*
X40884Y41265D01*
X40550D01*
X40531Y41257D01*
X40519Y41264D01*
X40450Y41278D01*
X40381Y41264D01*
X40322Y41225D01*
X40282Y41166D01*
X40272Y41114D01*
X40254Y41096D01*
X40235Y41050D01*
Y40996D01*
X37545D01*
X37364Y41177D01*
Y41500D01*
X37348Y41582D01*
X37301Y41651D01*
X37232Y41698D01*
X37150Y41714D01*
X37068Y41698D01*
X36999Y41651D01*
X36952Y41582D01*
X36936Y41500D01*
Y41088D01*
X36944Y41046D01*
X36904Y40996D01*
X36232D01*
X36150Y40979D01*
X36080Y40933D01*
X34999Y39851D01*
X34952Y39782D01*
X34936Y39700D01*
X34952Y39618D01*
X34999Y39549D01*
X35068Y39502D01*
X35150Y39486D01*
X35232Y39502D01*
X35301Y39549D01*
X36320Y40567D01*
X40235D01*
Y38950D01*
X40254Y38904D01*
X40300Y38885D01*
X40354D01*
X40381Y38867D01*
X40450Y38853D01*
X40519Y38867D01*
X40546Y38885D01*
X40854Y38885D01*
X40880Y38867D01*
X40950Y38853D01*
X41019Y38867D01*
X41046Y38885D01*
X41300D01*
X41333Y38899D01*
X41381Y38867D01*
X41450Y38853D01*
X41519Y38867D01*
X41578Y38907D01*
X41618Y38966D01*
X41632Y39035D01*
Y39190D01*
X41718Y39277D01*
X41768Y39256D01*
Y39035D01*
X41782Y38966D01*
X41822Y38907D01*
X41881Y38867D01*
X41950Y38853D01*
X42019Y38867D01*
X42078Y38907D01*
X42118Y38966D01*
X42132Y39035D01*
Y39088D01*
X42414D01*
Y38943D01*
X43086D01*
Y39457D01*
X42862D01*
Y39840D01*
X42967D01*
Y40260D01*
X42533D01*
Y39840D01*
X42638D01*
Y39457D01*
X42414D01*
Y39312D01*
X42132D01*
Y39665D01*
X42118Y39734D01*
X42078Y39793D01*
X42019Y39833D01*
X41950Y39847D01*
X41881Y39833D01*
X41822Y39793D01*
X41815Y39783D01*
X41765Y39799D01*
Y40135D01*
X42000Y40135D01*
X42046Y40154D01*
X42296Y40404D01*
X42308Y40434D01*
X42750D01*
X42773Y40439D01*
X42967D01*
Y40858D01*
X42773D01*
X42750Y40863D01*
X42315D01*
Y41200D01*
X42296Y41246D01*
X42250Y41265D01*
X42048D01*
X42045Y41268D01*
X42065Y41318D01*
X42533D01*
Y41290D01*
X42967D01*
Y41710D01*
X42533D01*
Y41682D01*
X42026D01*
X41632Y42076D01*
Y42340D01*
X41646Y42354D01*
X41665Y42400D01*
Y43050D01*
X41646Y43096D01*
X41620Y43121D01*
X41618Y43134D01*
X41578Y43193D01*
X41519Y43233D01*
X41507Y43235D01*
X41496Y43246D01*
X41450Y43265D01*
D02*
G37*
G36*
X44906Y42650D02*
X44847D01*
X44835Y42645D01*
X44822D01*
X44768Y42623D01*
X44759Y42614D01*
X44747Y42609D01*
X44705Y42567D01*
X44700Y42555D01*
X44691Y42546D01*
X44669Y42492D01*
Y42479D01*
X44664Y42467D01*
Y42408D01*
X44669Y42396D01*
Y42384D01*
X44691Y42329D01*
X44700Y42320D01*
X44705Y42308D01*
X44747Y42267D01*
X44759Y42262D01*
X44768Y42253D01*
X44822Y42230D01*
X44835D01*
X44847Y42225D01*
X44906D01*
X44918Y42230D01*
X44931D01*
X44985Y42253D01*
X44994Y42262D01*
X45006Y42267D01*
X45047Y42308D01*
X45052Y42320D01*
X45062Y42329D01*
X45084Y42384D01*
Y42396D01*
X45089Y42408D01*
Y42467D01*
X45084Y42479D01*
Y42492D01*
X45062Y42546D01*
X45052Y42555D01*
X45047Y42567D01*
X45006Y42609D01*
X44994Y42614D01*
X44985Y42623D01*
X44931Y42645D01*
X44918D01*
X44906Y42650D01*
D02*
G37*
G36*
X41950Y43247D02*
X41881Y43233D01*
X41822Y43193D01*
X41782Y43134D01*
X41768Y43065D01*
Y42435D01*
X41782Y42366D01*
X41822Y42307D01*
X41881Y42267D01*
X41950Y42253D01*
X42019Y42267D01*
X42078Y42307D01*
X42118Y42366D01*
X42132Y42435D01*
Y42638D01*
X42954D01*
X43338Y42254D01*
Y42135D01*
X43292Y42116D01*
X43279Y42129D01*
X43243Y42153D01*
X43200Y42161D01*
X43200Y42161D01*
X42967D01*
Y42308D01*
X42533D01*
Y41889D01*
X42967D01*
Y41937D01*
X43154D01*
X43338Y41753D01*
Y39800D01*
X43338Y39800D01*
X43346Y39757D01*
X43371Y39721D01*
X44021Y39071D01*
X44021Y39071D01*
X44057Y39046D01*
X44100Y39038D01*
X44100Y39038D01*
X46525D01*
X46982Y38581D01*
Y36804D01*
X46715Y36537D01*
X46703Y36540D01*
X46637Y36526D01*
X46580Y36489D01*
X46543Y36433D01*
X46530Y36366D01*
X46543Y36300D01*
X46580Y36244D01*
X46637Y36206D01*
X46703Y36193D01*
X46769Y36206D01*
X46826Y36244D01*
X46863Y36300D01*
X46876Y36366D01*
X46874Y36379D01*
X47174Y36679D01*
X47198Y36715D01*
X47207Y36758D01*
X47207Y36758D01*
Y38650D01*
X47198Y38693D01*
X47174Y38729D01*
X47137Y38754D01*
X47124Y38756D01*
X46651Y39229D01*
X46614Y39254D01*
X46572Y39262D01*
X46572Y39262D01*
X44146D01*
X43562Y39846D01*
Y41799D01*
Y42300D01*
X43562Y42300D01*
X43554Y42343D01*
X43529Y42379D01*
X43529Y42379D01*
X43079Y42829D01*
X43043Y42854D01*
X43000Y42862D01*
X43000Y42862D01*
X42132D01*
Y43065D01*
X42118Y43134D01*
X42078Y43193D01*
X42019Y43233D01*
X41950Y43247D01*
D02*
G37*
G36*
X44847Y42073D02*
X44781Y42060D01*
X44724Y42023D01*
X44687Y41966D01*
X44674Y41900D01*
X44687Y41834D01*
X44706Y41806D01*
Y40630D01*
X44687Y40602D01*
X44674Y40536D01*
X44680Y40506D01*
X44678Y40500D01*
X44689Y40446D01*
X44720Y40400D01*
X44741Y40386D01*
X44744Y40378D01*
X44744Y40368D01*
X44741Y40327D01*
X44705Y40292D01*
X44700Y40280D01*
X44691Y40271D01*
X44669Y40216D01*
Y40203D01*
X44664Y40192D01*
Y40133D01*
X44669Y40121D01*
Y40108D01*
X44691Y40054D01*
X44700Y40045D01*
X44705Y40033D01*
X44747Y39991D01*
X44759Y39986D01*
X44768Y39977D01*
X44822Y39955D01*
X44835D01*
X44847Y39950D01*
X44906D01*
X44918Y39955D01*
X44931D01*
X44985Y39977D01*
X44994Y39986D01*
X45006Y39991D01*
X45047Y40033D01*
X45052Y40045D01*
X45062Y40054D01*
X45084Y40108D01*
Y40121D01*
X45089Y40133D01*
Y40192D01*
X45084Y40203D01*
Y40216D01*
X45062Y40271D01*
X45052Y40280D01*
X45047Y40292D01*
X45006Y40333D01*
X44994Y40338D01*
X44985Y40347D01*
X44970Y40354D01*
X44964Y40410D01*
X44970Y40414D01*
X45007Y40470D01*
X45020Y40536D01*
X45007Y40602D01*
X44988Y40630D01*
Y41806D01*
X45007Y41834D01*
X45020Y41900D01*
X45007Y41966D01*
X44970Y42023D01*
X44913Y42060D01*
X44847Y42073D01*
D02*
G37*
G36*
X42217Y37963D02*
X42123Y37951D01*
X42036Y37914D01*
X41980Y37872D01*
X41950Y37878D01*
X41881Y37864D01*
X41822Y37825D01*
X41782Y37766D01*
X41772Y37717D01*
X41628D01*
X41618Y37766D01*
X41578Y37825D01*
X41519Y37864D01*
X41450Y37878D01*
X41381Y37864D01*
X41322Y37825D01*
X41282Y37766D01*
X41272Y37717D01*
X41128D01*
X41118Y37766D01*
X41078Y37825D01*
X41019Y37864D01*
X40950Y37878D01*
X40880Y37864D01*
X40822Y37825D01*
X40782Y37766D01*
X40772Y37717D01*
X40628D01*
X40618Y37766D01*
X40578Y37825D01*
X40519Y37864D01*
X40450Y37878D01*
X40381Y37864D01*
X40322Y37825D01*
X40282Y37766D01*
X40268Y37696D01*
Y37067D01*
X40269Y37063D01*
Y37000D01*
X40288Y36954D01*
X40320Y36941D01*
X40322Y36938D01*
X40381Y36899D01*
X40450Y36885D01*
X40498Y36894D01*
X41019Y36373D01*
Y36257D01*
X40928D01*
Y35389D01*
X42033D01*
Y36257D01*
X42014D01*
Y36898D01*
X42019Y36899D01*
X42078Y36938D01*
X42118Y36997D01*
X42132Y37067D01*
Y37151D01*
X42132Y37151D01*
X42226Y37164D01*
X42313Y37200D01*
X42361Y37237D01*
X44537D01*
Y37099D01*
X44537Y37099D01*
Y35945D01*
X44549Y35851D01*
X44586Y35763D01*
X44622Y35716D01*
Y35649D01*
X44695D01*
X44718Y35631D01*
X44806Y35594D01*
X44900Y35582D01*
X45300D01*
X45394Y35594D01*
X45482Y35631D01*
X45557Y35688D01*
X45614Y35763D01*
X45651Y35851D01*
X45663Y35945D01*
X45651Y36039D01*
X45614Y36127D01*
X45557Y36202D01*
X45482Y36259D01*
X45394Y36296D01*
X45300Y36308D01*
X45263D01*
Y37099D01*
X45263Y37099D01*
X45263Y37099D01*
Y37600D01*
X45251Y37694D01*
X45214Y37782D01*
X45157Y37857D01*
X45082Y37914D01*
X44994Y37951D01*
X44900Y37963D01*
X42217D01*
X42217Y37963D01*
D02*
G37*
G36*
X35088Y36473D02*
X35022Y36460D01*
X34965Y36423D01*
X34928Y36366D01*
X34915Y36300D01*
X34928Y36234D01*
X34965Y36177D01*
X35022Y36140D01*
X35088Y36127D01*
X35154Y36140D01*
X35211Y36177D01*
X35248Y36234D01*
X35261Y36300D01*
X35248Y36366D01*
X35211Y36423D01*
X35154Y36460D01*
X35088Y36473D01*
D02*
G37*
G36*
X44448Y36867D02*
X44029D01*
Y36433D01*
X44157D01*
Y36241D01*
X44122D01*
Y35649D01*
X44478D01*
Y36241D01*
X44381D01*
Y36433D01*
X44448D01*
Y36867D01*
D02*
G37*
G36*
X46206Y35765D02*
X46170Y35765D01*
X46135Y35765D01*
X46123Y35760D01*
X46110Y35760D01*
X46045Y35733D01*
X46036Y35724D01*
X46024Y35719D01*
X45974Y35669D01*
X45969Y35657D01*
X45960Y35648D01*
X45933Y35583D01*
X45933Y35570D01*
X45928Y35558D01*
X45928Y35488D01*
X45933Y35476D01*
X45933Y35463D01*
X45960Y35398D01*
X45969Y35388D01*
X45974Y35376D01*
X46024Y35327D01*
X46036Y35322D01*
X46045Y35313D01*
X46110Y35286D01*
X46123Y35286D01*
X46135Y35281D01*
X46171Y35281D01*
X46206Y35281D01*
X46218Y35286D01*
X46231Y35286D01*
X46296Y35313D01*
X46305Y35322D01*
X46317Y35327D01*
X46367Y35377D01*
X46372Y35388D01*
X46381Y35398D01*
X46408Y35463D01*
X46408Y35476D01*
X46413Y35488D01*
X46413Y35558D01*
X46408Y35570D01*
X46408Y35583D01*
X46381Y35648D01*
X46372Y35657D01*
X46367Y35669D01*
X46317Y35719D01*
X46305Y35724D01*
X46296Y35733D01*
X46231Y35760D01*
X46218Y35760D01*
X46206Y35765D01*
D02*
G37*
G36*
X35300Y36091D02*
X35231Y36077D01*
X35172Y36038D01*
X35133Y35979D01*
X35119Y35909D01*
Y34926D01*
X34597Y34403D01*
X34075Y33882D01*
X33412D01*
Y34069D01*
X33399Y34139D01*
X33359Y34198D01*
X33328Y34228D01*
X33270Y34268D01*
X33200Y34282D01*
X33131Y34268D01*
X33072Y34228D01*
X33032Y34169D01*
X33018Y34100D01*
X33032Y34030D01*
X33049Y34005D01*
Y33700D01*
Y32000D01*
X33063Y31930D01*
X33102Y31872D01*
X33161Y31832D01*
X33231Y31818D01*
X33300Y31832D01*
X33359Y31872D01*
X33399Y31930D01*
X33412Y32000D01*
Y33518D01*
X34150D01*
X34220Y33532D01*
X34278Y33572D01*
X34800Y34093D01*
X38225D01*
X38294Y34107D01*
X38353Y34147D01*
X38428Y34222D01*
X38468Y34281D01*
X38482Y34350D01*
Y35350D01*
X38468Y35419D01*
X38428Y35478D01*
X38370Y35518D01*
X38300Y35532D01*
X38231Y35518D01*
X38172Y35478D01*
X38132Y35419D01*
X38118Y35350D01*
Y34457D01*
X35229D01*
X35210Y34503D01*
X35429Y34722D01*
X35468Y34781D01*
X35482Y34850D01*
Y35909D01*
X35468Y35979D01*
X35429Y36038D01*
X35370Y36077D01*
X35300Y36091D01*
D02*
G37*
G36*
X42033Y34643D02*
X40928D01*
Y34456D01*
X40895Y34430D01*
X40895Y34430D01*
X40404Y33939D01*
X40354Y33874D01*
X40323Y33799D01*
X40313Y33718D01*
X40313Y33718D01*
Y32354D01*
X40093D01*
Y31446D01*
X41158D01*
Y32354D01*
X40938D01*
Y33589D01*
X41124Y33775D01*
X42033D01*
Y33896D01*
X43117D01*
X43579Y33434D01*
X43622Y33401D01*
Y33359D01*
X43705D01*
X43719Y33353D01*
X43800Y33342D01*
X43881Y33353D01*
X43895Y33359D01*
X43978D01*
Y33401D01*
X44021Y33434D01*
X44071Y33499D01*
X44072Y33501D01*
X44122Y33491D01*
Y33359D01*
X44478D01*
Y33951D01*
X44122D01*
Y33819D01*
X44072Y33809D01*
X44071Y33811D01*
X44021Y33876D01*
X43978Y33919D01*
Y33951D01*
X43946D01*
X43467Y34430D01*
X43402Y34480D01*
X43327Y34511D01*
X43287Y34516D01*
X43246Y34522D01*
X43246Y34522D01*
X42033D01*
Y34643D01*
D02*
G37*
G36*
X44978Y33951D02*
X44622D01*
Y33359D01*
X44688D01*
Y33125D01*
X44688Y33125D01*
X44696Y33082D01*
X44721Y33046D01*
X44742Y33025D01*
Y32962D01*
X44410D01*
Y33067D01*
X43990D01*
Y32633D01*
X44410D01*
Y32738D01*
X44742D01*
Y32633D01*
X45161D01*
Y33067D01*
X45014D01*
X44966Y33071D01*
X44957Y33114D01*
X44933Y33151D01*
X44933Y33151D01*
X44912Y33171D01*
Y33359D01*
X44978D01*
Y33951D01*
D02*
G37*
G36*
X46206Y33088D02*
X46170Y33088D01*
X46135Y33088D01*
X46123Y33083D01*
X46110Y33083D01*
X46045Y33056D01*
X46036Y33047D01*
X46024Y33042D01*
X45974Y32992D01*
X45969Y32980D01*
X45960Y32971D01*
X45933Y32906D01*
X45933Y32893D01*
X45928Y32881D01*
X45928Y32810D01*
X45933Y32798D01*
X45933Y32785D01*
X45960Y32720D01*
X45969Y32711D01*
X45974Y32699D01*
X46024Y32649D01*
X46036Y32644D01*
X46045Y32635D01*
X46110Y32608D01*
X46123Y32608D01*
X46135Y32603D01*
X46171Y32603D01*
X46206Y32603D01*
X46218Y32608D01*
X46231Y32608D01*
X46296Y32635D01*
X46305Y32645D01*
X46317Y32649D01*
X46367Y32699D01*
X46372Y32711D01*
X46381Y32720D01*
X46408Y32786D01*
X46408Y32798D01*
X46413Y32810D01*
X46413Y32881D01*
X46408Y32893D01*
X46408Y32906D01*
X46381Y32971D01*
X46372Y32980D01*
X46367Y32992D01*
X46317Y33042D01*
X46305Y33047D01*
X46296Y33056D01*
X46231Y33083D01*
X46218Y33083D01*
X46206Y33088D01*
D02*
G37*
G36*
X21100Y33373D02*
X21034Y33360D01*
X20977Y33323D01*
X20940Y33266D01*
X20927Y33200D01*
X20940Y33134D01*
X20977Y33077D01*
X21034Y33040D01*
X21073Y33032D01*
X21349Y32756D01*
Y32574D01*
X21340Y32561D01*
X21327Y32494D01*
X21340Y32428D01*
X21377Y32372D01*
X21434Y32334D01*
X21500Y32321D01*
X21566Y32334D01*
X21623Y32372D01*
X21660Y32428D01*
X21673Y32494D01*
X21660Y32561D01*
X21624Y32614D01*
Y32813D01*
X21624Y32813D01*
X21614Y32866D01*
X21584Y32911D01*
X21268Y33227D01*
X21260Y33266D01*
X21223Y33323D01*
X21166Y33360D01*
X21100Y33373D01*
D02*
G37*
G36*
X18448Y32818D02*
X18340Y32804D01*
X18239Y32762D01*
X18153Y32696D01*
X18086Y32609D01*
X18044Y32508D01*
X18030Y32400D01*
X18044Y32292D01*
X18086Y32191D01*
X18153Y32104D01*
X18239Y32038D01*
X18340Y31996D01*
X18448Y31982D01*
X18556Y31996D01*
X18657Y32038D01*
X18744Y32104D01*
X18810Y32191D01*
X18852Y32292D01*
X18866Y32400D01*
X18852Y32508D01*
X18810Y32609D01*
X18744Y32696D01*
X18657Y32762D01*
X18556Y32804D01*
X18448Y32818D01*
D02*
G37*
G36*
X32400Y33873D02*
X32334Y33860D01*
X32277Y33823D01*
X32240Y33766D01*
X32227Y33700D01*
X32240Y33634D01*
X32277Y33577D01*
X32288Y33570D01*
Y32130D01*
X32277Y32123D01*
X32240Y32066D01*
X32227Y32000D01*
X32240Y31934D01*
X32277Y31877D01*
X32334Y31840D01*
X32400Y31827D01*
X32466Y31840D01*
X32523Y31877D01*
X32560Y31934D01*
X32573Y32000D01*
X32560Y32066D01*
X32523Y32123D01*
X32512Y32130D01*
Y33570D01*
X32523Y33577D01*
X32560Y33634D01*
X32573Y33700D01*
X32560Y33766D01*
X32523Y33823D01*
X32466Y33860D01*
X32400Y33873D01*
D02*
G37*
G36*
X43602Y33112D02*
X43534Y33103D01*
X43470Y33077D01*
X43458Y33067D01*
X43392D01*
Y33004D01*
X43374Y32981D01*
X43348Y32918D01*
X43339Y32850D01*
Y32574D01*
X43339Y32574D01*
X43348Y32507D01*
X43374Y32443D01*
X43416Y32389D01*
X43891Y31915D01*
X43891Y31915D01*
X43920Y31892D01*
Y31562D01*
X42915D01*
X42915Y32100D01*
X42896Y32146D01*
X42850Y32165D01*
X42732D01*
Y32354D01*
X41668D01*
Y32059D01*
X41454Y31846D01*
X41435Y31800D01*
X41435Y30435D01*
X41454Y30389D01*
X41489Y30354D01*
X41535Y30335D01*
X42850Y30335D01*
X42896Y30354D01*
X42915Y30400D01*
X42915Y31038D01*
X44151D01*
X44151Y31038D01*
X44219Y31047D01*
X44282Y31073D01*
X44336Y31115D01*
X44354Y31133D01*
X44410D01*
Y31196D01*
X44428Y31219D01*
X44454Y31282D01*
X44463Y31350D01*
X44454Y31418D01*
X44445Y31440D01*
Y32008D01*
X44455Y32032D01*
X44464Y32100D01*
X44455Y32168D01*
X44429Y32231D01*
X44411Y32254D01*
Y32317D01*
X44345D01*
X44333Y32327D01*
X44269Y32353D01*
X44202Y32362D01*
X44202Y32362D01*
X44185D01*
X43864Y32683D01*
Y32850D01*
X43855Y32918D01*
X43829Y32981D01*
X43811Y33004D01*
Y33067D01*
X43745D01*
X43733Y33077D01*
X43669Y33103D01*
X43602Y33112D01*
D02*
G37*
%LPD*%
G36*
X41600Y43050D02*
Y42400D01*
X41550Y42350D01*
X40050D01*
X39810Y42350D01*
X39700Y42442D01*
X39700Y43100D01*
X39775Y43175D01*
X41425D01*
X41450Y43200D01*
X41600Y43050D01*
D02*
G37*
G36*
X42250Y40450D02*
X42000Y40200D01*
X41700Y40200D01*
Y39350D01*
X41300Y38950D01*
X40300Y38950D01*
Y41050D01*
X40423Y41173D01*
X40466Y41147D01*
X40450Y41100D01*
X40550Y41200D01*
X42250D01*
Y40450D01*
D02*
G37*
G36*
X41949Y36122D02*
X41777Y35950D01*
X41184D01*
X41084Y36050D01*
Y36400D01*
X40484Y37000D01*
X40334D01*
Y37600D01*
X40386Y37652D01*
X40386D01*
X40386Y37652D01*
X41949D01*
Y36122D01*
D02*
G37*
G36*
X42850Y30400D02*
X41535Y30400D01*
X41500Y30435D01*
X41500Y31800D01*
X41800Y32100D01*
X42850D01*
X42850Y30400D01*
D02*
G37*
D11*
X30600Y35350D02*
X32236D01*
X32853Y35967D01*
X26800Y35284D02*
Y40400D01*
Y35284D02*
X27306Y34779D01*
X44100Y39150D02*
X46572D01*
X47095Y36758D02*
Y38650D01*
X47072D02*
X47095D01*
X46572Y39150D02*
X47072Y38650D01*
X46703Y36366D02*
X47095Y36758D01*
X32316Y41873D02*
X32738Y41451D01*
X32584Y38200D02*
X32738Y38353D01*
Y41451D01*
X27962Y41754D02*
X28081Y41873D01*
X32316D01*
X27522Y42051D02*
X27774Y42302D01*
X32598D01*
X33187Y41713D01*
X32853Y35967D02*
Y36867D01*
X32956Y36969D01*
Y41592D01*
X32448Y42100D02*
X32956Y41592D01*
X33187Y36897D02*
Y41713D01*
X33050Y35864D02*
Y36760D01*
X33187Y36897D01*
X32641Y35454D02*
X33050Y35864D01*
X32748Y42500D02*
X33402Y41845D01*
X33337Y36604D02*
Y36637D01*
X33402Y36702D01*
Y41845D01*
X32641Y35423D02*
Y35454D01*
X32800Y42700D02*
X33625Y41875D01*
Y36457D02*
Y41875D01*
X33500Y36332D02*
X33625Y36457D01*
X33500Y36300D02*
Y36332D01*
X32900Y42900D02*
X33884Y41916D01*
X33700Y36085D02*
X33884Y36269D01*
Y41916D01*
X32950Y43100D02*
X34080Y41970D01*
X33600Y35566D02*
X34080Y36046D01*
Y41970D01*
X33999Y35641D02*
X34279Y35922D01*
Y42071D01*
X33050Y43300D02*
X34279Y42071D01*
X33700Y36062D02*
Y36085D01*
X33100Y43498D02*
X34474Y42124D01*
X34330Y35486D02*
X34474Y35629D01*
Y42124D01*
X23306Y41800D02*
X24106Y42601D01*
X24700D01*
X35500Y37550D02*
X39582D01*
X34738Y35388D02*
Y36800D01*
X34750D01*
X35500Y37550D01*
X34500Y35150D02*
X34738Y35388D01*
X23800Y41388D02*
X23900Y41288D01*
X32400Y38500D02*
X32500Y38600D01*
X32300Y38500D02*
X32400D01*
X32500Y38600D02*
Y41414D01*
X33600Y35497D02*
Y35566D01*
X33987Y35486D02*
X33999Y35497D01*
Y35641D01*
X32254Y41660D02*
X32500Y41414D01*
X32273Y37750D02*
Y38138D01*
X30084Y37909D02*
X31450D01*
X29626Y37451D02*
X30084Y37909D01*
X29626Y32626D02*
Y37451D01*
X25918Y34850D02*
X26567Y35500D01*
Y38972D01*
X28883Y41660D02*
X32254D01*
X28750Y41527D02*
X28883Y41660D01*
X27966Y42100D02*
X32448D01*
X27306Y41193D02*
X27443Y41330D01*
Y41577D01*
X27966Y42100D01*
X23817Y41404D02*
Y41783D01*
X23800Y41388D02*
X23817Y41404D01*
X21806Y41685D02*
X22176Y42056D01*
X22533D02*
X22687Y42210D01*
X22176Y42056D02*
X22533D01*
X30950Y35150D02*
X34500D01*
X27052Y42900D02*
X32900D01*
X26656Y43100D02*
X32950D01*
X27300Y42700D02*
X32800D01*
X31723Y38164D02*
X31936Y37950D01*
X29865Y38164D02*
X31723D01*
X30101Y37074D02*
X30277Y37250D01*
X30101Y32501D02*
Y37074D01*
X30277Y37250D02*
Y37590D01*
X28200Y30600D02*
X30101Y32501D01*
X29900Y32600D02*
Y37414D01*
X28000Y31000D02*
X29626Y32626D01*
X29397Y37695D02*
X29865Y38164D01*
X29397Y32747D02*
Y37695D01*
X27850Y31200D02*
X29397Y32747D01*
X28900Y35945D02*
X29152Y36198D01*
Y37802D02*
X29720Y38370D01*
X29152Y36198D02*
Y37802D01*
X28100Y30800D02*
X29900Y32600D01*
X25725Y30275D02*
X25871Y30421D01*
X28321D01*
X30350Y32450D01*
X23361Y34611D02*
X23600Y34850D01*
X24150D02*
X24400Y35100D01*
X25900D01*
X23600Y34850D02*
X24150D01*
X24310Y34111D02*
Y34650D01*
X24510Y34850D02*
X25918D01*
X24310Y34650D02*
X24510Y34850D01*
X26374Y35574D02*
Y38650D01*
X26200Y38824D02*
X26374Y38650D01*
X26200Y38824D02*
Y39268D01*
X25900Y35100D02*
X26374Y35574D01*
X32041Y38370D02*
X32273Y38138D01*
X24800Y32749D02*
Y34001D01*
X39582Y37550D02*
X40484Y38452D01*
X29720Y38370D02*
X32041D01*
X31450Y39100D02*
Y41318D01*
X31500Y41368D01*
Y41400D01*
X21306Y33500D02*
X21900Y32906D01*
X21306Y33500D02*
Y34107D01*
X22306Y32494D02*
Y34107D01*
Y32494D02*
X23800Y31000D01*
X23900Y31200D02*
X27850D01*
X22550Y32550D02*
Y33350D01*
Y32550D02*
X23900Y31200D01*
X22550Y33350D02*
X22802Y33602D01*
Y34103D01*
X22806Y34107D01*
X21900Y32300D02*
X23600Y30600D01*
X21900Y32300D02*
Y32906D01*
X22100Y32400D02*
X23700Y30800D01*
X21806Y33350D02*
Y34107D01*
X22100Y32400D02*
Y33056D01*
X21806Y33350D02*
X22100Y33056D01*
X22700Y42451D02*
X23363D01*
X22263Y43049D02*
X22350Y42962D01*
Y42509D02*
X22409Y42451D01*
X22700D01*
X22350Y42509D02*
Y42962D01*
X21987Y43049D02*
X22263D01*
X22687Y42210D02*
Y42438D01*
X22700Y42451D01*
X21806Y41193D02*
Y41685D01*
X22306Y41193D02*
Y41800D01*
X44800Y33125D02*
X44854Y33071D01*
Y32948D02*
X44952Y32850D01*
X44800Y33125D02*
Y33655D01*
X44854Y32948D02*
Y33071D01*
X44269Y35976D02*
X44300Y35945D01*
X44269Y35976D02*
Y36619D01*
X44238Y36650D02*
X44269Y36619D01*
X42750Y42049D02*
X43200D01*
X43450Y41799D01*
Y39800D02*
Y41799D01*
Y42300D01*
X43000Y42750D02*
X43450Y42300D01*
X41950Y42750D02*
X43000D01*
X43450Y39800D02*
X44100Y39150D01*
X30350Y34550D02*
X30950Y35150D01*
X30350Y32450D02*
Y34550D01*
X25750Y32912D02*
Y34051D01*
X25806Y34107D01*
X40484Y38452D02*
X42750D01*
X42013Y39200D02*
X42750D01*
X41950Y39263D02*
X42013Y39200D01*
X41950Y39263D02*
Y39350D01*
X42750Y39200D02*
Y40050D01*
X28750Y39650D02*
Y41527D01*
X28500Y39400D02*
X28750Y39650D01*
X27894Y39400D02*
X28500D01*
X24306Y34107D02*
X24310Y34111D01*
X23306Y34107D02*
X23361Y34162D01*
Y34611D01*
X23600Y30600D02*
X28200D01*
X23700Y30800D02*
X28100D01*
X27940Y35945D02*
X28900D01*
X27894Y35900D02*
X27940Y35945D01*
X27306Y34107D02*
Y34779D01*
X23306Y41193D02*
Y41800D01*
X23806Y41193D02*
X23900Y41288D01*
X25461Y41906D02*
X25461D01*
X26656Y43100D01*
X25348Y41792D02*
X25461Y41906D01*
X24840Y41792D02*
X26348Y43300D01*
X33050D01*
X24443Y41814D02*
X26127Y43498D01*
X33100D01*
X25806Y41193D02*
Y41420D01*
X25934Y41548D01*
Y41783D01*
X27052Y42900D01*
X25348Y41462D02*
Y41792D01*
X24840Y41228D02*
Y41792D01*
X24443Y41330D02*
Y41814D01*
X24306Y41193D02*
X24443Y41330D01*
X24806Y41193D02*
X24840Y41228D01*
X25306Y41420D02*
X25348Y41462D01*
X26806Y41193D02*
Y41756D01*
X27550Y42500D01*
X26306Y41706D02*
X27300Y42700D01*
X26306Y41193D02*
Y41706D01*
X27550Y42500D02*
X32748D01*
X23800Y31000D02*
X28000D01*
X25306Y33450D02*
Y34107D01*
X24800Y34001D02*
X24850Y34051D01*
X24800Y34101D02*
X24850Y34051D01*
X24800Y34101D02*
X24806Y34107D01*
X32400Y32100D02*
Y33700D01*
X44200Y32850D02*
X44952D01*
X47331Y43678D02*
X47350D01*
X47331D02*
X47331Y29922D01*
X47350Y29900D01*
X17800Y43700D02*
X47328D01*
X17800D02*
X17800Y29900D01*
X47350D01*
D15*
X46348Y35523D02*
G03*
X46348Y35523I-177J0D01*
G01*
Y32846D02*
G03*
X46348Y32846I-177J0D01*
G01*
X45024Y42438D02*
G03*
X45024Y42438I-148J0D01*
G01*
Y40162D02*
G03*
X45024Y40162I-148J0D01*
G01*
D16*
X20561Y43049D02*
D03*
Y42451D02*
D03*
X21274Y43049D02*
D03*
Y42451D02*
D03*
X21987Y42451D02*
D03*
Y43049D02*
D03*
X22700Y43049D02*
D03*
Y42451D02*
D03*
X42750Y41500D02*
D03*
Y42098D02*
D03*
Y40648D02*
D03*
Y40050D02*
D03*
D18*
X43640Y36650D02*
D03*
X44238D02*
D03*
X45550D02*
D03*
X44952D02*
D03*
X45550Y37400D02*
D03*
X44952D02*
D03*
X43602Y32850D02*
D03*
X44200D02*
D03*
X44952D02*
D03*
X45550D02*
D03*
X44800Y32100D02*
D03*
X44202D02*
D03*
X44799Y31350D02*
D03*
X44201D02*
D03*
D26*
X40450Y42750D02*
D03*
X40950D02*
D03*
X41450D02*
D03*
X41950D02*
D03*
Y40781D02*
D03*
X41450D02*
D03*
X40950D02*
D03*
X40450D02*
D03*
Y39350D02*
D03*
X40950D02*
D03*
X41450D02*
D03*
X41950D02*
D03*
Y37381D02*
D03*
X41450D02*
D03*
X40950D02*
D03*
X40450D02*
D03*
D28*
X43616Y38826D02*
D03*
X42750Y39200D02*
D03*
Y38452D02*
D03*
D52*
X37050Y40781D02*
X37457D01*
X36232D02*
X37050D01*
X35150Y39700D02*
X36232Y40781D01*
X31600Y38950D02*
X32200D01*
X31450Y39100D02*
X31600Y38950D01*
X37150Y41088D02*
Y41150D01*
Y41088D02*
X37457Y40781D01*
X37150Y41150D02*
Y41500D01*
X37457Y40781D02*
X40450D01*
X41982Y40648D02*
X42750D01*
X41950Y40680D02*
X41982Y40648D01*
X41950Y40680D02*
Y40781D01*
D53*
X44900Y35945D02*
Y37099D01*
X44900Y37099D02*
Y37600D01*
X44900Y37099D02*
X44900Y37099D01*
X44900Y35945D02*
X45300D01*
X42217Y37600D02*
X44900D01*
X42132Y37515D02*
X42217Y37600D01*
D55*
X21274Y42451D02*
X21274Y42451D01*
X20918Y42451D02*
X21274D01*
X20561D02*
X20918D01*
X21274Y42451D02*
X21274Y42451D01*
X21987D02*
X21987Y42451D01*
X20561Y42451D02*
X20561Y42451D01*
X21274Y42451D02*
X21987D01*
D56*
X34725Y34275D02*
X35300Y34850D01*
Y35909D01*
X35054Y37850D02*
Y38904D01*
X35300Y39150D01*
X33200Y34100D02*
X33231Y34069D01*
X38300Y34350D02*
Y35350D01*
X38225Y34275D02*
X38300Y34350D01*
X34150Y33700D02*
X34725Y34275D01*
X38225D01*
X33231Y33700D02*
Y34069D01*
Y32000D02*
Y33700D01*
X34150D01*
X41951Y41500D02*
X42750D01*
X41450Y42001D02*
X41951Y41500D01*
X41450Y42001D02*
Y42750D01*
D58*
X44847Y40536D02*
Y41900D01*
Y40527D02*
Y40536D01*
X44820Y40500D02*
X44847Y40527D01*
D60*
X20918Y42406D02*
X21306Y42018D01*
Y35256D02*
Y41193D01*
Y42018D01*
X21274Y42451D02*
X21306Y42419D01*
X20918Y42406D02*
Y42451D01*
X21487Y32508D02*
Y32813D01*
X21100Y33200D02*
X21487Y32813D01*
Y32508D02*
X21500Y32494D01*
D63*
X18448Y32400D02*
D03*
D64*
X44668Y39599D02*
D03*
Y43001D02*
D03*
D65*
X46313D02*
D03*
Y39599D02*
D03*
D66*
X18900Y42600D02*
D03*
X46250Y31000D02*
D03*
D67*
X19712Y42438D02*
D03*
X19652Y42946D02*
D03*
X19305Y43322D02*
D03*
X18803Y43422D02*
D03*
X18339Y43208D02*
D03*
X18088Y42762D02*
D03*
X18148Y42254D02*
D03*
X18495Y41878D02*
D03*
X18997Y41778D02*
D03*
X19461Y41992D02*
D03*
X46412Y31812D02*
D03*
X45904Y31752D02*
D03*
X45528Y31405D02*
D03*
X45428Y30903D02*
D03*
X45642Y30439D02*
D03*
X46088Y30188D02*
D03*
X46596Y30248D02*
D03*
X46972Y30595D02*
D03*
X47072Y31097D02*
D03*
X46858Y31561D02*
D03*
D68*
X46500Y42000D02*
D03*
X46000Y41000D02*
D03*
X46500Y40000D02*
D03*
X46000Y35000D02*
D03*
X45500Y40000D02*
D03*
Y32000D02*
D03*
X45000Y31000D02*
D03*
X44000Y43000D02*
D03*
X43000Y41000D02*
D03*
X43500Y36000D02*
D03*
X43000Y35000D02*
D03*
Y33000D02*
D03*
X43500Y32000D02*
D03*
X42500Y36000D02*
D03*
X42000Y35000D02*
D03*
Y33000D02*
D03*
X41000Y35000D02*
D03*
X40500Y42000D02*
D03*
X40000Y37000D02*
D03*
X40500Y36000D02*
D03*
X40000Y35000D02*
D03*
Y33000D02*
D03*
X39000Y43000D02*
D03*
Y37000D02*
D03*
X39500Y36000D02*
D03*
X39000Y33000D02*
D03*
X39500Y32000D02*
D03*
X38000Y43000D02*
D03*
X38500Y42000D02*
D03*
Y40000D02*
D03*
X38000Y39000D02*
D03*
X38500Y38000D02*
D03*
X38000Y37000D02*
D03*
X38500Y34000D02*
D03*
X38000Y33000D02*
D03*
Y31000D02*
D03*
X37000Y39000D02*
D03*
Y37000D02*
D03*
Y31000D02*
D03*
X36000Y39000D02*
D03*
Y37000D02*
D03*
X36500Y32000D02*
D03*
X36000Y31000D02*
D03*
X35000Y41000D02*
D03*
X35500Y32000D02*
D03*
X35000Y31000D02*
D03*
X34500Y32000D02*
D03*
X34000Y31000D02*
D03*
X32000D02*
D03*
X31500Y34000D02*
D03*
Y32000D02*
D03*
X31000Y31000D02*
D03*
X30500Y32000D02*
D03*
X30000Y31000D02*
D03*
X28500Y34000D02*
D03*
X28000Y33000D02*
D03*
X27000D02*
D03*
X27500Y32000D02*
D03*
X26500Y40000D02*
D03*
X26000Y37000D02*
D03*
X26500Y32000D02*
D03*
X25500Y40000D02*
D03*
X25000Y39000D02*
D03*
X25500Y38000D02*
D03*
X25000Y37000D02*
D03*
X25500Y36000D02*
D03*
Y32000D02*
D03*
X24000Y43000D02*
D03*
X24500Y40000D02*
D03*
X24000Y37000D02*
D03*
X24500Y36000D02*
D03*
X24000Y33000D02*
D03*
X24500Y32000D02*
D03*
X23500Y40000D02*
D03*
X23000Y37000D02*
D03*
X23500Y36000D02*
D03*
X23000Y35000D02*
D03*
Y33000D02*
D03*
X23500Y32000D02*
D03*
X22500Y40000D02*
D03*
X22000Y39000D02*
D03*
X22500Y38000D02*
D03*
X22000Y37000D02*
D03*
X22500Y36000D02*
D03*
X22000Y35000D02*
D03*
Y31000D02*
D03*
X21000Y39000D02*
D03*
Y37000D02*
D03*
X20500Y42000D02*
D03*
X20000Y41000D02*
D03*
Y39000D02*
D03*
X20500Y38000D02*
D03*
X20000Y37000D02*
D03*
X20500Y36000D02*
D03*
X20000Y35000D02*
D03*
Y31000D02*
D03*
X19000Y39000D02*
D03*
X19500Y38000D02*
D03*
X19000Y37000D02*
D03*
X19500Y36000D02*
D03*
X19000Y35000D02*
D03*
X19500Y34000D02*
D03*
X18000Y41000D02*
D03*
Y39000D02*
D03*
X18500Y38000D02*
D03*
X18000Y37000D02*
D03*
X18500Y36000D02*
D03*
X18000Y35000D02*
D03*
X18500Y34000D02*
D03*
X18000Y33000D02*
D03*
Y31000D02*
D03*
X30600Y35350D02*
D03*
X26800Y40400D02*
D03*
X46703Y36366D02*
D03*
X35089Y37577D02*
D03*
X33337Y36604D02*
D03*
X32641Y35423D02*
D03*
X27522Y42051D02*
D03*
X24700Y42601D02*
D03*
X35300Y35909D02*
D03*
X35150Y39700D02*
D03*
X32584Y38200D02*
D03*
X32300Y38500D02*
D03*
X32200Y38950D02*
D03*
X33700Y36062D02*
D03*
X33600Y35497D02*
D03*
X32273Y37750D02*
D03*
X31450Y37909D02*
D03*
X26567Y38972D02*
D03*
X27962Y41754D02*
D03*
X23817Y41783D02*
D03*
X34330Y35486D02*
D03*
X33987D02*
D03*
X33500Y36300D02*
D03*
X31936Y37950D02*
D03*
X29900Y37414D02*
D03*
X30277Y37590D02*
D03*
X25725Y30275D02*
D03*
X26200Y39268D02*
D03*
X35088Y36300D02*
D03*
X44847Y40536D02*
D03*
X24800Y32749D02*
D03*
X37150Y41150D02*
D03*
Y41500D02*
D03*
X37050Y40781D02*
D03*
X37457D02*
D03*
X44847Y41900D02*
D03*
X42700Y30550D02*
D03*
X42350D02*
D03*
X42000D02*
D03*
X41650D02*
D03*
X42700Y30900D02*
D03*
X42350D02*
D03*
X42000D02*
D03*
X41650D02*
D03*
X35054Y37850D02*
D03*
Y38904D02*
D03*
X35300Y39150D02*
D03*
X21300Y39800D02*
D03*
X38300Y35350D02*
D03*
X31450Y39100D02*
D03*
X31500Y41400D02*
D03*
X21500Y32494D02*
D03*
X33215Y34085D02*
D03*
X33231Y32000D02*
D03*
X32400D02*
D03*
X40150Y42584D02*
D03*
X39850D02*
D03*
X40150Y42884D02*
D03*
X39850D02*
D03*
X40466Y39850D02*
D03*
X40950D02*
D03*
Y40200D02*
D03*
X40475D02*
D03*
X21100Y33200D02*
D03*
X21306Y35256D02*
D03*
X22306Y41800D02*
D03*
X23363Y42451D02*
D03*
X25750Y32912D02*
D03*
X25306Y33450D02*
D03*
X32400Y33700D02*
D03*
D69*
X24381Y37689D02*
D03*
Y38241D02*
D03*
Y38792D02*
D03*
X23279D02*
D03*
Y38241D02*
D03*
Y37689D02*
D03*
X23830D02*
D03*
Y38792D02*
D03*
Y38241D02*
D03*
D70*
X20806Y34107D02*
D03*
X21306D02*
D03*
X21806D02*
D03*
X22306D02*
D03*
X22806D02*
D03*
X23306D02*
D03*
X23806D02*
D03*
X24306D02*
D03*
X24806D02*
D03*
X25306D02*
D03*
X25806D02*
D03*
X26306D02*
D03*
X26806D02*
D03*
X27306D02*
D03*
Y41193D02*
D03*
X26806D02*
D03*
X26306D02*
D03*
X25806D02*
D03*
X25306D02*
D03*
X24806D02*
D03*
X24306D02*
D03*
X23806D02*
D03*
X23306D02*
D03*
X22806D02*
D03*
X22306D02*
D03*
X21806D02*
D03*
X21306D02*
D03*
X20806D02*
D03*
D71*
X27894Y35400D02*
D03*
Y35900D02*
D03*
Y36400D02*
D03*
Y36900D02*
D03*
Y37400D02*
D03*
Y37900D02*
D03*
Y38400D02*
D03*
Y38900D02*
D03*
Y39400D02*
D03*
Y39900D02*
D03*
D72*
X41481Y35823D02*
D03*
Y34209D02*
D03*
D73*
X44550Y34800D02*
D03*
D74*
X43800Y33655D02*
D03*
X44300D02*
D03*
X44800D02*
D03*
X45300D02*
D03*
Y35945D02*
D03*
X44800D02*
D03*
X44300D02*
D03*
X43800D02*
D03*
D75*
X40625Y31900D02*
D03*
X42200D02*
D03*
D76*
X40625Y33718D02*
X41116Y34209D01*
X43246D02*
X43800Y33655D01*
X41116Y34209D02*
X43246D01*
X40625Y31900D02*
Y33718D01*
D77*
X43602Y32574D02*
Y32850D01*
Y32574D02*
X44076Y32100D01*
X44202D01*
X44182Y32081D02*
X44202Y32100D01*
X44182Y31368D02*
X44201Y31350D01*
X44182Y31368D02*
Y32081D01*
X42800Y31300D02*
X44151D01*
X42472Y31628D02*
X42800Y31300D01*
X44151D02*
X44201Y31350D01*
X42200Y31900D02*
X42279D01*
X42472Y31706D01*
Y31628D02*
Y31706D01*
M02*
