G04*
G04 #@! TF.GenerationSoftware,Altium Limited,Altium Designer,20.0.13 (296)*
G04*
G04 Layer_Color=32896*
%FSLAX24Y24*%
%MOIN*%
G70*
G01*
G75*
%ADD10C,0.0079*%
%ADD11C,0.0100*%
%ADD12C,0.0059*%
%ADD14C,0.0050*%
%ADD15C,0.0002*%
D10*
X40550Y43400D02*
G03*
X40550Y43400I-98J0D01*
G01*
Y40000D02*
G03*
X40550Y40000I-98J0D01*
G01*
X42830Y31309D02*
Y32491D01*
X39995Y31467D02*
Y32333D01*
Y31467D02*
X40153Y31309D01*
X39995Y32333D02*
X40153Y32491D01*
Y31309D02*
X42830D01*
X40153Y32491D02*
X42830D01*
D11*
X43424Y35784D02*
G03*
X43424Y35784I-67J0D01*
G01*
X43566Y34485D02*
G03*
X43566Y35115I-148J315D01*
G01*
X20337Y41193D02*
X20538D01*
X27903Y40168D02*
Y41193D01*
X27574D02*
X27903D01*
X27574Y34100D02*
X27903D01*
Y35132D01*
X20337Y34100D02*
X20538D01*
X20337Y34107D02*
Y41193D01*
X17863Y34107D02*
Y41193D01*
X20403D01*
X17863Y34107D02*
X20409D01*
X42504Y33953D02*
X42504Y36079D01*
X40457D02*
X40457Y33953D01*
X40457Y36079D02*
X40897D01*
X42064D02*
X42504D01*
X42064Y33953D02*
X42504D01*
X40457D02*
X40897D01*
X43546Y35115D02*
Y35607D01*
Y33993D02*
Y34485D01*
X43546Y35607D02*
X45554D01*
Y33993D02*
Y35607D01*
X43546Y33993D02*
X45554D01*
X47331Y43678D02*
X47350D01*
X47331D02*
X47331Y29922D01*
X47350Y29900D01*
X17800Y43700D02*
X47328D01*
X17800D02*
X17800Y29900D01*
X47350D01*
D12*
X40550Y42022D02*
G03*
X40550Y42022I-98J0D01*
G01*
X40237Y41608D02*
G03*
X40237Y41923I0J157D01*
G01*
X40550Y38622D02*
G03*
X40550Y38622I-98J0D01*
G01*
X40237Y38208D02*
G03*
X40237Y38523I0J157D01*
G01*
X20286Y42927D02*
Y43325D01*
X20837D01*
Y42927D02*
Y43325D01*
X20286Y42175D02*
Y42573D01*
Y42175D02*
X20837D01*
Y42573D01*
X20999Y42927D02*
Y43325D01*
X21550D01*
Y42927D02*
Y43325D01*
X20999Y42175D02*
Y42573D01*
Y42175D02*
X21550D01*
Y42573D01*
X21712Y42175D02*
X22263D01*
X21712D02*
Y43325D01*
X22263Y42175D02*
Y43325D01*
X21712D02*
X22263D01*
X22424Y42927D02*
Y43325D01*
X22976D01*
Y42927D02*
Y43325D01*
X22424Y42175D02*
Y42573D01*
Y42175D02*
X22976D01*
Y42573D01*
X40231Y41333D02*
Y42199D01*
Y41333D02*
X42168D01*
Y42199D01*
X40231D02*
X42168D01*
X42474Y41224D02*
X43026D01*
X42474D02*
Y42374D01*
X43026Y41224D02*
Y42374D01*
X42474D02*
X43026D01*
X42474Y40924D02*
X43026D01*
Y39774D02*
Y40924D01*
X42474Y39774D02*
Y40924D01*
Y39774D02*
X43026D01*
X40231Y37933D02*
Y38799D01*
Y37933D02*
X42168D01*
Y38799D01*
X40231D02*
X42168D01*
X42907Y38747D02*
Y38905D01*
X43144Y38275D02*
X43459D01*
Y38511D01*
X43144Y39377D02*
X43459D01*
Y39141D02*
Y39377D01*
X43364Y36374D02*
Y36926D01*
X44514D01*
X43364Y36374D02*
X44514D01*
Y36926D01*
X45428D02*
X45826D01*
Y36374D02*
Y36926D01*
X45428Y36374D02*
X45826D01*
X44676Y36926D02*
X45074D01*
X44676Y36374D02*
Y36926D01*
Y36374D02*
X45074D01*
X45428Y37676D02*
X45826D01*
Y37124D02*
Y37676D01*
X45428Y37124D02*
X45826D01*
X44676Y37676D02*
X45074D01*
X44676Y37124D02*
Y37676D01*
Y37124D02*
X45074D01*
X43326Y32574D02*
Y33126D01*
X44476D01*
X43326Y32574D02*
X44476D01*
Y33126D01*
X44676Y32574D02*
Y33126D01*
X45826D01*
X44676Y32574D02*
X45826D01*
Y33126D01*
X44678Y32376D02*
X45076D01*
Y31824D02*
Y32376D01*
X44678Y31824D02*
X45076D01*
X43926Y32376D02*
X44324D01*
X43926Y31824D02*
Y32376D01*
Y31824D02*
X44324D01*
X44677Y31626D02*
X45075D01*
Y31074D02*
Y31626D01*
X44677Y31074D02*
X45075D01*
X43925Y31626D02*
X44323D01*
X43925Y31074D02*
Y31626D01*
Y31074D02*
X44323D01*
X42930Y31022D02*
Y31365D01*
X42759Y31193D02*
X43102D01*
D14*
X23916Y42752D02*
X23966Y42702D01*
Y42602D01*
X23916Y42552D01*
X23717D01*
X23667Y42602D01*
Y42702D01*
X23717Y42752D01*
X23667Y42852D02*
Y42952D01*
Y42902D01*
X23966D01*
X23916Y42852D01*
X23667Y43252D02*
X23966D01*
X23817Y43102D01*
Y43302D01*
X28700Y41450D02*
Y41200D01*
X28650Y41150D01*
X28550D01*
X28500Y41200D01*
Y41450D01*
X28200D02*
X28400D01*
Y41300D01*
X28300Y41350D01*
X28250D01*
X28200Y41300D01*
Y41200D01*
X28250Y41150D01*
X28350D01*
X28400Y41200D01*
X44250Y37150D02*
Y37450D01*
X44100D01*
X44050Y37400D01*
Y37300D01*
X44100Y37250D01*
X44250D01*
X44150D02*
X44050Y37150D01*
X43750Y37450D02*
X43950D01*
Y37300D01*
X43850Y37350D01*
X43800D01*
X43750Y37300D01*
Y37200D01*
X43800Y37150D01*
X43900D01*
X43950Y37200D01*
X39850Y38900D02*
Y39100D01*
X39900Y39150D01*
X40000D01*
X40050Y39100D01*
Y38900D01*
X40000Y38850D01*
X39900D01*
X39950Y38950D02*
X39850Y38850D01*
X39900D02*
X39850Y38900D01*
X39550Y38850D02*
X39750D01*
X39550Y39050D01*
Y39100D01*
X39600Y39150D01*
X39700D01*
X39750Y39100D01*
X39850Y41922D02*
Y42122D01*
X39900Y42172D01*
X40000D01*
X40050Y42122D01*
Y41922D01*
X40000Y41872D01*
X39900D01*
X39950Y41972D02*
X39850Y41872D01*
X39900D02*
X39850Y41922D01*
X39750Y41872D02*
X39650D01*
X39700D01*
Y42172D01*
X39750Y42122D01*
X42600Y36700D02*
Y36400D01*
X42400D01*
X42300D02*
X42200D01*
X42250D01*
Y36700D01*
X42300Y36650D01*
X40450Y31150D02*
Y30850D01*
X40300D01*
X40250Y30900D01*
Y31100D01*
X40300Y31150D01*
X40450D01*
X40150Y30850D02*
X40050D01*
X40100D01*
Y31150D01*
X40150Y31100D01*
X21350Y42000D02*
X21400Y42050D01*
X21500D01*
X21550Y42000D01*
Y41800D01*
X21500Y41750D01*
X21400D01*
X21350Y41800D01*
X21250D02*
X21200Y41750D01*
X21100D01*
X21050Y41800D01*
Y42000D01*
X21100Y42050D01*
X21200D01*
X21250Y42000D01*
Y41950D01*
X21200Y41900D01*
X21050D01*
X20587Y41978D02*
X20637Y42028D01*
X20737D01*
X20787Y41978D01*
Y41778D01*
X20737Y41728D01*
X20637D01*
X20587Y41778D01*
X20488Y41978D02*
X20438Y42028D01*
X20338D01*
X20288Y41978D01*
Y41928D01*
X20338Y41878D01*
X20288Y41828D01*
Y41778D01*
X20338Y41728D01*
X20438D01*
X20488Y41778D01*
Y41828D01*
X20438Y41878D01*
X20488Y41928D01*
Y41978D01*
X20438Y41878D02*
X20338D01*
X43600Y31500D02*
X43650Y31550D01*
X43750D01*
X43800Y31500D01*
Y31300D01*
X43750Y31250D01*
X43650D01*
X43600Y31300D01*
X43300Y31550D02*
X43400Y31500D01*
X43500Y31400D01*
Y31300D01*
X43450Y31250D01*
X43350D01*
X43300Y31300D01*
Y31350D01*
X43350Y31400D01*
X43500D01*
X43596Y32150D02*
X43646Y32200D01*
X43746D01*
X43796Y32150D01*
Y31950D01*
X43746Y31900D01*
X43646D01*
X43596Y31950D01*
X43296Y32200D02*
X43496D01*
Y32050D01*
X43396Y32100D01*
X43346D01*
X43296Y32050D01*
Y31950D01*
X43346Y31900D01*
X43446D01*
X43496Y31950D01*
X46346Y36800D02*
X46396Y36850D01*
X46496D01*
X46546Y36800D01*
Y36600D01*
X46496Y36550D01*
X46396D01*
X46346Y36600D01*
X46096Y36550D02*
Y36850D01*
X46246Y36700D01*
X46046D01*
X46346Y37550D02*
X46396Y37600D01*
X46496D01*
X46546Y37550D01*
Y37350D01*
X46496Y37300D01*
X46396D01*
X46346Y37350D01*
X46246Y37550D02*
X46196Y37600D01*
X46096D01*
X46046Y37550D01*
Y37500D01*
X46096Y37450D01*
X46146D01*
X46096D01*
X46046Y37400D01*
Y37350D01*
X46096Y37300D01*
X46196D01*
X46246Y37350D01*
X46200Y36100D02*
Y35850D01*
X46150Y35800D01*
X46050D01*
X46000Y35850D01*
Y36100D01*
X45700Y35800D02*
X45900D01*
X45700Y36000D01*
Y36050D01*
X45750Y36100D01*
X45850D01*
X45900Y36050D01*
X43250Y41425D02*
X43550D01*
Y41575D01*
X43500Y41625D01*
X43400D01*
X43350Y41575D01*
Y41425D01*
Y41525D02*
X43250Y41625D01*
Y41725D02*
Y41825D01*
Y41775D01*
X43550D01*
X43500Y41725D01*
X43250Y42125D02*
X43550D01*
X43400Y41975D01*
Y42175D01*
X43200Y39975D02*
X43500D01*
Y40125D01*
X43450Y40175D01*
X43350D01*
X43300Y40125D01*
Y39975D01*
Y40075D02*
X43200Y40175D01*
Y40275D02*
Y40375D01*
Y40325D01*
X43500D01*
X43450Y40275D01*
X43500Y40725D02*
X43450Y40625D01*
X43350Y40525D01*
X43250D01*
X43200Y40575D01*
Y40675D01*
X43250Y40725D01*
X43300D01*
X43350Y40675D01*
Y40525D01*
X23214Y42602D02*
X23513D01*
Y42752D01*
X23463Y42802D01*
X23363D01*
X23314Y42752D01*
Y42602D01*
Y42702D02*
X23214Y42802D01*
Y42902D02*
Y43002D01*
Y42952D01*
X23513D01*
X23463Y42902D01*
X23214Y43152D02*
Y43252D01*
Y43202D01*
X23513D01*
X23463Y43152D01*
X46154Y33250D02*
Y33550D01*
X46004D01*
X45954Y33500D01*
Y33400D01*
X46004Y33350D01*
X46154D01*
X46054D02*
X45954Y33250D01*
X45854Y33500D02*
X45804Y33550D01*
X45704D01*
X45654Y33500D01*
Y33450D01*
X45704Y33400D01*
X45754D01*
X45704D01*
X45654Y33350D01*
Y33300D01*
X45704Y33250D01*
X45804D01*
X45854Y33300D01*
X43150Y32750D02*
Y33050D01*
X43000D01*
X42950Y33000D01*
Y32900D01*
X43000Y32850D01*
X43150D01*
X43050D02*
X42950Y32750D01*
X42850D02*
X42750D01*
X42800D01*
Y33050D01*
X42850Y33000D01*
X42957Y37833D02*
Y38033D01*
X43007Y38083D01*
X43107D01*
X43157Y38033D01*
Y37833D01*
X43107Y37783D01*
X43007D01*
X43057Y37883D02*
X42957Y37783D01*
X43007D02*
X42957Y37833D01*
X42857Y38033D02*
X42808Y38083D01*
X42708D01*
X42658Y38033D01*
Y37983D01*
X42708Y37933D01*
X42758D01*
X42708D01*
X42658Y37883D01*
Y37833D01*
X42708Y37783D01*
X42808D01*
X42857Y37833D01*
D15*
X46348Y35523D02*
G03*
X46348Y35523I-177J0D01*
G01*
Y32846D02*
G03*
X46348Y32846I-177J0D01*
G01*
X45024Y42438D02*
G03*
X45024Y42438I-148J0D01*
G01*
Y40162D02*
G03*
X45024Y40162I-148J0D01*
G01*
M02*
