G04*
G04 #@! TF.GenerationSoftware,Altium Limited,Altium Designer,20.0.13 (296)*
G04*
G04 Layer_Color=128*
%FSLAX24Y24*%
%MOIN*%
G70*
G01*
G75*
%ADD11C,0.0100*%
%ADD15C,0.0002*%
%ADD87C,0.0020*%
D11*
X47331Y43678D02*
X47350D01*
X47331D02*
X47331Y29922D01*
X47350Y29900D01*
X17800Y43700D02*
X47328D01*
X17800D02*
X17800Y29900D01*
X47350D01*
D15*
X46348Y35523D02*
G03*
X46348Y35523I-177J0D01*
G01*
Y32846D02*
G03*
X46348Y32846I-177J0D01*
G01*
X45024Y42438D02*
G03*
X45024Y42438I-148J0D01*
G01*
Y40162D02*
G03*
X45024Y40162I-148J0D01*
G01*
D87*
X18212Y32400D02*
X18684D01*
X18448Y32164D02*
Y32636D01*
X44530Y39599D02*
X44806D01*
X44668Y39461D02*
Y39737D01*
X44530Y43001D02*
X44806D01*
X44668Y42863D02*
Y43139D01*
X46176Y43001D02*
X46451D01*
X46313Y42863D02*
Y43139D01*
X46176Y39599D02*
X46451D01*
X46313Y39461D02*
Y39737D01*
X18300Y42600D02*
X19500D01*
X18900Y42000D02*
Y43200D01*
X19602Y42438D02*
X19822D01*
X19712Y42328D02*
Y42548D01*
X19542Y42946D02*
X19762D01*
X19652Y42836D02*
Y43056D01*
X19195Y43322D02*
X19415D01*
X19305Y43212D02*
Y43432D01*
X18693Y43422D02*
X18913D01*
X18803Y43312D02*
Y43532D01*
X18229Y43208D02*
X18449D01*
X18339Y43098D02*
Y43318D01*
X17978Y42762D02*
X18198D01*
X18088Y42652D02*
Y42872D01*
X18038Y42254D02*
X18258D01*
X18148Y42144D02*
Y42364D01*
X18385Y41878D02*
X18605D01*
X18495Y41768D02*
Y41988D01*
X18887Y41778D02*
X19107D01*
X18997Y41668D02*
Y41888D01*
X19351Y41992D02*
X19571D01*
X19461Y41882D02*
Y42102D01*
X45650Y31000D02*
X46850D01*
X46250Y30400D02*
Y31600D01*
X46302Y31812D02*
X46522D01*
X46412Y31702D02*
Y31922D01*
X45794Y31752D02*
X46014D01*
X45904Y31642D02*
Y31862D01*
X45418Y31405D02*
X45638D01*
X45528Y31295D02*
Y31515D01*
X45318Y30903D02*
X45538D01*
X45428Y30793D02*
Y31013D01*
X45532Y30439D02*
X45752D01*
X45642Y30329D02*
Y30549D01*
X45978Y30188D02*
X46198D01*
X46088Y30078D02*
Y30298D01*
X46486Y30248D02*
X46706D01*
X46596Y30138D02*
Y30358D01*
X46862Y30595D02*
X47082D01*
X46972Y30485D02*
Y30705D01*
X46962Y31097D02*
X47182D01*
X47072Y30987D02*
Y31207D01*
X46748Y31561D02*
X46968D01*
X46858Y31451D02*
Y31671D01*
X46440Y42000D02*
X46560D01*
X46500Y41940D02*
Y42060D01*
X45940Y41000D02*
X46060D01*
X46000Y40940D02*
Y41060D01*
X46440Y40000D02*
X46560D01*
X46500Y39940D02*
Y40060D01*
X45940Y35000D02*
X46060D01*
X46000Y34940D02*
Y35060D01*
X45440Y40000D02*
X45560D01*
X45500Y39940D02*
Y40060D01*
X45440Y32000D02*
X45560D01*
X45500Y31940D02*
Y32060D01*
X44940Y31000D02*
X45060D01*
X45000Y30940D02*
Y31060D01*
X43940Y43000D02*
X44060D01*
X44000Y42940D02*
Y43060D01*
X42940Y41000D02*
X43060D01*
X43000Y40940D02*
Y41060D01*
X43440Y36000D02*
X43560D01*
X43500Y35940D02*
Y36060D01*
X42940Y35000D02*
X43060D01*
X43000Y34940D02*
Y35060D01*
X42940Y33000D02*
X43060D01*
X43000Y32940D02*
Y33060D01*
X43440Y32000D02*
X43560D01*
X43500Y31940D02*
Y32060D01*
X42440Y36000D02*
X42560D01*
X42500Y35940D02*
Y36060D01*
X41940Y35000D02*
X42060D01*
X42000Y34940D02*
Y35060D01*
X41940Y33000D02*
X42060D01*
X42000Y32940D02*
Y33060D01*
X40940Y35000D02*
X41060D01*
X41000Y34940D02*
Y35060D01*
X40440Y42000D02*
X40560D01*
X40500Y41940D02*
Y42060D01*
X39940Y37000D02*
X40060D01*
X40000Y36940D02*
Y37060D01*
X40440Y36000D02*
X40560D01*
X40500Y35940D02*
Y36060D01*
X39940Y35000D02*
X40060D01*
X40000Y34940D02*
Y35060D01*
X39940Y33000D02*
X40060D01*
X40000Y32940D02*
Y33060D01*
X38940Y43000D02*
X39060D01*
X39000Y42940D02*
Y43060D01*
X38940Y37000D02*
X39060D01*
X39000Y36940D02*
Y37060D01*
X39440Y36000D02*
X39560D01*
X39500Y35940D02*
Y36060D01*
X38940Y33000D02*
X39060D01*
X39000Y32940D02*
Y33060D01*
X39440Y32000D02*
X39560D01*
X39500Y31940D02*
Y32060D01*
X37940Y43000D02*
X38060D01*
X38000Y42940D02*
Y43060D01*
X38440Y42000D02*
X38560D01*
X38500Y41940D02*
Y42060D01*
X38440Y40000D02*
X38560D01*
X38500Y39940D02*
Y40060D01*
X37940Y39000D02*
X38060D01*
X38000Y38940D02*
Y39060D01*
X38440Y38000D02*
X38560D01*
X38500Y37940D02*
Y38060D01*
X37940Y37000D02*
X38060D01*
X38000Y36940D02*
Y37060D01*
X38440Y34000D02*
X38560D01*
X38500Y33940D02*
Y34060D01*
X37940Y33000D02*
X38060D01*
X38000Y32940D02*
Y33060D01*
X37940Y31000D02*
X38060D01*
X38000Y30940D02*
Y31060D01*
X36940Y39000D02*
X37060D01*
X37000Y38940D02*
Y39060D01*
X36940Y37000D02*
X37060D01*
X37000Y36940D02*
Y37060D01*
X36940Y31000D02*
X37060D01*
X37000Y30940D02*
Y31060D01*
X35940Y39000D02*
X36060D01*
X36000Y38940D02*
Y39060D01*
X35940Y37000D02*
X36060D01*
X36000Y36940D02*
Y37060D01*
X36440Y32000D02*
X36560D01*
X36500Y31940D02*
Y32060D01*
X35940Y31000D02*
X36060D01*
X36000Y30940D02*
Y31060D01*
X34940Y41000D02*
X35060D01*
X35000Y40940D02*
Y41060D01*
X35440Y32000D02*
X35560D01*
X35500Y31940D02*
Y32060D01*
X34940Y31000D02*
X35060D01*
X35000Y30940D02*
Y31060D01*
X34440Y32000D02*
X34560D01*
X34500Y31940D02*
Y32060D01*
X33940Y31000D02*
X34060D01*
X34000Y30940D02*
Y31060D01*
X31940Y31000D02*
X32060D01*
X32000Y30940D02*
Y31060D01*
X31440Y34000D02*
X31560D01*
X31500Y33940D02*
Y34060D01*
X31440Y32000D02*
X31560D01*
X31500Y31940D02*
Y32060D01*
X30940Y31000D02*
X31060D01*
X31000Y30940D02*
Y31060D01*
X30440Y32000D02*
X30560D01*
X30500Y31940D02*
Y32060D01*
X29940Y31000D02*
X30060D01*
X30000Y30940D02*
Y31060D01*
X28440Y34000D02*
X28560D01*
X28500Y33940D02*
Y34060D01*
X27940Y33000D02*
X28060D01*
X28000Y32940D02*
Y33060D01*
X26940Y33000D02*
X27060D01*
X27000Y32940D02*
Y33060D01*
X27440Y32000D02*
X27560D01*
X27500Y31940D02*
Y32060D01*
X26440Y40000D02*
X26560D01*
X26500Y39940D02*
Y40060D01*
X25940Y37000D02*
X26060D01*
X26000Y36940D02*
Y37060D01*
X26440Y32000D02*
X26560D01*
X26500Y31940D02*
Y32060D01*
X25440Y40000D02*
X25560D01*
X25500Y39940D02*
Y40060D01*
X24940Y39000D02*
X25060D01*
X25000Y38940D02*
Y39060D01*
X25440Y38000D02*
X25560D01*
X25500Y37940D02*
Y38060D01*
X24940Y37000D02*
X25060D01*
X25000Y36940D02*
Y37060D01*
X25440Y36000D02*
X25560D01*
X25500Y35940D02*
Y36060D01*
X25440Y32000D02*
X25560D01*
X25500Y31940D02*
Y32060D01*
X23940Y43000D02*
X24060D01*
X24000Y42940D02*
Y43060D01*
X24440Y40000D02*
X24560D01*
X24500Y39940D02*
Y40060D01*
X23940Y37000D02*
X24060D01*
X24000Y36940D02*
Y37060D01*
X24440Y36000D02*
X24560D01*
X24500Y35940D02*
Y36060D01*
X23940Y33000D02*
X24060D01*
X24000Y32940D02*
Y33060D01*
X24440Y32000D02*
X24560D01*
X24500Y31940D02*
Y32060D01*
X23440Y40000D02*
X23560D01*
X23500Y39940D02*
Y40060D01*
X22940Y37000D02*
X23060D01*
X23000Y36940D02*
Y37060D01*
X23440Y36000D02*
X23560D01*
X23500Y35940D02*
Y36060D01*
X22940Y35000D02*
X23060D01*
X23000Y34940D02*
Y35060D01*
X22940Y33000D02*
X23060D01*
X23000Y32940D02*
Y33060D01*
X23440Y32000D02*
X23560D01*
X23500Y31940D02*
Y32060D01*
X22440Y40000D02*
X22560D01*
X22500Y39940D02*
Y40060D01*
X21940Y39000D02*
X22060D01*
X22000Y38940D02*
Y39060D01*
X22440Y38000D02*
X22560D01*
X22500Y37940D02*
Y38060D01*
X21940Y37000D02*
X22060D01*
X22000Y36940D02*
Y37060D01*
X22440Y36000D02*
X22560D01*
X22500Y35940D02*
Y36060D01*
X21940Y35000D02*
X22060D01*
X22000Y34940D02*
Y35060D01*
X21940Y31000D02*
X22060D01*
X22000Y30940D02*
Y31060D01*
X20940Y39000D02*
X21060D01*
X21000Y38940D02*
Y39060D01*
X20940Y37000D02*
X21060D01*
X21000Y36940D02*
Y37060D01*
X20440Y42000D02*
X20560D01*
X20500Y41940D02*
Y42060D01*
X19940Y41000D02*
X20060D01*
X20000Y40940D02*
Y41060D01*
X19940Y39000D02*
X20060D01*
X20000Y38940D02*
Y39060D01*
X20440Y38000D02*
X20560D01*
X20500Y37940D02*
Y38060D01*
X19940Y37000D02*
X20060D01*
X20000Y36940D02*
Y37060D01*
X20440Y36000D02*
X20560D01*
X20500Y35940D02*
Y36060D01*
X19940Y35000D02*
X20060D01*
X20000Y34940D02*
Y35060D01*
X19940Y31000D02*
X20060D01*
X20000Y30940D02*
Y31060D01*
X18940Y39000D02*
X19060D01*
X19000Y38940D02*
Y39060D01*
X19440Y38000D02*
X19560D01*
X19500Y37940D02*
Y38060D01*
X18940Y37000D02*
X19060D01*
X19000Y36940D02*
Y37060D01*
X19440Y36000D02*
X19560D01*
X19500Y35940D02*
Y36060D01*
X18940Y35000D02*
X19060D01*
X19000Y34940D02*
Y35060D01*
X19440Y34000D02*
X19560D01*
X19500Y33940D02*
Y34060D01*
X17940Y41000D02*
X18060D01*
X18000Y40940D02*
Y41060D01*
X17940Y39000D02*
X18060D01*
X18000Y38940D02*
Y39060D01*
X18440Y38000D02*
X18560D01*
X18500Y37940D02*
Y38060D01*
X17940Y37000D02*
X18060D01*
X18000Y36940D02*
Y37060D01*
X18440Y36000D02*
X18560D01*
X18500Y35940D02*
Y36060D01*
X17940Y35000D02*
X18060D01*
X18000Y34940D02*
Y35060D01*
X18440Y34000D02*
X18560D01*
X18500Y33940D02*
Y34060D01*
X17940Y33000D02*
X18060D01*
X18000Y32940D02*
Y33060D01*
X17940Y31000D02*
X18060D01*
X18000Y30940D02*
Y31060D01*
X30540Y35350D02*
X30660D01*
X30600Y35290D02*
Y35410D01*
X26740Y40400D02*
X26860D01*
X26800Y40340D02*
Y40460D01*
X46643Y36366D02*
X46763D01*
X46703Y36306D02*
Y36426D01*
X35029Y37577D02*
X35149D01*
X35089Y37517D02*
Y37637D01*
X33277Y36604D02*
X33397D01*
X33337Y36544D02*
Y36664D01*
X32581Y35423D02*
X32701D01*
X32641Y35363D02*
Y35483D01*
X27462Y42051D02*
X27582D01*
X27522Y41991D02*
Y42111D01*
X24640Y42601D02*
X24760D01*
X24700Y42541D02*
Y42661D01*
X35240Y35909D02*
X35360D01*
X35300Y35849D02*
Y35969D01*
X35090Y39700D02*
X35210D01*
X35150Y39640D02*
Y39760D01*
X32524Y38200D02*
X32644D01*
X32584Y38140D02*
Y38260D01*
X32240Y38500D02*
X32360D01*
X32300Y38440D02*
Y38560D01*
X32140Y38950D02*
X32260D01*
X32200Y38890D02*
Y39010D01*
X33640Y36062D02*
X33760D01*
X33700Y36002D02*
Y36122D01*
X33540Y35497D02*
X33660D01*
X33600Y35437D02*
Y35557D01*
X32213Y37750D02*
X32333D01*
X32273Y37690D02*
Y37810D01*
X31390Y37909D02*
X31510D01*
X31450Y37849D02*
Y37969D01*
X26507Y38972D02*
X26627D01*
X26567Y38912D02*
Y39032D01*
X27902Y41754D02*
X28022D01*
X27962Y41694D02*
Y41814D01*
X23757Y41783D02*
X23877D01*
X23817Y41723D02*
Y41843D01*
X34270Y35486D02*
X34390D01*
X34330Y35426D02*
Y35546D01*
X33927Y35486D02*
X34047D01*
X33987Y35426D02*
Y35546D01*
X33440Y36300D02*
X33560D01*
X33500Y36240D02*
Y36360D01*
X31876Y37950D02*
X31996D01*
X31936Y37890D02*
Y38010D01*
X29840Y37414D02*
X29960D01*
X29900Y37354D02*
Y37474D01*
X30217Y37590D02*
X30337D01*
X30277Y37530D02*
Y37650D01*
X25665Y30275D02*
X25785D01*
X25725Y30215D02*
Y30335D01*
X26140Y39268D02*
X26260D01*
X26200Y39208D02*
Y39328D01*
X35028Y36300D02*
X35148D01*
X35088Y36240D02*
Y36360D01*
X44787Y40536D02*
X44907D01*
X44847Y40476D02*
Y40596D01*
X24740Y32749D02*
X24860D01*
X24800Y32689D02*
Y32809D01*
X37090Y41150D02*
X37210D01*
X37150Y41090D02*
Y41210D01*
X37090Y41500D02*
X37210D01*
X37150Y41440D02*
Y41560D01*
X36990Y40781D02*
X37110D01*
X37050Y40722D02*
Y40841D01*
X37397Y40781D02*
X37517D01*
X37457Y40722D02*
Y40841D01*
X44787Y41900D02*
X44907D01*
X44847Y41840D02*
Y41960D01*
X42640Y30550D02*
X42760D01*
X42700Y30490D02*
Y30610D01*
X42290Y30550D02*
X42410D01*
X42350Y30490D02*
Y30610D01*
X41940Y30550D02*
X42060D01*
X42000Y30490D02*
Y30610D01*
X41590Y30550D02*
X41710D01*
X41650Y30490D02*
Y30610D01*
X42640Y30900D02*
X42760D01*
X42700Y30840D02*
Y30960D01*
X42290Y30900D02*
X42410D01*
X42350Y30840D02*
Y30960D01*
X41940Y30900D02*
X42060D01*
X42000Y30840D02*
Y30960D01*
X41590Y30900D02*
X41710D01*
X41650Y30840D02*
Y30960D01*
X34994Y37850D02*
X35114D01*
X35054Y37790D02*
Y37910D01*
X34994Y38904D02*
X35114D01*
X35054Y38844D02*
Y38964D01*
X35240Y39150D02*
X35360D01*
X35300Y39090D02*
Y39210D01*
X21240Y39800D02*
X21360D01*
X21300Y39740D02*
Y39860D01*
X38240Y35350D02*
X38360D01*
X38300Y35290D02*
Y35410D01*
X31390Y39100D02*
X31510D01*
X31450Y39040D02*
Y39160D01*
X31440Y41400D02*
X31560D01*
X31500Y41340D02*
Y41460D01*
X21440Y32494D02*
X21560D01*
X21500Y32434D02*
Y32554D01*
X33155Y34085D02*
X33275D01*
X33215Y34025D02*
Y34145D01*
X33171Y32000D02*
X33291D01*
X33231Y31940D02*
Y32060D01*
X32340Y32000D02*
X32460D01*
X32400Y31940D02*
Y32060D01*
X40090Y42584D02*
X40210D01*
X40150Y42524D02*
Y42644D01*
X39790Y42584D02*
X39910D01*
X39850Y42524D02*
Y42644D01*
X40090Y42884D02*
X40210D01*
X40150Y42824D02*
Y42944D01*
X39790Y42884D02*
X39910D01*
X39850Y42824D02*
Y42944D01*
X40406Y39850D02*
X40526D01*
X40466Y39790D02*
Y39910D01*
X40890Y39850D02*
X41010D01*
X40950Y39790D02*
Y39910D01*
X40890Y40200D02*
X41010D01*
X40950Y40140D02*
Y40260D01*
X40415Y40200D02*
X40535D01*
X40475Y40140D02*
Y40260D01*
X21040Y33200D02*
X21160D01*
X21100Y33140D02*
Y33260D01*
X21246Y35256D02*
X21366D01*
X21306Y35196D02*
Y35316D01*
X22246Y41800D02*
X22366D01*
X22306Y41740D02*
Y41860D01*
X23303Y42451D02*
X23423D01*
X23363Y42391D02*
Y42511D01*
X25690Y32912D02*
X25810D01*
X25750Y32852D02*
Y32973D01*
X25246Y33450D02*
X25366D01*
X25306Y33390D02*
Y33510D01*
X32340Y33700D02*
X32460D01*
X32400Y33640D02*
Y33760D01*
M02*
