G04*
G04 #@! TF.GenerationSoftware,Altium Limited,Altium Designer,20.0.13 (296)*
G04*
G04 Layer_Color=8421504*
%FSLAX24Y24*%
%MOIN*%
G70*
G01*
G75*
%ADD11C,0.0100*%
%ADD15C,0.0002*%
%ADD16R,0.0315X0.0299*%
%ADD17R,0.0551X0.0236*%
%ADD18R,0.0299X0.0315*%
%ADD19R,0.0472X0.0472*%
%ADD20R,0.0965X0.0472*%
%ADD21R,0.0315X0.0394*%
%ADD22R,0.0551X0.1496*%
%ADD23R,0.0630X0.1378*%
%ADD24R,0.0236X0.0787*%
%ADD25R,0.0984X0.1181*%
%ADD26O,0.0236X0.0866*%
%ADD27O,0.0866X0.0236*%
%ADD28R,0.0551X0.0394*%
G36*
X46462Y43217D02*
X46473Y43216D01*
X46484Y43215D01*
X46494Y43213D01*
X46505Y43211D01*
X46515Y43208D01*
X46525Y43204D01*
X46535Y43200D01*
X46545Y43196D01*
X46555Y43191D01*
X46564Y43186D01*
X46573Y43180D01*
X46582Y43173D01*
X46590Y43167D01*
X46599Y43160D01*
X46606Y43152D01*
X46614Y43144D01*
X46621Y43136D01*
X46627Y43127D01*
X46633Y43118D01*
X46639Y43109D01*
X46644Y43100D01*
X46649Y43090D01*
X46653Y43080D01*
X46657Y43070D01*
X46660Y43059D01*
X46662Y43049D01*
X46665Y43038D01*
X46666Y43028D01*
X46667Y43017D01*
X46668Y43006D01*
Y42995D01*
X46667Y42985D01*
X46666Y42974D01*
X46665Y42963D01*
X46662Y42953D01*
X46660Y42942D01*
X46657Y42932D01*
X46653Y42922D01*
X46649Y42912D01*
X46644Y42902D01*
X46639Y42893D01*
X46633Y42883D01*
X46627Y42874D01*
X46621Y42866D01*
X46614Y42858D01*
X46606Y42850D01*
X46599Y42842D01*
X46590Y42835D01*
X46582Y42828D01*
X46573Y42822D01*
X46564Y42816D01*
X46555Y42811D01*
X46545Y42806D01*
X46535Y42801D01*
X46525Y42797D01*
X46515Y42794D01*
X46505Y42791D01*
X46494Y42789D01*
X46484Y42787D01*
X46473Y42785D01*
X46462Y42785D01*
X46451Y42784D01*
X46176D01*
X46165Y42785D01*
X46154Y42785D01*
X46143Y42787D01*
X46133Y42789D01*
X46122Y42791D01*
X46112Y42794D01*
X46102Y42797D01*
X46092Y42801D01*
X46082Y42806D01*
X46072Y42811D01*
X46063Y42816D01*
X46054Y42822D01*
X46045Y42828D01*
X46036Y42835D01*
X46028Y42842D01*
X46021Y42850D01*
X46013Y42858D01*
X46006Y42866D01*
X46000Y42874D01*
X45994Y42883D01*
X45988Y42893D01*
X45983Y42902D01*
X45978Y42912D01*
X45974Y42922D01*
X45970Y42932D01*
X45967Y42942D01*
X45965Y42953D01*
X45962Y42963D01*
X45961Y42974D01*
X45960Y42985D01*
X45959Y42995D01*
Y43006D01*
X45960Y43017D01*
X45961Y43028D01*
X45962Y43038D01*
X45965Y43049D01*
X45967Y43059D01*
X45970Y43070D01*
X45974Y43080D01*
X45978Y43090D01*
X45983Y43100D01*
X45988Y43109D01*
X45994Y43118D01*
X46000Y43127D01*
X46006Y43136D01*
X46013Y43144D01*
X46021Y43152D01*
X46028Y43160D01*
X46036Y43167D01*
X46045Y43173D01*
X46054Y43180D01*
X46063Y43186D01*
X46072Y43191D01*
X46082Y43196D01*
X46092Y43200D01*
X46102Y43204D01*
X46112Y43208D01*
X46122Y43211D01*
X46133Y43213D01*
X46143Y43215D01*
X46154Y43216D01*
X46165Y43217D01*
X46176Y43217D01*
X46451D01*
X46462Y43217D01*
D02*
G37*
G36*
X44856D02*
X44866Y43216D01*
X44877Y43215D01*
X44888Y43213D01*
X44898Y43211D01*
X44909Y43208D01*
X44919Y43204D01*
X44929Y43200D01*
X44939Y43196D01*
X44948Y43191D01*
X44958Y43186D01*
X44967Y43180D01*
X44976Y43173D01*
X44984Y43167D01*
X44992Y43160D01*
X45000Y43152D01*
X45007Y43144D01*
X45014Y43136D01*
X45021Y43127D01*
X45027Y43118D01*
X45032Y43109D01*
X45038Y43100D01*
X45042Y43090D01*
X45046Y43080D01*
X45050Y43070D01*
X45053Y43059D01*
X45056Y43049D01*
X45058Y43038D01*
X45060Y43028D01*
X45061Y43017D01*
X45061Y43006D01*
Y42995D01*
X45061Y42985D01*
X45060Y42974D01*
X45058Y42963D01*
X45056Y42953D01*
X45053Y42942D01*
X45050Y42932D01*
X45046Y42922D01*
X45042Y42912D01*
X45038Y42902D01*
X45032Y42893D01*
X45027Y42883D01*
X45021Y42874D01*
X45014Y42866D01*
X45007Y42858D01*
X45000Y42850D01*
X44992Y42842D01*
X44984Y42835D01*
X44976Y42828D01*
X44967Y42822D01*
X44958Y42816D01*
X44948Y42811D01*
X44939Y42806D01*
X44929Y42801D01*
X44919Y42797D01*
X44909Y42794D01*
X44898Y42791D01*
X44888Y42789D01*
X44877Y42787D01*
X44866Y42785D01*
X44856Y42785D01*
X44845Y42784D01*
X44491D01*
X44480Y42785D01*
X44469Y42785D01*
X44458Y42787D01*
X44448Y42789D01*
X44437Y42791D01*
X44427Y42794D01*
X44417Y42797D01*
X44406Y42801D01*
X44397Y42806D01*
X44387Y42811D01*
X44378Y42816D01*
X44369Y42822D01*
X44360Y42828D01*
X44351Y42835D01*
X44343Y42842D01*
X44336Y42850D01*
X44328Y42858D01*
X44321Y42866D01*
X44315Y42874D01*
X44309Y42883D01*
X44303Y42893D01*
X44298Y42902D01*
X44293Y42912D01*
X44289Y42922D01*
X44285Y42932D01*
X44282Y42942D01*
X44279Y42953D01*
X44277Y42963D01*
X44276Y42974D01*
X44275Y42985D01*
X44274Y42995D01*
Y43006D01*
X44275Y43017D01*
X44276Y43028D01*
X44277Y43038D01*
X44279Y43049D01*
X44282Y43059D01*
X44285Y43070D01*
X44289Y43080D01*
X44293Y43090D01*
X44298Y43100D01*
X44303Y43109D01*
X44309Y43118D01*
X44315Y43127D01*
X44321Y43136D01*
X44328Y43144D01*
X44336Y43152D01*
X44343Y43160D01*
X44351Y43167D01*
X44360Y43173D01*
X44369Y43180D01*
X44378Y43186D01*
X44387Y43191D01*
X44397Y43196D01*
X44406Y43200D01*
X44417Y43204D01*
X44427Y43208D01*
X44437Y43211D01*
X44448Y43213D01*
X44458Y43215D01*
X44469Y43216D01*
X44480Y43217D01*
X44491Y43217D01*
X44845D01*
X44856Y43217D01*
D02*
G37*
G36*
X44582Y42461D02*
X43992D01*
Y42698D01*
X44582D01*
Y42461D01*
D02*
G37*
G36*
X44582Y42146D02*
X43992D01*
Y42383D01*
X44582D01*
Y42146D01*
D02*
G37*
G36*
X44582Y41930D02*
X43992D01*
Y42048D01*
X44582D01*
Y41930D01*
D02*
G37*
G36*
X44582Y41733D02*
X43991D01*
Y41851D01*
X44582D01*
Y41733D01*
D02*
G37*
G36*
X44582Y41536D02*
X43992D01*
Y41654D01*
X44582D01*
Y41536D01*
D02*
G37*
G36*
Y41339D02*
X43992D01*
Y41457D01*
X44582D01*
Y41339D01*
D02*
G37*
G36*
Y41143D02*
X43992D01*
Y41261D01*
X44582D01*
Y41143D01*
D02*
G37*
G36*
Y40946D02*
X43992D01*
Y41064D01*
X44582D01*
Y40946D01*
D02*
G37*
G36*
Y40749D02*
X43992D01*
Y40867D01*
X44582D01*
Y40749D01*
D02*
G37*
G36*
X44582Y40552D02*
X43991D01*
Y40670D01*
X44582D01*
Y40552D01*
D02*
G37*
G36*
X44582Y40217D02*
X43992D01*
Y40453D01*
X44582D01*
Y40217D01*
D02*
G37*
G36*
Y39902D02*
X43992D01*
Y40138D01*
X44582D01*
Y39902D01*
D02*
G37*
G36*
X46462Y39815D02*
X46473Y39815D01*
X46484Y39813D01*
X46494Y39811D01*
X46505Y39809D01*
X46515Y39806D01*
X46525Y39803D01*
X46535Y39799D01*
X46545Y39794D01*
X46555Y39789D01*
X46564Y39784D01*
X46573Y39778D01*
X46582Y39772D01*
X46590Y39765D01*
X46599Y39758D01*
X46606Y39750D01*
X46614Y39742D01*
X46621Y39734D01*
X46627Y39726D01*
X46633Y39717D01*
X46639Y39707D01*
X46644Y39698D01*
X46649Y39688D01*
X46653Y39678D01*
X46657Y39668D01*
X46660Y39658D01*
X46662Y39647D01*
X46665Y39637D01*
X46666Y39626D01*
X46667Y39615D01*
X46668Y39605D01*
Y39594D01*
X46667Y39583D01*
X46666Y39572D01*
X46665Y39562D01*
X46662Y39551D01*
X46660Y39541D01*
X46657Y39530D01*
X46653Y39520D01*
X46649Y39510D01*
X46644Y39500D01*
X46639Y39491D01*
X46633Y39482D01*
X46627Y39473D01*
X46621Y39464D01*
X46614Y39456D01*
X46606Y39448D01*
X46599Y39440D01*
X46590Y39433D01*
X46582Y39427D01*
X46573Y39420D01*
X46564Y39414D01*
X46555Y39409D01*
X46545Y39404D01*
X46535Y39400D01*
X46525Y39396D01*
X46515Y39392D01*
X46505Y39389D01*
X46494Y39387D01*
X46484Y39385D01*
X46473Y39384D01*
X46462Y39383D01*
X46451Y39383D01*
X46176D01*
X46165Y39383D01*
X46154Y39384D01*
X46143Y39385D01*
X46133Y39387D01*
X46122Y39389D01*
X46112Y39392D01*
X46102Y39396D01*
X46092Y39400D01*
X46082Y39404D01*
X46072Y39409D01*
X46063Y39414D01*
X46054Y39420D01*
X46045Y39427D01*
X46036Y39433D01*
X46028Y39440D01*
X46021Y39448D01*
X46013Y39456D01*
X46006Y39464D01*
X46000Y39473D01*
X45994Y39482D01*
X45988Y39491D01*
X45983Y39500D01*
X45978Y39510D01*
X45974Y39520D01*
X45970Y39530D01*
X45967Y39541D01*
X45965Y39551D01*
X45962Y39562D01*
X45961Y39572D01*
X45960Y39583D01*
X45959Y39594D01*
Y39605D01*
X45960Y39615D01*
X45961Y39626D01*
X45962Y39637D01*
X45965Y39647D01*
X45967Y39658D01*
X45970Y39668D01*
X45974Y39678D01*
X45978Y39688D01*
X45983Y39698D01*
X45988Y39707D01*
X45994Y39717D01*
X46000Y39726D01*
X46006Y39734D01*
X46013Y39742D01*
X46021Y39750D01*
X46028Y39758D01*
X46036Y39765D01*
X46045Y39772D01*
X46054Y39778D01*
X46063Y39784D01*
X46072Y39789D01*
X46082Y39794D01*
X46092Y39799D01*
X46102Y39803D01*
X46112Y39806D01*
X46122Y39809D01*
X46133Y39811D01*
X46143Y39813D01*
X46154Y39815D01*
X46165Y39815D01*
X46176Y39816D01*
X46451D01*
X46462Y39815D01*
D02*
G37*
G36*
X44856D02*
X44866Y39815D01*
X44877Y39813D01*
X44888Y39811D01*
X44898Y39809D01*
X44909Y39806D01*
X44919Y39803D01*
X44929Y39799D01*
X44939Y39794D01*
X44948Y39789D01*
X44958Y39784D01*
X44967Y39778D01*
X44976Y39772D01*
X44984Y39765D01*
X44992Y39758D01*
X45000Y39750D01*
X45007Y39742D01*
X45014Y39734D01*
X45021Y39726D01*
X45027Y39717D01*
X45032Y39707D01*
X45038Y39698D01*
X45042Y39688D01*
X45046Y39678D01*
X45050Y39668D01*
X45053Y39658D01*
X45056Y39647D01*
X45058Y39637D01*
X45060Y39626D01*
X45061Y39615D01*
X45061Y39605D01*
Y39594D01*
X45061Y39583D01*
X45060Y39572D01*
X45058Y39562D01*
X45056Y39551D01*
X45053Y39541D01*
X45050Y39530D01*
X45046Y39520D01*
X45042Y39510D01*
X45038Y39500D01*
X45032Y39491D01*
X45027Y39482D01*
X45021Y39473D01*
X45014Y39464D01*
X45007Y39456D01*
X45000Y39448D01*
X44992Y39440D01*
X44984Y39433D01*
X44976Y39427D01*
X44967Y39420D01*
X44958Y39414D01*
X44948Y39409D01*
X44939Y39404D01*
X44929Y39400D01*
X44919Y39396D01*
X44909Y39392D01*
X44898Y39389D01*
X44888Y39387D01*
X44877Y39385D01*
X44866Y39384D01*
X44856Y39383D01*
X44845Y39383D01*
X44491D01*
X44480Y39383D01*
X44469Y39384D01*
X44458Y39385D01*
X44448Y39387D01*
X44437Y39389D01*
X44427Y39392D01*
X44417Y39396D01*
X44406Y39400D01*
X44397Y39404D01*
X44387Y39409D01*
X44378Y39414D01*
X44369Y39420D01*
X44360Y39427D01*
X44351Y39433D01*
X44343Y39440D01*
X44336Y39448D01*
X44328Y39456D01*
X44321Y39464D01*
X44315Y39473D01*
X44309Y39482D01*
X44303Y39491D01*
X44298Y39500D01*
X44293Y39510D01*
X44289Y39520D01*
X44285Y39530D01*
X44282Y39541D01*
X44279Y39551D01*
X44277Y39562D01*
X44276Y39572D01*
X44275Y39583D01*
X44274Y39594D01*
Y39605D01*
X44275Y39615D01*
X44276Y39626D01*
X44277Y39637D01*
X44279Y39647D01*
X44282Y39658D01*
X44285Y39668D01*
X44289Y39678D01*
X44293Y39688D01*
X44298Y39698D01*
X44303Y39707D01*
X44309Y39717D01*
X44315Y39726D01*
X44321Y39734D01*
X44328Y39742D01*
X44336Y39750D01*
X44343Y39758D01*
X44351Y39765D01*
X44360Y39772D01*
X44369Y39778D01*
X44378Y39784D01*
X44387Y39789D01*
X44397Y39794D01*
X44406Y39799D01*
X44417Y39803D01*
X44427Y39806D01*
X44437Y39809D01*
X44448Y39811D01*
X44458Y39813D01*
X44469Y39815D01*
X44480Y39815D01*
X44491Y39816D01*
X44845D01*
X44856Y39815D01*
D02*
G37*
G36*
X19865Y32813D02*
X19038D01*
Y33168D01*
X19865D01*
Y32813D01*
D02*
G37*
G36*
X18458Y32754D02*
X18468Y32754D01*
X18478Y32753D01*
X18488Y32752D01*
X18498Y32751D01*
X18508Y32749D01*
X18518Y32747D01*
X18527Y32745D01*
X18537Y32743D01*
X18547Y32740D01*
X18556Y32737D01*
X18566Y32734D01*
X18575Y32731D01*
X18584Y32727D01*
X18593Y32723D01*
X18603Y32719D01*
X18611Y32714D01*
X18620Y32710D01*
X18629Y32705D01*
X18637Y32700D01*
X18646Y32694D01*
X18654Y32688D01*
X18662Y32682D01*
X18670Y32676D01*
X18678Y32670D01*
X18685Y32663D01*
X18692Y32657D01*
X18700Y32650D01*
X18707Y32642D01*
X18713Y32635D01*
X18720Y32628D01*
X18726Y32620D01*
X18732Y32612D01*
X18738Y32604D01*
X18744Y32596D01*
X18749Y32587D01*
X18754Y32579D01*
X18759Y32570D01*
X18764Y32561D01*
X18768Y32552D01*
X18772Y32543D01*
X18776Y32534D01*
X18780Y32525D01*
X18783Y32515D01*
X18786Y32506D01*
X18789Y32496D01*
X18792Y32486D01*
X18794Y32477D01*
X18796Y32467D01*
X18798Y32457D01*
X18799Y32447D01*
X18800Y32437D01*
X18801Y32427D01*
X18802Y32417D01*
X18802Y32407D01*
X18802Y32397D01*
X18802Y32388D01*
X18802Y32378D01*
X18801Y32368D01*
X18800Y32358D01*
X18799Y32348D01*
X18797Y32338D01*
X18795Y32328D01*
X18793Y32318D01*
X18791Y32309D01*
X18788Y32299D01*
X18785Y32290D01*
X18782Y32280D01*
X18778Y32271D01*
X18774Y32262D01*
X18770Y32252D01*
X18766Y32243D01*
X18761Y32234D01*
X18757Y32226D01*
X18752Y32217D01*
X18746Y32209D01*
X18741Y32200D01*
X18735Y32192D01*
X18729Y32184D01*
X18723Y32176D01*
X18717Y32169D01*
X18710Y32161D01*
X18703Y32154D01*
X18696Y32147D01*
X18689Y32140D01*
X18681Y32133D01*
X18674Y32127D01*
X18666Y32121D01*
X18658Y32115D01*
X18650Y32109D01*
X18642Y32103D01*
X18633Y32098D01*
X18625Y32093D01*
X18616Y32088D01*
X18607Y32083D01*
X18598Y32079D01*
X18589Y32075D01*
X18580Y32071D01*
X18570Y32067D01*
X18561Y32064D01*
X18551Y32061D01*
X18542Y32058D01*
X18532Y32056D01*
X18522Y32054D01*
X18513Y32052D01*
X18503Y32050D01*
X18493Y32049D01*
X18483Y32047D01*
X18473Y32047D01*
X18463Y32046D01*
X18453Y32046D01*
X18443D01*
X18433Y32046D01*
X18423Y32047D01*
X18413Y32047D01*
X18403Y32049D01*
X18393Y32050D01*
X18384Y32052D01*
X18374Y32054D01*
X18364Y32056D01*
X18354Y32058D01*
X18345Y32061D01*
X18335Y32064D01*
X18326Y32067D01*
X18317Y32071D01*
X18307Y32075D01*
X18298Y32079D01*
X18289Y32083D01*
X18280Y32088D01*
X18272Y32093D01*
X18263Y32098D01*
X18255Y32103D01*
X18246Y32109D01*
X18238Y32115D01*
X18230Y32121D01*
X18223Y32127D01*
X18215Y32133D01*
X18207Y32140D01*
X18200Y32147D01*
X18193Y32154D01*
X18186Y32161D01*
X18180Y32169D01*
X18173Y32176D01*
X18167Y32184D01*
X18161Y32192D01*
X18155Y32200D01*
X18150Y32209D01*
X18145Y32217D01*
X18140Y32226D01*
X18135Y32234D01*
X18130Y32243D01*
X18126Y32252D01*
X18122Y32262D01*
X18118Y32271D01*
X18115Y32280D01*
X18111Y32290D01*
X18108Y32299D01*
X18106Y32309D01*
X18103Y32318D01*
X18101Y32328D01*
X18099Y32338D01*
X18098Y32348D01*
X18096Y32358D01*
X18095Y32368D01*
X18095Y32378D01*
X18094Y32388D01*
X18094Y32397D01*
X18094Y32407D01*
X18094Y32417D01*
X18095Y32427D01*
X18096Y32437D01*
X18097Y32447D01*
X18098Y32457D01*
X18100Y32467D01*
X18102Y32477D01*
X18105Y32486D01*
X18107Y32496D01*
X18110Y32506D01*
X18113Y32515D01*
X18116Y32525D01*
X18120Y32534D01*
X18124Y32543D01*
X18128Y32552D01*
X18133Y32561D01*
X18137Y32570D01*
X18142Y32579D01*
X18147Y32587D01*
X18153Y32596D01*
X18158Y32604D01*
X18164Y32612D01*
X18170Y32620D01*
X18177Y32628D01*
X18183Y32635D01*
X18190Y32642D01*
X18197Y32650D01*
X18204Y32657D01*
X18211Y32663D01*
X18219Y32670D01*
X18226Y32676D01*
X18234Y32682D01*
X18242Y32688D01*
X18251Y32694D01*
X18259Y32700D01*
X18267Y32705D01*
X18276Y32710D01*
X18285Y32714D01*
X18294Y32719D01*
X18303Y32723D01*
X18312Y32727D01*
X18321Y32731D01*
X18331Y32734D01*
X18340Y32737D01*
X18350Y32740D01*
X18359Y32743D01*
X18369Y32745D01*
X18379Y32747D01*
X18389Y32749D01*
X18398Y32751D01*
X18408Y32752D01*
X18418Y32753D01*
X18428Y32754D01*
X18438Y32754D01*
X18448Y32754D01*
X18458Y32754D01*
D02*
G37*
G36*
X19865Y31632D02*
X19038D01*
Y31987D01*
X19865D01*
Y31632D01*
D02*
G37*
D11*
X47331Y43678D02*
X47350D01*
X47331D02*
X47331Y29922D01*
X47350Y29900D01*
X17800Y43700D02*
X47328D01*
X17800D02*
X17800Y29900D01*
X47350D01*
D15*
X46348Y35523D02*
G03*
X46348Y35523I-177J0D01*
G01*
Y32846D02*
G03*
X46348Y32846I-177J0D01*
G01*
X45024Y42438D02*
G03*
X45024Y42438I-148J0D01*
G01*
Y40162D02*
G03*
X45024Y40162I-148J0D01*
G01*
D16*
X37250Y42151D02*
D03*
Y42749D02*
D03*
X33950Y42151D02*
D03*
Y42749D02*
D03*
X20999Y32151D02*
D03*
Y32749D02*
D03*
X20300D02*
D03*
Y32151D02*
D03*
X33231Y31499D02*
D03*
Y30901D02*
D03*
X32400Y31499D02*
D03*
Y30901D02*
D03*
X43150Y37699D02*
D03*
Y37101D02*
D03*
X42401Y37699D02*
D03*
Y37101D02*
D03*
X46700Y37101D02*
D03*
Y37699D02*
D03*
X46045Y37101D02*
D03*
Y37699D02*
D03*
X43150Y40599D02*
D03*
Y40001D02*
D03*
Y41901D02*
D03*
Y42499D02*
D03*
X38811Y36399D02*
D03*
Y35801D02*
D03*
X38071D02*
D03*
Y36399D02*
D03*
X37331D02*
D03*
Y35801D02*
D03*
X36590Y36399D02*
D03*
Y35801D02*
D03*
X35850D02*
D03*
Y36399D02*
D03*
X29619Y40417D02*
D03*
Y41016D02*
D03*
X29600Y42202D02*
D03*
Y42800D02*
D03*
X26708Y42601D02*
D03*
Y43199D02*
D03*
X26000D02*
D03*
Y42601D02*
D03*
X25249Y43199D02*
D03*
Y42601D02*
D03*
D17*
X36212Y42076D02*
D03*
Y42450D02*
D03*
Y42824D02*
D03*
X35188D02*
D03*
Y42076D02*
D03*
X44238Y37774D02*
D03*
Y37400D02*
D03*
Y37026D02*
D03*
X45262D02*
D03*
Y37774D02*
D03*
D18*
X20351Y30700D02*
D03*
X20949D02*
D03*
X45852Y38600D02*
D03*
X46450D02*
D03*
X42401D02*
D03*
X42999D02*
D03*
X19149Y40200D02*
D03*
X18551D02*
D03*
D19*
X18552Y30650D02*
D03*
X19300D02*
D03*
X45000Y38600D02*
D03*
X44252D02*
D03*
X18452Y41000D02*
D03*
X19200D02*
D03*
D20*
X44950Y33200D02*
D03*
Y35168D02*
D03*
Y34184D02*
D03*
D21*
X44750Y31567D02*
D03*
Y30582D02*
D03*
D22*
X39400Y38300D02*
D03*
X40384Y38300D02*
D03*
D23*
X38239Y40938D02*
D03*
X41546D02*
D03*
D24*
X27294Y34750D02*
D03*
X27688D02*
D03*
X28082D02*
D03*
X28475D02*
D03*
X28869D02*
D03*
X29263D02*
D03*
X29656D02*
D03*
X30050D02*
D03*
X30444D02*
D03*
X30837D02*
D03*
X31231D02*
D03*
X31625D02*
D03*
X32018D02*
D03*
X32412D02*
D03*
X32806D02*
D03*
X33200D02*
D03*
X33593D02*
D03*
X33987D02*
D03*
X34381D02*
D03*
X34774D02*
D03*
X35168D02*
D03*
X35562D02*
D03*
X35956D02*
D03*
X36349D02*
D03*
X36743D02*
D03*
X37137D02*
D03*
X37530D02*
D03*
X37924D02*
D03*
X38318D02*
D03*
X38711D02*
D03*
D25*
X39794Y33785D02*
D03*
X26211D02*
D03*
D26*
X30800Y36400D02*
D03*
X30300D02*
D03*
X29800D02*
D03*
X29300D02*
D03*
X28800D02*
D03*
X28300D02*
D03*
X27800D02*
D03*
X27300D02*
D03*
Y38368D02*
D03*
X27800D02*
D03*
X28300D02*
D03*
X28800D02*
D03*
X29300D02*
D03*
X29800D02*
D03*
X30300D02*
D03*
X30800D02*
D03*
X35750Y38000D02*
D03*
X36250D02*
D03*
X36750D02*
D03*
X37250D02*
D03*
Y39969D02*
D03*
X36750D02*
D03*
X36250D02*
D03*
X35750D02*
D03*
D27*
X32584Y39500D02*
D03*
Y40000D02*
D03*
Y40500D02*
D03*
Y41000D02*
D03*
Y41500D02*
D03*
Y42000D02*
D03*
Y42500D02*
D03*
Y43000D02*
D03*
X30616D02*
D03*
Y42500D02*
D03*
Y42000D02*
D03*
Y41500D02*
D03*
Y41000D02*
D03*
Y40500D02*
D03*
Y40000D02*
D03*
Y39500D02*
D03*
D28*
X28848Y40317D02*
D03*
Y41065D02*
D03*
X27982Y40691D02*
D03*
X28848Y42100D02*
D03*
Y42848D02*
D03*
X27982Y42474D02*
D03*
M02*
